<svg width="42" height="42" viewBox="0 0 42 42" fill="none" xmlns="http://www.w3.org/2000/svg">
<path d="M21 42C32.598 42 42 32.598 42 21C42 9.40202 32.598 0 21 0C9.40202 0 0 9.40202 0 21C0 32.598 9.40202 42 21 42Z" fill="#B4BDCA" fill-opacity="0.1"/>
<path d="M21 38C30.3888 38 38 30.3888 38 21C38 11.6112 30.3888 4 21 4C11.6112 4 4 11.6112 4 21C4 30.3888 11.6112 38 21 38Z" fill="#C9D3E0" fill-opacity="0.7"/>
<path d="M31.9119 19.6066C31.5511 16.905 30.2064 14.4589 28.1032 12.6924L27.6472 13.2353C29.6025 14.8775 30.8565 17.1475 31.2028 19.6556C30.5994 19.8464 30.167 20.4104 30.167 21.0726C30.167 21.7346 30.5994 22.2986 31.2027 22.4896C30.8983 24.6794 29.8773 26.7345 28.3051 28.3067C26.733 29.8789 24.6778 30.8999 22.488 31.2043C22.297 30.601 21.7331 30.1686 21.071 30.1686C20.4089 30.1686 19.845 30.601 19.654 31.2043C17.321 30.881 15.1657 29.7565 13.5559 28.0145L13.0352 28.4957C14.7676 30.3703 17.0911 31.5765 19.6049 31.9134C19.7268 32.6125 20.3376 33.1458 21.071 33.1458C21.8045 33.1458 22.4152 32.6125 22.5371 31.9133C24.8973 31.5961 27.1138 30.5007 28.8065 28.8081C30.4991 27.1155 31.5945 24.8989 31.9116 22.5387C32.6108 22.4169 33.1441 21.8061 33.1441 21.0726C33.1442 20.3393 32.611 19.7285 31.9119 19.6066ZM21.071 32.4367C20.6411 32.4367 20.2914 32.087 20.2914 31.6572C20.2914 31.6551 20.2914 31.6531 20.2914 31.6509L20.2947 31.6145C20.3155 31.2013 20.6565 30.8776 21.071 30.8776C21.4855 30.8776 21.8264 31.2013 21.8472 31.6145L21.8485 31.6407L21.8505 31.6509C21.8506 31.6531 21.8506 31.6551 21.8506 31.6572C21.8505 32.087 21.5008 32.4367 21.071 32.4367ZM31.6556 21.8521C31.6536 21.8521 31.6514 21.8521 31.6493 21.8522L31.6129 21.8488C31.1997 21.828 30.876 21.4871 30.876 21.0726C30.876 20.6581 31.1997 20.3172 31.6129 20.2963L31.639 20.2951L31.6492 20.293C31.6514 20.293 31.6535 20.293 31.6555 20.293C32.0854 20.293 32.4351 20.6427 32.4351 21.0726C32.4351 21.5024 32.0855 21.8521 31.6556 21.8521Z" fill="#343E4C"/>
<path d="M11.9772 21.0731C11.9772 20.4111 11.5448 19.8472 10.9415 19.6562C11.2459 17.4664 12.2669 15.4112 13.8391 13.839C15.4112 12.2669 17.4664 11.2458 19.6562 10.9415C19.8472 11.5448 20.4111 11.9771 21.0732 11.9771C21.7356 11.9771 22.2997 11.5446 22.4904 10.9409C24.078 11.1614 25.6035 11.7583 26.9206 12.6772L27.3263 12.0957C25.9041 11.1035 24.2548 10.4625 22.5393 10.2321C22.4173 9.53325 21.8065 9 21.0731 9C20.3397 9 19.7289 9.53334 19.6071 10.2325C17.2469 10.5497 15.0303 11.6451 13.3377 13.3377C11.645 15.0303 10.5497 17.2469 10.2325 19.6071C9.53334 19.7289 9 20.3397 9 21.0731C9 21.8066 9.53325 22.4173 10.2323 22.5392C10.4915 24.4746 11.2645 26.3024 12.4787 27.8422L13.0354 27.4032C11.9095 25.9755 11.1892 24.2829 10.941 22.4903C11.5447 22.2994 11.9772 21.7354 11.9772 21.0731ZM20.2936 10.4885C20.2936 10.0587 20.6433 9.70901 21.0732 9.70901C21.5031 9.70901 21.8528 10.0587 21.8528 10.4885C21.8528 10.4906 21.8528 10.4927 21.8528 10.4949L21.8494 10.5313C21.8287 10.9444 21.4877 11.2681 21.0732 11.2681C20.6587 11.2681 20.3178 10.9444 20.297 10.5313L20.2957 10.5052L20.2936 10.4949C20.2936 10.4928 20.2936 10.4906 20.2936 10.4885ZM10.5051 21.8506L10.4949 21.8527C10.4928 21.8527 10.4907 21.8527 10.4887 21.8527C10.0588 21.8527 9.70911 21.503 9.70911 21.0731C9.70911 20.6432 10.0588 20.2936 10.4887 20.2936C10.4907 20.2936 10.4928 20.2936 10.4949 20.2935L10.5313 20.2969C10.9445 20.3177 11.2682 20.6586 11.2682 21.0731C11.2682 21.4876 10.9445 21.8285 10.5313 21.8494L10.5051 21.8506Z" fill="#343E4C"/>
<path d="M12.7812 21.0732C12.7812 25.6459 16.5015 29.3661 21.0742 29.3661C25.6469 29.3661 29.3671 25.6459 29.3671 21.0732C29.3671 16.5005 25.6469 12.7803 21.0742 12.7803C16.5014 12.7803 12.7812 16.5005 12.7812 21.0732ZM13.4988 21.4277H16.9394V24.4989H14.3092C13.8363 23.5687 13.5497 22.5284 13.4988 21.4277ZM16.9395 27.4277C16.0546 26.85 15.2974 26.0928 14.7197 25.2079H16.9395V27.4277ZM16.9395 20.7187H13.4988C13.5497 19.6179 13.8363 18.5777 14.3093 17.6475H16.9395V20.7187ZM16.9395 16.9385H14.7197C15.2974 16.0537 16.0546 15.2964 16.9395 14.7187V16.9385ZM20.7196 28.6486C19.6188 28.5977 18.5787 28.3112 17.6485 27.8381V25.208H20.7196V28.6486ZM20.7196 24.4989H17.6485V21.4277H20.7196V24.4989ZM20.7196 20.7187H17.6485V17.6475H20.7196V20.7187ZM20.7196 16.9385H17.6485V14.3083C18.5787 13.8353 19.6189 13.5488 20.7196 13.4978V16.9385ZM24.4998 27.8381C23.5696 28.3111 22.5294 28.5976 21.4287 28.6485V25.2079H24.4998V27.8381ZM24.4998 24.4989H21.4287V21.4277H24.4998V24.4989ZM24.4998 20.7187H21.4287V17.6475H24.4998V20.7187ZM25.2089 27.4277V25.2079H27.4286C26.8509 26.0928 26.0937 26.85 25.2089 27.4277ZM25.2089 14.7187C26.0937 15.2964 26.8509 16.0537 27.4287 16.9385H25.2089V14.7187ZM25.2089 17.6475H27.8391C28.312 18.5777 28.5986 19.6179 28.6495 20.7187H25.2089V17.6475ZM25.2088 21.4277H28.6495C28.5986 22.5284 28.312 23.5687 27.839 24.4989H25.2088V21.4277ZM24.4998 16.9385H21.4287V13.4978C22.5294 13.5487 23.5696 13.8352 24.4998 14.3082V16.9385Z" fill="#343E4C"/>
<path d="M19.5607 18.8281H18.8047V19.5371H19.5607V18.8281Z" fill="#343E4C"/>
<path d="M23.342 18.8281H22.5859V19.5371H23.342V18.8281Z" fill="#343E4C"/>
<path d="M23.342 22.6094H22.5859V23.3184H23.342V22.6094Z" fill="#343E4C"/>
<path d="M19.5607 22.6094H18.8047V23.3184H19.5607V22.6094Z" fill="#343E4C"/>
<path d="M19.5607 26.3887H18.8047V27.0977H19.5607V26.3887Z" fill="#343E4C"/>
<path d="M23.342 26.3887H22.5859V27.0977H23.342V26.3887Z" fill="#343E4C"/>
<path d="M23.342 15.0479H22.5859V15.7569H23.342V15.0479Z" fill="#343E4C"/>
<path d="M19.5607 15.0479H18.8047V15.7569H19.5607V15.0479Z" fill="#343E4C"/>
<path d="M15.7834 18.8281H15.0273V19.5371H15.7834V18.8281Z" fill="#343E4C"/>
<path d="M27.1233 18.8281H26.3672V19.5371H27.1233V18.8281Z" fill="#343E4C"/>
<path d="M27.1233 22.6094H26.3672V23.3184H27.1233V22.6094Z" fill="#343E4C"/>
<path d="M15.7834 22.6094H15.0273V23.3184H15.7834V22.6094Z" fill="#343E4C"/>
</svg>
