<svg width="18" height="22" viewBox="0 0 18 22" fill="none" xmlns="http://www.w3.org/2000/svg">
<path d="M13.157 22H4.10115C1.84009 22 7.5252e-10 20.1599 7.5252e-10 17.8998V4.10021C-4.2968e-05 1.84009 1.84005 0 4.10115 0H10.9817C12.0742 0 13.1397 0.447004 13.9056 1.22543L16.1744 4.31213C16.8401 4.97492 17.2582 5.99423 17.2582 7.07708V17.8998C17.2582 20.1599 15.4181 22 13.157 22ZM4.10115 1.97304C2.92776 1.97304 1.97304 2.92682 1.97304 4.10021V17.8998C1.97304 19.0732 2.92776 20.027 4.10115 20.027H13.157C14.3304 20.027 15.2851 19.0732 15.2851 17.8998V7.07708C15.2851 6.51638 15.0684 5.98654 14.6743 5.58577L12.4056 2.49906C12.1011 2.20425 11.5482 1.97304 10.9817 1.97304H4.10115Z" fill="#06828E"/>
<path d="M11.3391 7.79824H5.91621C5.37093 7.79824 4.92969 7.35699 4.92969 6.81172C4.92969 6.26644 5.37093 5.8252 5.91621 5.8252H11.3391C11.8844 5.8252 12.3256 6.26644 12.3256 6.81172C12.3256 7.35703 11.8844 7.79824 11.3391 7.79824Z" fill="#06828E"/>
<path d="M11.3391 12.2934H5.91621C5.37093 12.2934 4.92969 11.8521 4.92969 11.3068C4.92969 10.7616 5.37093 10.3203 5.91621 10.3203H11.3391C11.8844 10.3203 12.3256 10.7616 12.3256 11.3068C12.3256 11.8521 11.8844 12.2934 11.3391 12.2934Z" fill="#06828E"/>
<path d="M11.3391 16.7865H5.91621C5.37093 16.7865 4.92969 16.3453 4.92969 15.8C4.92969 15.2547 5.37093 14.8135 5.91621 14.8135H11.3391C11.8844 14.8135 12.3256 15.2547 12.3256 15.8C12.3256 16.3453 11.8844 16.7865 11.3391 16.7865Z" fill="#06828E"/>
</svg>
