<svg width="44" height="44" viewBox="0 0 44 44" fill="none" xmlns="http://www.w3.org/2000/svg">
<path d="M22.0006 5.51074C12.9086 5.51074 5.51172 12.9076 5.51172 21.9997C5.51172 31.0917 12.9086 38.4886 22.0006 38.4886C31.0926 38.4886 38.4895 31.0917 38.4895 21.9997C38.4895 12.9076 31.0926 5.51074 22.0006 5.51074ZM22.0006 37.1995C13.6194 37.1995 6.80078 30.3809 6.80078 21.9997C6.80078 13.6184 13.6194 6.7998 22.0006 6.7998C30.3819 6.7998 37.2005 13.6184 37.2005 21.9997C37.2005 30.3809 30.3819 37.1995 22.0006 37.1995Z" fill="white"/>
<path d="M41.8833 12.5712C41.7306 12.2497 41.3461 12.1129 41.0246 12.2656C40.703 12.4183 40.5663 12.8028 40.719 13.1243C42.0414 15.9079 42.7119 18.8942 42.7119 22.0004C42.7119 27.5325 40.5576 32.7335 36.6458 36.6453C32.734 40.5571 27.5331 42.7114 22.0009 42.7114C18.7201 42.7114 15.5825 41.9668 12.6756 40.4983C10.2534 39.2747 8.06521 37.5569 6.28836 35.4927L8.83134 36.3404C9.1689 36.453 9.53405 36.2704 9.64663 35.9328C9.75921 35.5951 9.57668 35.2301 9.23894 35.1175L4.66277 33.5921C4.45093 33.5215 4.21744 33.5657 4.046 33.7087C3.87447 33.8518 3.78939 34.0735 3.82093 34.2947L4.58362 39.6335C4.6296 39.955 4.90529 40.187 5.22093 40.187C5.25127 40.187 5.28195 40.1848 5.31289 40.1804C5.66532 40.1301 5.91015 39.8036 5.85979 39.4513L5.43423 36.4724C7.29899 38.6019 9.57702 40.3772 12.0945 41.6488C15.1832 43.2093 18.5162 44.0004 22.0009 44.0004C27.8773 44.0004 33.402 41.712 37.5573 37.5568C41.7126 33.4015 44.0009 27.8768 44.0009 22.0004C44.0009 18.7014 43.2884 15.529 41.8833 12.5712Z" fill="white"/>
<path d="M1.28906 22C1.28906 16.4679 3.44334 11.2669 7.35513 7.35513C11.2669 3.44334 16.4679 1.28906 22 1.28906C28.0892 1.28906 33.7651 3.90964 37.7108 8.50704L35.1696 7.66004C34.8319 7.54746 34.4669 7.72999 34.3543 8.06764C34.2417 8.40537 34.4242 8.77035 34.762 8.88293L39.3381 10.4083C39.4048 10.4306 39.4736 10.4414 39.5419 10.4414C39.6908 10.4414 39.8374 10.3898 39.955 10.2917C40.1265 10.1486 40.2116 9.9269 40.1801 9.70578L39.4174 4.36691C39.367 4.01448 39.0404 3.76956 38.6882 3.82001C38.3358 3.87037 38.0909 4.19684 38.1413 4.54919L38.5664 7.52503C34.3808 2.72938 28.4056 0 22 0C16.1236 0 10.5989 2.28843 6.44359 6.44359C2.28843 10.5989 0 16.1236 0 22C0 25.2991 0.712508 28.4714 2.11759 31.4292C2.22793 31.6614 2.4591 31.7973 2.70024 31.7973C2.79288 31.7973 2.88707 31.7773 2.97636 31.7347C3.29785 31.582 3.43466 31.1975 3.28195 30.8761C1.95955 28.0925 1.28906 25.1062 1.28906 22Z" fill="white"/>
<path d="M18.3977 28.2292C18.7536 28.2292 19.0422 27.9406 19.0422 27.5847V16.6592C19.0422 16.3032 18.7536 16.0146 18.3977 16.0146H16.0625C15.7065 16.0146 15.418 16.3032 15.418 16.6592C15.418 17.0151 15.7065 17.3037 16.0625 17.3037H17.7531V27.5847C17.7531 27.9406 18.0417 28.2292 18.3977 28.2292Z" fill="white"/>
<path d="M25.5648 21.6425C23.8271 24.1254 22.7895 25.4839 22.2321 26.2138C21.5766 27.072 21.4209 27.276 21.5421 27.6704C21.6091 27.888 21.7761 28.0557 22.0002 28.1303C22.0889 28.1599 22.2316 28.2076 24.2841 28.2076C25.1046 28.2076 26.2305 28.2 27.7796 28.1805C28.1356 28.1761 28.4205 27.8839 28.416 27.5279C28.4115 27.172 28.1198 26.8891 27.7634 26.8916C26.1535 26.9117 24.3959 26.9224 23.3192 26.9141C23.896 26.1586 24.931 24.7961 26.6209 22.3816C27.2753 21.4466 27.6996 20.5733 27.8823 19.7857C27.8872 19.7646 27.891 19.7434 27.8937 19.7219L27.9477 19.2992C27.9513 19.2722 27.953 19.2448 27.953 19.2175C27.953 17.3206 26.4097 15.7773 24.5128 15.7773C22.8726 15.7773 21.4529 16.944 21.1372 18.5514C21.0686 18.9007 21.2962 19.2395 21.6454 19.3081C21.9946 19.3767 22.3334 19.1492 22.4021 18.7999C22.5993 17.7954 23.4871 17.0664 24.5128 17.0664C25.6861 17.0664 26.6431 18.0106 26.6636 19.1791L26.6194 19.5247C26.4698 20.1439 26.1151 20.8562 25.5648 21.6425Z" fill="white"/>
<path d="M9.57176 21.3841C9.72327 18.2954 11.012 15.3891 13.2006 13.2004C15.3892 11.0118 18.2956 9.72304 21.3843 9.57153C24.4518 9.42123 27.4484 10.3983 29.8232 12.3232C30.0998 12.5473 30.5056 12.5048 30.7297 12.2283C30.9539 11.9517 30.9114 11.5459 30.6349 11.3217C28.0132 9.19684 24.7054 8.1179 21.3211 8.28402C17.9121 8.45134 14.7045 9.8736 12.2891 12.289C9.87375 14.7042 8.45139 17.9119 8.28425 21.3209C8.11821 24.7053 9.19707 28.013 11.3219 30.6346C11.4492 30.7918 11.6353 30.8733 11.823 30.8733C11.9656 30.8733 12.1091 30.8262 12.2284 30.7294C12.505 30.5053 12.5474 30.0994 12.3233 29.8229C10.3985 27.4482 9.42128 24.4511 9.57176 21.3841Z" fill="white"/>
<path d="M31.772 13.2708C31.4955 13.4949 31.453 13.9008 31.6771 14.1774C33.602 16.5522 34.5792 19.5492 34.4288 22.6163C34.2773 25.7049 32.9885 28.6113 30.7999 30.7999C28.6113 32.9886 25.7049 34.2773 22.6162 34.4288C19.5491 34.5794 16.5521 33.6021 14.1773 31.6772C13.9008 31.453 13.495 31.4955 13.2708 31.772C13.0467 32.0486 13.0891 32.4545 13.3657 32.6786C15.8116 34.6611 18.8546 35.733 22.0001 35.733C22.226 35.733 22.4527 35.7275 22.6795 35.7164C26.0884 35.549 29.296 34.1267 31.7113 31.7114C34.1267 29.2961 35.5491 26.0884 35.7162 22.6794C35.8822 19.295 34.8034 15.9873 32.6786 13.3657C32.4544 13.0891 32.0485 13.0467 31.772 13.2708Z" fill="white"/>
</svg>
