<svg width="44" height="44" viewBox="0 0 44 44" fill="none" xmlns="http://www.w3.org/2000/svg">
<g clip-path="url(#clip0_1539_1110)">
<path d="M21.6565 25.3785L27.0142 30.7362C27.1431 30.865 27.3179 30.9375 27.5002 30.9375C27.6825 30.9375 27.8574 30.865 27.9863 30.7362L30.7363 27.9862C30.8652 27.8572 30.9376 27.6824 30.9376 27.5001C30.9376 27.3178 30.8652 27.143 30.7363 27.014L25.3786 21.6563L25.8475 21.1882C26.1629 21.2694 26.4871 21.3112 26.8127 21.3126C27.4756 21.3175 28.1298 21.1615 28.719 20.8578C29.3083 20.5541 29.815 20.1119 30.1957 19.5692C30.5763 19.0264 30.8195 18.3994 30.9043 17.742C30.9891 17.0845 30.9131 16.4163 30.6827 15.7947C30.6435 15.6856 30.5775 15.5881 30.4906 15.5114C30.4037 15.4347 30.2988 15.3812 30.1857 15.3559C30.0725 15.3306 29.9548 15.3343 29.8435 15.3666C29.7322 15.399 29.6309 15.459 29.549 15.541L27.9031 17.1876H26.8127V16.0972L28.4627 14.4513C28.5448 14.3694 28.6048 14.2681 28.6371 14.1568C28.6695 14.0455 28.6732 13.9278 28.6479 13.8147C28.6226 13.7016 28.5691 13.5967 28.4924 13.5098C28.4156 13.4229 28.3182 13.3568 28.2091 13.3177C27.5873 13.0888 26.9193 13.0138 26.2622 13.0993C25.6052 13.1847 24.9786 13.428 24.436 13.8083C23.8934 14.1886 23.451 14.6946 23.1466 15.2831C22.8421 15.8716 22.6847 16.525 22.6877 17.1876C22.6894 17.5123 22.7311 17.8356 22.8122 18.1501L22.0002 18.9655L21.3127 18.278V17.1876C21.3127 17.0053 21.2402 16.8304 21.1113 16.7015L17.6738 13.264C17.5449 13.1351 17.37 13.0627 17.1877 13.0627C17.0054 13.0627 16.8306 13.1351 16.7017 13.264L13.2642 16.7015C13.1353 16.8305 13.0629 17.0053 13.0629 17.1876C13.0629 17.3699 13.1353 17.5447 13.2642 17.6737L16.7017 21.1112C16.8306 21.2401 17.0054 21.3126 17.1877 21.3126H18.2781L18.9656 22.0001L18.1502 22.812C17.8358 22.731 17.5125 22.6892 17.1877 22.6876C16.5249 22.6827 15.8707 22.8387 15.2814 23.1424C14.6922 23.4461 14.1855 23.8883 13.8048 24.431C13.4242 24.9738 13.181 25.6008 13.0962 26.2582C13.0113 26.9157 13.0874 27.5839 13.3178 28.2055C13.3569 28.3146 13.423 28.412 13.5099 28.4888C13.5968 28.5655 13.7017 28.619 13.8148 28.6443C13.928 28.6696 14.0456 28.6659 14.157 28.6336C14.2683 28.6012 14.3696 28.5412 14.4515 28.4592L16.0974 26.8126H17.1877V27.903L15.5412 29.5488C15.4591 29.6308 15.3991 29.7321 15.3668 29.8434C15.3344 29.9547 15.3307 30.0724 15.356 30.1855C15.3813 30.2986 15.4348 30.4035 15.5116 30.4904C15.5883 30.5773 15.6857 30.6434 15.7949 30.6825C16.4164 30.9129 17.0847 30.989 17.7421 30.9042C18.3996 30.8193 19.0266 30.5762 19.5693 30.1955C20.112 29.8149 20.5542 29.3082 20.8579 28.7189C21.1616 28.1297 21.3177 27.4755 21.3127 26.8126C21.3111 26.4879 21.2693 26.1646 21.1883 25.8501L21.6565 25.3785ZM27.5002 29.278L22.2849 24.0626L24.0627 22.2847L29.2781 27.5001L27.5002 29.278ZM24.0765 18.8376C24.1688 18.7454 24.2329 18.6288 24.2614 18.5014C24.2899 18.3741 24.2816 18.2412 24.2374 18.1185C24.1249 17.8209 24.0657 17.5057 24.0627 17.1876C24.0636 16.5106 24.3138 15.8576 24.7655 15.3532C25.2172 14.8489 25.8388 14.5286 26.5116 14.4534L25.6392 15.3265C25.5102 15.4554 25.4378 15.6303 25.4377 15.8126V17.8751C25.4377 18.0574 25.5102 18.2323 25.6391 18.3612C25.768 18.4902 25.9429 18.5626 26.1252 18.5626H28.1877C28.3701 18.5626 28.5449 18.4901 28.6738 18.3612L29.5469 17.4887C29.4717 18.1616 29.1514 18.7832 28.6471 19.2349C28.1428 19.6866 27.4898 19.9367 26.8127 19.9376C26.4957 19.9342 26.1818 19.8751 25.8853 19.763C25.7624 19.7195 25.6298 19.7116 25.5026 19.74C25.3754 19.7685 25.2588 19.8322 25.1662 19.9238L24.3776 20.7131C24.2806 20.6616 24.1725 20.6347 24.0627 20.6347C23.953 20.6347 23.8448 20.6616 23.7479 20.7131L22.9724 19.9376L24.0765 18.8376ZM17.4724 19.9376L14.7224 17.1876L17.1877 14.7222L19.9377 17.4722V18.5626C19.9378 18.7449 20.0102 18.9198 20.1392 19.0487L22.7469 21.6563L21.6565 22.7467L19.0488 20.139C18.9199 20.0101 18.7451 19.9376 18.5627 19.9376H17.4724ZM19.7631 25.8852C19.8752 26.1817 19.9343 26.4956 19.9377 26.8126C19.9369 27.4896 19.6867 28.1426 19.235 28.6469C18.7833 29.1513 18.1617 29.4716 17.4889 29.5468L18.3613 28.6737C18.4902 28.5448 18.5627 28.3699 18.5627 28.1876V26.1251C18.5627 25.9428 18.4903 25.7679 18.3614 25.639C18.2324 25.51 18.0576 25.4376 17.8752 25.4376H15.8127C15.6304 25.4376 15.4556 25.5101 15.3267 25.639L14.4536 26.5115C14.5287 25.8386 14.8491 25.217 15.3534 24.7653C15.8577 24.3136 16.5107 24.0635 17.1877 24.0626C17.5047 24.066 17.8187 24.1251 18.1152 24.2372C18.2385 24.2816 18.3719 24.2901 18.4998 24.2616C18.6277 24.2331 18.7449 24.1689 18.8377 24.0763L19.9377 22.9722L20.7132 23.7477C20.6618 23.8447 20.6349 23.9528 20.6349 24.0626C20.6349 24.1724 20.6618 24.2805 20.7132 24.3775L19.924 25.1626C19.831 25.2551 19.7665 25.3723 19.738 25.5004C19.7095 25.6284 19.7182 25.7619 19.7631 25.8852Z" fill="white"/>
<path d="M35.0625 22C35.0625 19.4165 34.2964 16.891 32.8611 14.7429C31.4258 12.5948 29.3857 10.9205 26.9988 9.93183C24.6119 8.94316 21.9855 8.68448 19.4516 9.1885C16.9178 9.69252 14.5902 10.9366 12.7634 12.7634C10.9366 14.5902 9.69252 16.9178 9.1885 19.4516C8.68448 21.9855 8.94316 24.6119 9.93183 26.9988C10.9205 29.3857 12.5948 31.4258 14.7429 32.8611C16.891 34.2964 19.4165 35.0625 22 35.0625C25.4632 35.0587 28.7835 33.6812 31.2324 31.2324C33.6812 28.7835 35.0587 25.4632 35.0625 22ZM10.3125 22C10.3125 19.6884 10.998 17.4288 12.2822 15.5068C13.5664 13.5848 15.3918 12.0868 17.5274 11.2022C19.663 10.3176 22.013 10.0861 24.2801 10.5371C26.5473 10.988 28.6298 12.1012 30.2643 13.7357C31.8988 15.3702 33.012 17.4527 33.4629 19.7199C33.9139 21.987 33.6824 24.337 32.7978 26.4726C31.9132 28.6082 30.4152 30.4336 28.4932 31.7178C26.5712 33.002 24.3116 33.6875 22 33.6875C18.9013 33.684 15.9306 32.4516 13.7395 30.2605C11.5484 28.0694 10.316 25.0987 10.3125 22Z" fill="white"/>
<path d="M39.9551 10.5134C39.828 10.3147 39.6966 10.1167 39.5626 9.92285L38.4316 10.7025C38.5568 10.8858 38.6794 11.0691 38.7995 11.2525L39.9551 10.5134Z" fill="white"/>
<path d="M8.70312 38.6573C9.07987 38.9577 9.46488 39.2444 9.84713 39.5105L10.6316 38.3809C10.2658 38.1265 9.90831 37.8591 9.55975 37.582L8.70312 38.6573Z" fill="white"/>
<path d="M41.9265 21.3374L43.3015 21.292C43.2863 20.8149 43.2547 20.3364 43.2087 19.8682L41.8398 20.0057C41.8829 20.4447 41.9118 20.8886 41.9265 21.3374Z" fill="white"/>
<path d="M41.6631 18.6803L43.0189 18.4535C42.9398 17.9818 42.8442 17.5116 42.7356 17.0537L41.3984 17.372C41.4995 17.7996 41.5889 18.2396 41.6631 18.6803Z" fill="white"/>
<path d="M11.0469 40.2875C11.4484 40.5281 11.8719 40.7618 12.2961 40.9805L12.9231 39.7574C12.5243 39.5511 12.1318 39.3346 11.7543 39.1084L11.0469 40.2875Z" fill="white"/>
<path d="M40.0848 13.5933L41.3305 13.0137C41.1325 12.5875 40.918 12.1592 40.685 11.7405L39.4805 12.4025C39.6957 12.7944 39.8985 13.1945 40.0848 13.5933Z" fill="white"/>
<path d="M41.0441 16.0879L42.3572 15.6809C42.2197 15.232 42.0609 14.7782 41.8883 14.332L40.6055 14.8263C40.7691 15.2409 40.9155 15.6651 41.0441 16.0879Z" fill="white"/>
<path d="M34.3184 37.6787L35.1681 38.7595C35.5421 38.4652 35.9092 38.1558 36.2599 37.8396L35.3372 36.8193C35.0114 37.1143 34.6683 37.4003 34.3184 37.6787Z" fill="white"/>
<path d="M36.3008 35.8908L37.286 36.8533C37.6187 36.5095 37.9412 36.1554 38.2485 35.7959L37.1993 34.9062C36.9154 35.239 36.6129 35.5711 36.3008 35.8908Z" fill="white"/>
<path d="M38.0312 33.8561L39.1354 34.6756C39.4172 34.2961 39.6895 33.9008 39.9473 33.5L38.7903 32.7568C38.5496 33.1315 38.2946 33.5014 38.0312 33.8561Z" fill="white"/>
<path d="M32.1152 39.1871L32.8144 40.3716C33.2269 40.1283 33.6312 39.8705 34.0182 39.6051L33.2414 38.4707C32.879 38.7161 32.5002 38.9575 32.1152 39.1871Z" fill="white"/>
<path d="M29.7344 40.3815L30.2686 41.6492C30.7058 41.4643 31.141 41.2642 31.5631 41.0518L30.9444 39.8232C30.5488 40.0226 30.1455 40.2087 29.7344 40.3815Z" fill="white"/>
<path d="M41.3945 26.6377L42.7317 26.956C42.8424 26.4906 42.938 26.0203 43.0157 25.557L41.6599 25.3301C41.587 25.7625 41.4977 26.2025 41.3945 26.6377Z" fill="white"/>
<path d="M41.8379 24.0065L43.2067 24.144C43.2535 23.6682 43.2851 23.1897 43.3002 22.7209L41.9252 22.6748C41.9115 23.1217 41.8819 23.5651 41.8379 24.0065Z" fill="white"/>
<path d="M39.4727 31.6084L40.6772 32.2726C40.9054 31.8601 41.1233 31.4297 41.3241 30.9986L40.0804 30.417C39.89 30.8199 39.6872 31.2207 39.4727 31.6084Z" fill="white"/>
<path d="M40.6016 29.1883L41.8838 29.6839C42.0543 29.2432 42.2117 28.7902 42.354 28.3344L41.0409 27.9219C40.9089 28.3509 40.7604 28.7758 40.6016 29.1883Z" fill="white"/>
<path d="M16.2812 42.5362C16.7426 42.6648 17.2094 42.7775 17.6693 42.8717L17.9443 41.5249C17.5146 41.4362 17.0781 41.331 16.6463 41.2107L16.2812 42.5362Z" fill="white"/>
<path d="M27.2129 41.2496L27.5725 42.5765C28.0324 42.452 28.4916 42.3111 28.9371 42.1578L28.4896 40.8584C28.0736 41.0014 27.644 41.1327 27.2129 41.2496Z" fill="white"/>
<path d="M13.5898 41.5878C14.0264 41.7755 14.474 41.9508 14.9188 42.1076L15.3767 40.8103C14.9554 40.6627 14.5407 40.5007 14.1323 40.3242L13.5898 41.5878Z" fill="white"/>
<path d="M22.0004 41.9372H21.9316V43.3122H22.0004C22.4532 43.3122 22.9033 43.2979 23.3506 43.2695L23.2661 41.8945C22.8472 41.9229 22.4253 41.9372 22.0004 41.9372Z" fill="white"/>
<path d="M19.0781 43.1141C19.5511 43.1787 20.0289 43.2275 20.4978 43.2605L20.5934 41.8855C20.1465 41.8546 19.6996 41.8079 19.2638 41.748L19.0781 43.1141Z" fill="white"/>
<path d="M24.5957 41.7703L24.7731 43.1329C25.2468 43.0717 25.7198 42.9954 26.1811 42.9019L25.9123 41.5537C25.4812 41.639 25.0385 41.7125 24.5957 41.7703Z" fill="white"/>
<path d="M7.08203 37.2196C7.25116 37.386 7.42303 37.5492 7.59766 37.7091L8.52578 36.6951C8.36353 36.5459 8.20266 36.3939 8.04453 36.2393L7.08203 37.2196Z" fill="white"/>
<path d="M22.0001 2.06243C27.1158 2.07122 32.0338 4.03941 35.7432 7.56243H33.6876V8.93743H37.1251C37.3074 8.93743 37.4823 8.86499 37.6112 8.73606C37.7401 8.60713 37.8126 8.43226 37.8126 8.24993V4.81243H36.4376V6.33318C33.3938 3.52513 29.5975 1.66508 25.5133 0.98056C21.429 0.296044 17.2337 0.816742 13.4407 2.47896C9.6477 4.14117 6.42137 6.87284 4.15639 10.3398C1.89142 13.8067 0.685992 17.8587 0.687578 21.9999C0.67502 26.6133 2.17198 31.1042 4.95008 34.7874L6.05008 33.9624C3.8285 31.0003 2.47566 27.4781 2.14314 23.7904C1.81062 20.1028 2.51157 16.3953 4.16744 13.0836C5.8233 9.77187 8.36867 6.98666 11.5183 5.04008C14.668 3.09349 18.2974 2.06243 22.0001 2.06243Z" fill="white"/>
<path d="M37.8125 22C37.8125 18.8726 36.8851 15.8154 35.1476 13.2151C33.4101 10.6147 30.9405 8.58797 28.0512 7.39116C25.1618 6.19435 21.9825 5.88121 18.9151 6.49134C15.8478 7.10147 13.0303 8.60746 10.8189 10.8189C8.60746 13.0303 7.10147 15.8478 6.49134 18.9151C5.88121 21.9825 6.19435 25.1618 7.39116 28.0512C8.58797 30.9405 10.6147 33.4101 13.2151 35.1476C15.8154 36.8851 18.8726 37.8125 22 37.8125C26.1923 37.808 30.2117 36.1405 33.1761 33.1761C36.1405 30.2117 37.808 26.1923 37.8125 22ZM7.56251 22C7.56251 19.1445 8.40925 16.3532 9.99566 13.979C11.5821 11.6047 13.8369 9.75424 16.475 8.6615C19.1131 7.56876 22.016 7.28285 24.8166 7.83992C27.6172 8.39699 30.1897 9.77203 32.2089 11.7912C34.228 13.8103 35.603 16.3828 36.1601 19.1834C36.7172 21.984 36.4313 24.8869 35.3385 27.525C34.2458 30.1631 32.3953 32.4179 30.0211 34.0044C27.6468 35.5908 24.8555 36.4375 22 36.4375C18.1723 36.4331 14.5026 34.9107 11.796 32.204C9.08937 29.4974 7.56687 25.8277 7.56251 22Z" fill="white"/>
</g>
<defs>
<clipPath id="clip0_1539_1110">
<rect width="44" height="44" fill="white"/>
</clipPath>
</defs>
</svg>
