<svg width="27" height="27" viewBox="0 0 27 27" fill="none" xmlns="http://www.w3.org/2000/svg">
<g clip-path="url(#clip0_1539_1364)">
<path d="M19.8813 1.97381C19.7329 1.82426 19.5307 1.74021 19.3199 1.74021C19.1092 1.74021 18.9071 1.82446 18.7586 1.97401L16.4218 4.32894C16.2671 4.48467 16.0617 4.57057 15.8438 4.57057C15.6777 4.57057 11.706 4.57057 11.0099 4.57057C10.7918 4.57057 10.5866 4.48467 10.4305 4.3277L8.13465 2.02551C7.98634 1.87658 7.78467 1.79295 7.57455 1.79295C7.57435 1.79295 7.57394 1.79295 7.57373 1.79295C7.3632 1.79315 7.16154 1.8774 7.01322 2.02675L0.176898 8.91354C-0.129827 9.22253 -0.129209 9.72124 0.17834 10.0296L2.13899 11.994C2.5104 12.3683 2.71495 12.8662 2.71495 13.3962C2.71495 14.0819 2.90735 14.7378 3.26495 15.3029C2.48671 16.2492 2.53697 17.6586 3.41657 18.5446C3.84236 18.9737 4.39998 19.2217 4.99798 19.2509C5.02538 19.8294 5.25774 20.3996 5.69527 20.8402C6.12106 21.2693 6.67869 21.5173 7.27689 21.5465C7.30408 22.125 7.53665 22.6952 7.97398 23.1358C8.66261 23.8296 9.65077 24.0045 10.4853 23.7047C10.6002 24.0368 10.7889 24.3483 11.0517 24.613C11.9909 25.5593 13.5138 25.5595 14.4531 24.613L14.787 24.2768C14.9957 24.0665 15.1574 23.8265 15.2728 23.5704C16.2069 24.3958 17.6468 24.3775 18.5571 23.4604C18.9947 23.0198 19.227 22.4496 19.2542 21.8712C19.8522 21.8421 20.41 21.5939 20.8358 21.1648C21.2734 20.7242 21.5057 20.154 21.5331 19.5756C22.1309 19.5465 22.6887 19.2983 23.1145 18.8694C23.9892 17.9884 24.0442 16.5895 23.2795 15.6432C23.8368 14.8581 24.1385 13.9211 24.1385 12.937C24.1385 12.7065 24.231 12.4812 24.3923 12.3186L26.7176 9.97523C27.0237 9.66686 27.0237 9.16918 26.7176 8.86081L19.8813 1.97381ZM4.53944 16.249L5.67879 15.1012C5.9987 14.7788 6.51451 14.7786 6.83462 15.1012C7.15803 15.4269 7.15803 15.9567 6.83462 16.2822L5.69527 17.4302C5.37516 17.7525 4.85955 17.7525 4.53944 17.4302C4.21623 17.1045 4.21623 16.5747 4.53944 16.249ZM6.81814 18.5446L9.09685 16.249C9.41697 15.9266 9.93277 15.9264 10.2529 16.249C10.5761 16.5747 10.5761 17.1045 10.2529 17.4302C9.44065 18.2484 9.3974 18.2918 7.97398 19.7258C7.65386 20.0479 7.13826 20.0481 6.81814 19.7255C6.49494 19.4001 6.49494 18.8703 6.81814 18.5446ZM9.09685 22.0211C8.77365 21.6957 8.77365 21.1659 9.09685 20.8402L10.2362 19.6924C10.5563 19.37 11.0721 19.37 11.3922 19.6924C11.6907 19.9931 11.713 20.4675 11.46 20.7951C11.3904 20.8593 11.494 20.7559 10.2529 22.0211C9.93277 22.3437 9.41717 22.3439 9.09685 22.0211ZM13.6644 23.1621L13.3304 23.4983C13.0103 23.8209 12.4947 23.8209 12.1746 23.4983C11.88 23.2017 11.8547 22.7359 12.0969 22.4092C12.5312 21.9703 12.51 21.9962 12.5856 21.9134C12.9086 21.6594 13.3698 21.6846 13.6644 21.9812C13.9876 22.3069 13.9874 22.8367 13.6644 23.1621ZM21.9919 17.7548C21.6718 18.0772 21.1559 18.0772 20.8358 17.7548L19.3628 16.2708C19.055 15.9608 18.554 15.9589 18.244 16.2667C17.934 16.5745 17.9321 17.0752 18.2399 17.3853L19.7132 18.8692C20.0364 19.1949 20.0364 19.7247 19.7132 20.0502C19.393 20.3728 18.8772 20.3728 18.5571 20.0502L17.0841 18.5662C16.7761 18.2562 16.2753 18.2543 15.9653 18.5621C15.6553 18.8699 15.6534 19.3708 15.9612 19.6808L17.4343 21.1648C17.7577 21.4905 17.7577 22.0203 17.4343 22.3458C17.1143 22.6684 16.5985 22.6684 16.2782 22.3458C14.7275 20.7963 14.8019 20.8303 14.6457 20.736C14.2428 20.3891 13.7437 20.188 13.2118 20.1608C13.1832 19.5846 12.9508 19.0169 12.5151 18.5778C12.2916 18.3528 12.0316 18.1777 11.7488 18.0578C12.2852 17.1344 12.161 15.9256 11.3756 15.1346C10.5705 14.3236 9.36629 14.2253 8.46836 14.7512C8.35198 14.4733 8.18203 14.2127 7.9575 13.9868C7.01817 13.0404 5.49546 13.0404 4.55592 13.9868L4.42985 14.1139C4.34292 13.8881 4.29698 13.6456 4.29698 13.3962C4.29698 12.4457 3.92928 11.5521 3.26022 10.8779L1.85431 9.46931L7.57579 3.70539L9.30902 5.44337C9.69629 5.83352 10.1929 6.0735 10.7296 6.13571L7.1947 10.3773C6.91517 10.7131 6.96049 11.2118 7.29605 11.4914C8.10746 12.1676 9.13372 12.4875 10.1857 12.392C11.2375 12.2964 12.1894 11.7968 12.8665 10.9842C13.1498 10.6443 13.6262 10.5419 14.0257 10.7347C14.8408 11.1286 15.7367 11.2724 16.6179 11.1599L21.9919 16.5736C22.3151 16.8993 22.3151 17.4291 21.9919 17.7548ZM23.2696 11.204C22.8097 11.6673 22.5565 12.2828 22.5565 12.937C22.5565 13.4891 22.4133 14.0185 22.146 14.4832L18.2986 10.6076C19.0851 10.1701 19.7301 9.51237 20.1579 8.69704C20.3608 8.31018 20.2117 7.83207 19.8248 7.62917C19.438 7.42606 18.9598 7.5752 18.7569 7.96205C18.3276 8.78026 17.5908 9.32635 16.7654 9.52864C16.7291 9.5342 16.6931 9.54203 16.6579 9.55274C16.0236 9.68396 15.3436 9.61454 14.7139 9.31029C13.6594 8.80086 12.4002 9.07277 11.6504 9.97256C11.2445 10.4593 10.6735 10.759 10.0426 10.8165C9.68393 10.8491 9.33045 10.8011 9.00251 10.6793L12.6645 6.28444C12.9514 6.19689 13.2489 6.14581 13.5488 6.14581H15.8438C16.4865 6.14581 17.0904 5.90067 17.5447 5.44337L19.3201 3.6541L25.0418 9.41802L23.2696 11.204Z" fill="black"/>
</g>
<defs>
<clipPath id="clip0_1539_1364">
<rect width="27" height="27" fill="white"/>
</clipPath>
</defs>
</svg>
