<svg width="46" height="46" viewBox="0 0 46 46" fill="none" xmlns="http://www.w3.org/2000/svg">
<g clip-path="url(#clip0_1539_1091)">
<path d="M43.6526 20.207C42.9653 15.0603 40.4035 10.4004 36.3968 7.03516L35.5281 8.06944C39.253 11.198 41.6419 15.5224 42.3017 20.3004C41.1521 20.664 40.3285 21.7384 40.3285 22.9998C40.3285 24.261 41.1521 25.3355 42.3015 25.6993C41.7216 29.871 39.7766 33.7862 36.7815 36.7813C33.7865 39.7763 29.8712 41.7214 25.6995 42.3013C25.3357 41.1519 24.2613 40.3283 23.0001 40.3283C21.7388 40.3283 20.6645 41.152 20.3007 42.3014C15.8561 41.6853 11.7503 39.5432 8.68346 36.2245L7.69141 37.1412C10.9918 40.7126 15.4181 43.0103 20.2072 43.6522C20.4393 44.984 21.6029 46 23 46C24.3974 46 25.5609 44.9839 25.793 43.652C30.2893 43.0478 34.512 40.961 37.7365 37.7364C40.9611 34.5118 43.0478 30.2892 43.652 25.7929C44.9839 25.5609 46 24.3972 46 22.9999C46.0001 21.6028 44.9843 20.4393 43.6526 20.207ZM23.0001 44.6492C22.1812 44.6492 21.515 43.983 21.515 43.164C21.515 43.1602 21.5149 43.1562 21.5149 43.1521L21.5213 43.0827C21.5608 42.2956 22.2104 41.6789 23 41.6789C23.7897 41.6789 24.4392 42.2956 24.4788 43.0827L24.4813 43.1326L24.4851 43.1521C24.4852 43.1562 24.4852 43.1602 24.4852 43.164C24.4851 43.983 23.819 44.6492 23.0001 44.6492ZM43.1643 24.4849C43.1604 24.4849 43.1563 24.4849 43.1522 24.485L43.083 24.4786C42.2957 24.439 41.6791 23.7895 41.6791 22.9998C41.6791 22.2102 42.2957 21.5608 43.083 21.5211L43.1327 21.5187L43.1521 21.5147C43.1563 21.5148 43.1603 21.5148 43.1642 21.5148C43.9831 21.5148 44.6493 22.1809 44.6493 22.9998C44.6493 23.8187 43.9832 24.4849 43.1643 24.4849Z" fill="white"/>
<path d="M5.67165 23C5.67165 21.7387 4.84805 20.6644 3.69868 20.3006C4.27853 16.1289 6.22355 12.2137 9.21867 9.21858C12.2137 6.22356 16.1289 4.27844 20.3007 3.69859C20.6644 4.84796 21.7387 5.67156 23.0001 5.67156C24.2619 5.67156 25.3365 4.84751 25.6999 3.69751C28.7243 4.11753 31.6304 5.25477 34.1397 7.00528L34.9125 5.89742C32.2032 4.00729 29.0612 2.78614 25.793 2.34725C25.5606 1.01586 24.397 0 23 0C21.6026 0 20.4391 1.01604 20.207 2.34797C15.7107 2.95217 11.4881 5.03897 8.26345 8.26354C5.03879 11.4881 2.95217 15.7108 2.34788 20.2071C1.01604 20.4391 0 21.6027 0 23C0 24.3972 1.01586 25.5607 2.34761 25.7928C2.84139 29.4798 4.31402 32.962 6.62704 35.8953L7.68765 35.059C5.54281 32.3391 4.17054 29.1147 3.69769 25.6997C4.84769 25.336 5.67165 24.2615 5.67165 23ZM21.5149 2.83573C21.5149 2.01681 22.1811 1.35071 23 1.35071C23.819 1.35071 24.4852 2.01681 24.4852 2.83573C24.4852 2.8396 24.4852 2.84373 24.4852 2.84786L24.4788 2.91713C24.4392 3.70425 23.7897 4.32094 23 4.32094C22.2105 4.32094 21.5609 3.70425 21.5213 2.91713L21.5188 2.86745L21.5148 2.84786C21.5148 2.84382 21.5149 2.8396 21.5149 2.83573ZM2.86736 24.4811L2.84795 24.4851C2.84382 24.485 2.83987 24.485 2.836 24.485C2.01708 24.485 1.35089 23.8188 1.35089 22.9999C1.35089 22.1809 2.01708 21.5148 2.836 21.5148C2.83987 21.5148 2.84382 21.5148 2.84795 21.5148L2.91722 21.5211C3.70443 21.5608 4.32103 22.2102 4.32103 22.9999C4.32103 23.7895 3.70443 24.439 2.91722 24.4787L2.86736 24.4811Z" fill="white"/>
<path d="M7.20117 22.9996C7.20117 31.7109 14.2884 38.7981 22.9996 38.7981C31.7109 38.7981 38.798 31.7109 38.798 22.9996C38.798 14.2884 31.711 7.20117 22.9996 7.20117C14.2883 7.20117 7.20117 14.2883 7.20117 22.9996ZM8.56805 23.675H15.1226V29.5258H10.112C9.21106 27.7536 8.66508 25.7719 8.56805 23.675ZM15.1228 35.1052C13.4371 34.0047 11.9945 32.5621 10.894 30.8765H15.1228V35.1052ZM15.1228 22.3242H8.56823C8.66517 20.2271 9.21106 18.2456 10.1121 16.4735H15.1228V22.3242ZM15.1228 15.1228H10.8939C11.9945 13.4371 13.4371 11.9945 15.1228 10.8939V15.1228ZM22.3242 37.4311C20.2271 37.3342 18.2456 36.7883 16.4735 35.8871V30.8766H22.3242V37.4311ZM22.3242 29.5258H16.4735V23.675H22.3242V29.5258ZM22.3242 22.3242H16.4735V16.4735H22.3242V22.3242ZM22.3242 15.1228H16.4735V10.1121C18.2456 9.21106 20.2272 8.66517 22.3242 8.56814V15.1228ZM29.5257 35.8871C27.7535 36.7881 25.7719 37.334 23.675 37.431V30.8765H29.5257V35.8871ZM29.5257 29.5258H23.675V23.675H29.5257V29.5258ZM29.5257 22.3242H23.675V16.4735H29.5257V22.3242ZM30.8764 35.1052V30.8765H35.1051C34.0046 32.5621 32.562 34.0047 30.8764 35.1052ZM30.8764 10.8939C32.562 11.9945 34.0047 13.4371 35.1052 15.1228H30.8764V10.8939ZM30.8764 16.4735H35.8871C36.7881 18.2456 37.334 20.2272 37.4309 22.3242H30.8764V16.4735ZM30.8763 23.675H37.4309C37.334 25.7719 36.7881 27.7536 35.887 29.5258H30.8763V23.675ZM29.5257 15.1228H23.675V8.56805C25.7719 8.66499 27.7535 9.21088 29.5257 10.112V15.1228Z" fill="white"/>
<path d="M20.12 18.7236H18.6797V20.0743H20.12V18.7236Z" fill="white"/>
<path d="M27.3193 18.7236H25.8789V20.0743H27.3193V18.7236Z" fill="white"/>
<path d="M27.3193 25.9258H25.8789V27.2765H27.3193V25.9258Z" fill="white"/>
<path d="M20.12 25.9258H18.6797V27.2765H20.12V25.9258Z" fill="white"/>
<path d="M20.12 33.127H18.6797V34.4777H20.12V33.127Z" fill="white"/>
<path d="M27.3193 33.127H25.8789V34.4777H27.3193V33.127Z" fill="white"/>
<path d="M27.3193 11.5215H25.8789V12.8722H27.3193V11.5215Z" fill="white"/>
<path d="M20.12 11.5215H18.6797V12.8722H20.12V11.5215Z" fill="white"/>
<path d="M12.9188 18.7236H11.4785V20.0743H12.9188V18.7236Z" fill="white"/>
<path d="M34.5224 18.7236H33.082V20.0743H34.5224V18.7236Z" fill="white"/>
<path d="M34.5224 25.9258H33.082V27.2765H34.5224V25.9258Z" fill="white"/>
<path d="M12.9188 25.9258H11.4785V27.2765H12.9188V25.9258Z" fill="white"/>
</g>
<defs>
<clipPath id="clip0_1539_1091">
<rect width="46" height="46" fill="white"/>
</clipPath>
</defs>
</svg>
