<svg width="20" height="16" viewBox="0 0 20 16" fill="none" xmlns="http://www.w3.org/2000/svg">
<path d="M7.2069 12.4545C7.2069 13.8604 6.09533 15 4.72414 15C3.35295 15 2.24138 13.8604 2.24138 12.4545M7.2069 12.4545C7.2069 11.0487 6.09533 9.90909 4.72414 9.90909C3.35295 9.90909 2.24138 11.0487 2.24138 12.4545M7.2069 12.4545H12.7931M2.24138 12.4545H1V2C1 1.44771 1.44772 1 2 1H12.7931V12.4545M18.3793 12.4545C18.3793 13.8604 17.2677 15 15.8966 15C14.5254 15 13.4138 13.8604 13.4138 12.4545M18.3793 12.4545C18.3793 11.0487 17.2677 9.90909 15.8966 9.90909C14.5254 9.90909 13.4138 11.0487 13.4138 12.4545M18.3793 12.4545H19V7.36364L15.8966 4.18182H12.7931V12.4545M13.4138 12.4545H12.7931" stroke="#2D2D2D" stroke-width="2" stroke-linecap="round" stroke-linejoin="round"/>
</svg>
