<svg width="18" height="22" viewBox="0 0 18 22" fill="none" xmlns="http://www.w3.org/2000/svg">
<path d="M13.5281 22H4.47225C2.21119 22 0.371094 20.1599 0.371094 17.8998V4.10021C0.371051 1.84009 2.21114 0 4.47225 0H11.3528C12.4453 0 13.5108 0.447004 14.2767 1.22543L16.5455 4.31213C17.2112 4.97492 17.6293 5.99423 17.6293 7.07708V17.8998C17.6293 20.1599 15.7892 22 13.5281 22ZM4.47225 1.97304C3.29886 1.97304 2.34413 2.92682 2.34413 4.10021V17.8998C2.34413 19.0732 3.29886 20.027 4.47225 20.027H13.5281C14.7015 20.027 15.6562 19.0732 15.6562 17.8998V7.07708C15.6562 6.51638 15.4395 5.98654 15.0454 5.58577L12.7766 2.49906C12.4722 2.20425 11.9192 1.97304 11.3527 1.97304H4.47225Z" fill="#06828E"/>
<path d="M11.7102 7.79824H6.2873C5.74203 7.79824 5.30078 7.35699 5.30078 6.81172C5.30078 6.26644 5.74203 5.8252 6.2873 5.8252H11.7102C12.2555 5.8252 12.6967 6.26644 12.6967 6.81172C12.6967 7.35703 12.2555 7.79824 11.7102 7.79824Z" fill="#06828E"/>
<path d="M11.7102 12.2934H6.2873C5.74203 12.2934 5.30078 11.8521 5.30078 11.3068C5.30078 10.7616 5.74203 10.3203 6.2873 10.3203H11.7102C12.2555 10.3203 12.6967 10.7616 12.6967 11.3068C12.6967 11.8521 12.2555 12.2934 11.7102 12.2934Z" fill="#06828E"/>
<path d="M11.7102 16.7863H6.2873C5.74203 16.7863 5.30078 16.345 5.30078 15.7998C5.30078 15.2545 5.74203 14.8132 6.2873 14.8132H11.7102C12.2555 14.8132 12.6967 15.2545 12.6967 15.7998C12.6967 16.345 12.2555 16.7863 11.7102 16.7863Z" fill="#06828E"/>
</svg>
