<svg width="18" height="18" viewBox="0 0 18 18" fill="none" xmlns="http://www.w3.org/2000/svg">
<g clip-path="url(#clip0_1539_1638)">
<path d="M2.99999 14.0625H2.25V0.1875H11.25V4.3125H10.5V0.937486H2.99999V14.0625Z" fill="white"/>
<path d="M16.5 14.0625H15.75V8.21625L13.7213 6.18749H7.87502V14.0625H7.125V5.4375H14.0287L16.5 7.90873V14.0625Z" fill="white"/>
<path d="M16.5 17.8125H1.50001C0.671235 17.8125 0 17.1413 0 16.3125V15.1875H18V16.3125C18 17.1413 17.3287 17.8125 16.5 17.8125ZM0.749986 15.9375V16.3125C0.749986 16.725 1.08749 17.0625 1.49997 17.0625H16.5C16.9125 17.0625 17.2499 16.725 17.2499 16.3125V15.9375H0.749986Z" fill="white"/>
<path d="M4.125 2.0625H5.62501V2.81249H4.125V2.0625Z" fill="white"/>
<path d="M4.125 3.9375H5.62501V4.68749H4.125V3.9375Z" fill="white"/>
<path d="M4.125 5.8125H5.62501V6.56249H4.125V5.8125Z" fill="white"/>
<path d="M4.125 7.6875H5.62501V8.43749H4.125V7.6875Z" fill="white"/>
<path d="M4.125 9.5625H5.62501V10.3125H4.125V9.5625Z" fill="white"/>
<path d="M4.125 11.4375H5.62501V12.1875H4.125V11.4375Z" fill="white"/>
<path d="M4.125 13.3125H5.62501V14.0625H4.125V13.3125Z" fill="white"/>
<path d="M12.375 7.6875H15.75V8.43749H12.375V7.6875Z" fill="white"/>
<path d="M12.375 9.5625H15.75V10.3125H12.375V9.5625Z" fill="white"/>
<path d="M12.375 11.4375H15.75V12.1875H12.375V11.4375Z" fill="white"/>
<path d="M12.375 13.3125H15.75V14.0625H12.375V13.3125Z" fill="white"/>
</g>
<defs>
<clipPath id="clip0_1539_1638">
<rect width="18" height="18" fill="white"/>
</clipPath>
</defs>
</svg>
