<svg width="14" height="16" viewBox="0 0 14 16" fill="none" xmlns="http://www.w3.org/2000/svg">
<path d="M11.7832 0H0.28125V16H11.7832C12.8557 16 13.7283 15.1274 13.7283 14.0549V1.94507C13.7283 0.872559 12.8557 0 11.7832 0ZM1.21875 0.9375H2.15772V15.0625H1.21875V0.9375ZM6.88013 8.89099C5.91077 8.46631 5.28442 7.50989 5.28442 6.45459C5.28442 5.87866 5.46643 5.33032 5.81067 4.8689C6.00879 4.60327 6.25671 4.37622 6.53601 4.20093V6.61047H9.34998V4.20093C9.62927 4.37622 9.8772 4.60327 10.0753 4.8689C10.4196 5.33032 10.6014 5.87866 10.6014 6.45459C10.6014 7.50989 9.9751 8.46631 9.00586 8.89099L8.72522 9.01404V15.0625H7.16077V9.01404L6.88013 8.89099ZM12.7908 14.0549C12.7908 14.6105 12.3387 15.0625 11.7832 15.0625H9.66272V9.61206C10.812 8.98511 11.5389 7.77747 11.5389 6.45459C11.5389 5.67505 11.2927 4.93286 10.8267 4.30823C10.3768 3.70508 9.73596 3.24902 9.0221 3.02405L8.41248 2.83191V5.67297H7.47351V2.83191L6.86389 3.02405C6.15015 3.24902 5.50928 3.70508 5.05933 4.30823C4.59326 4.93286 4.34705 5.67505 4.34705 6.45459C4.34705 7.77747 5.07398 8.98511 6.22327 9.61206V15.0625H3.09522V0.9375H11.7832C12.3387 0.9375 12.7908 1.38953 12.7908 1.94507V14.0549Z" fill="white"/>
</svg>
