<svg width="64" height="37" viewBox="0 0 64 37" fill="none" xmlns="http://www.w3.org/2000/svg">
<path d="M56.5 29.8003H57.6C60.6 29.8003 63 27.4003 63 24.4003V22.7003L62.4 21.6003C62.4 17.7003 59.6 14.3003 55.7 13.6003L47 11.8003H46L45.5 11.3003C36.9 -0.0997248 20.6 -2.39972 9.1 6.30027C7 7.90027 5.2 9.70027 3.7 11.8003H1V13.3003L2 14.8003V20.8003L1 22.9003V26.4003C1 28.3003 2.5 29.8003 4.4 29.8003H6.4" stroke="#06828E" stroke-width="2" stroke-miterlimit="10"/>
<path d="M17.8008 29.8008H45.0008" stroke="#06828E" stroke-width="2" stroke-miterlimit="10"/>
<path d="M51 33.8008C54.3137 33.8008 57 31.1145 57 27.8008C57 24.4871 54.3137 21.8008 51 21.8008C47.6863 21.8008 45 24.4871 45 27.8008C45 31.1145 47.6863 33.8008 51 33.8008Z" stroke="#06828E" stroke-width="2" stroke-miterlimit="10"/>
<path d="M12 33.8008C15.3137 33.8008 18 31.1145 18 27.8008C18 24.4871 15.3137 21.8008 12 21.8008C8.68629 21.8008 6 24.4871 6 27.8008C6 31.1145 8.68629 33.8008 12 33.8008Z" stroke="#06828E" stroke-width="2" stroke-miterlimit="10"/>
<path d="M25 3.80078V17.8008C25 22.2008 28.6 25.8008 33 25.8008H41" stroke="#06828E" stroke-width="2" stroke-miterlimit="10"/>
<path d="M55 12.8008V15.8008C55 18.0008 56.8 19.8008 59 19.8008H62" stroke="#06828E" stroke-width="2" stroke-miterlimit="10"/>
<path d="M22.2 13.9008L6 13.8008" stroke="#06828E" stroke-width="2" stroke-miterlimit="10"/>
<path d="M42 13.8008H28" stroke="#06828E" stroke-width="2" stroke-miterlimit="10"/>
<path d="M0 35.8008H64" stroke="#06828E" stroke-width="2" stroke-miterlimit="10"/>
<path d="M51 29.8008C52.1046 29.8008 53 28.9054 53 27.8008C53 26.6962 52.1046 25.8008 51 25.8008C49.8954 25.8008 49 26.6962 49 27.8008C49 28.9054 49.8954 29.8008 51 29.8008Z" stroke="#06828E" stroke-width="2" stroke-miterlimit="10"/>
<path d="M12 29.8008C13.1046 29.8008 14 28.9054 14 27.8008C14 26.6962 13.1046 25.8008 12 25.8008C10.8954 25.8008 10 26.6962 10 27.8008C10 28.9054 10.8954 29.8008 12 29.8008Z" stroke="#06828E" stroke-width="2" stroke-miterlimit="10"/>
<path d="M41 26.8008C41 21.8008 45 17.8008 50 17.8008" stroke="#06828E" stroke-width="2" stroke-miterlimit="10"/>
</svg>
