<svg width="34" height="54" viewBox="0 0 34 54" fill="none" xmlns="http://www.w3.org/2000/svg">
<path d="M32.6961 45.8817L29.0964 36.347C28.9006 35.8268 28.6018 35.3666 28.208 34.9785L21.7712 27.8527V24.2957L26.2135 28.7623C26.8661 29.4183 27.7348 29.7809 28.6601 29.7836H28.6698C29.5913 29.7836 30.4583 29.426 31.1118 28.7759C31.768 28.1235 32.1306 27.2547 32.1332 26.3295C32.1359 25.4043 31.7779 24.5335 31.132 23.8841L20.5419 13.0146C19.7452 12.1888 18.6284 11.6737 17.393 11.6737C16.2964 11.6737 15.6565 12.0167 15.3834 12.1633L15.3462 12.1831C15.3398 12.1865 15.3333 12.1899 15.327 12.1934L6.83971 16.9291C5.81568 17.41 5.0902 18.3584 4.89555 19.4728L3.31567 28.5014C2.98658 30.3857 4.25205 32.1865 6.1364 32.5156C7.04957 32.6755 7.96958 32.4695 8.7278 31.9367C9.48603 31.4038 9.99134 30.6077 10.1507 29.6953L11.4372 22.343L13.015 21.5143V27.9242L2.0948 45.8817C2.0948 45.8817 1.22895 47.3074 0.937352 47.7855C0.105524 50.3469 1.24979 53.0518 3.86855 53.5591C4.39535 53.6611 5.08258 53.3404 5.75961 53.231C6.43211 52.9268 7.02379 52.4257 7.43629 51.7495L17.7227 34.856L22.224 39.6975L26.2522 50.3671C26.6013 51.294 27.2765 52.0035 28.0976 52.4188C28.652 52.6991 29.4514 52.7878 30.003 52.8274C31.5459 52.9382 33.0942 49.771 33.3774 47.6863C33 46.6824 32.6961 45.8817 32.6961 45.8817ZM30.3287 26.3244C30.3274 26.7676 30.1538 27.1835 29.8394 27.4961C29.5251 27.8086 29.1044 27.9758 28.6651 27.9788C28.2219 27.9775 27.8058 27.8038 27.4933 27.4896L21.7713 21.7364V16.8623L29.846 25.1499C30.1585 25.4642 30.3298 25.8812 30.3287 26.3244ZM0.937352 47.7855C0.407934 48.6534 0.247963 49.6756 0.487342 50.6637C0.726592 51.652 1.33645 52.4877 2.20437 53.0173C2.72696 53.336 3.29647 53.512 3.86855 53.5591L0.937352 47.7855ZM5.89535 50.8103C5.61691 51.2667 5.17747 51.5873 4.65772 51.7132C4.13809 51.8393 3.60055 51.755 3.1441 51.4766C2.68764 51.1981 2.36705 50.7586 2.24111 50.2388C2.1153 49.7192 2.19934 49.1817 2.47843 48.724L13.6329 30.3812C13.7152 30.4868 13.8059 30.596 13.9085 30.7149C14.0046 30.8264 14.1142 30.9537 14.2388 31.106C14.251 31.1209 16.4461 33.4828 16.4461 33.4828L5.89535 50.8103ZM23.8497 38.8942C23.8083 38.7846 23.746 38.6842 23.6664 38.5984L15.6177 29.9416C15.4893 29.7851 15.3759 29.6534 15.2759 29.5371C14.8198 29.0077 14.8198 29.0077 14.8198 28.0794V20.0209C14.8198 19.7049 14.6545 19.4119 14.3841 19.2486C14.1136 19.0853 13.7774 19.0751 13.4979 19.222L10.2053 20.9514C9.95757 21.0816 9.78419 21.3192 9.73598 21.5947L8.37292 29.3844C8.29635 29.8223 8.05388 30.2042 7.69011 30.46C7.32646 30.7154 6.88483 30.8143 6.44681 30.7377C5.54266 30.5798 4.93551 29.7158 5.09342 28.8121L6.6733 19.7836C6.76778 19.2424 7.12318 18.783 7.62424 18.5546C7.64641 18.5444 7.66819 18.5334 7.68946 18.5216L16.1996 13.7732L16.2363 13.7537C16.4283 13.6506 16.7498 13.4782 17.3931 13.4782C18.0984 13.4782 18.738 13.7638 19.2032 14.2249L19.2025 14.2256L19.2471 14.2714C19.6915 14.7342 19.9666 15.3608 19.9666 16.0516V28.1997C19.9666 28.4231 20.0496 28.6386 20.1994 28.8045L26.8877 36.2088C26.9011 36.2235 26.9149 36.2379 26.9291 36.2517C27.1414 36.4577 27.3024 36.7035 27.4079 36.9835L31.6881 48.3207C31.8763 48.8209 31.8585 49.3644 31.6379 49.8512C31.4174 50.3383 31.0203 50.7104 30.5199 50.8988C29.4869 51.288 28.3302 50.764 27.9408 49.7302L23.8497 38.8942ZM30.003 52.8274C30.3879 52.8086 30.7763 52.7308 31.1558 52.5879C32.1074 52.2296 32.8623 51.5221 33.2817 50.5959C33.7009 49.6703 33.7348 48.6373 33.3774 47.6863L30.003 52.8274ZM18.7387 10.4507C21.5758 10.4507 23.884 8.14255 23.884 5.30545C23.884 2.46835 21.5758 0.160156 18.7387 0.160156C15.9016 0.160156 13.5935 2.46835 13.5935 5.30545C13.5935 8.14255 15.9017 10.4507 18.7387 10.4507ZM18.7387 1.96484C20.5807 1.96484 22.0793 3.46338 22.0793 5.30545C22.0793 7.14752 20.5807 8.64606 18.7387 8.64606C16.8967 8.64606 15.3982 7.14752 15.3982 5.30545C15.3982 3.46338 16.8967 1.96484 18.7387 1.96484Z" fill="white"/>
</svg>
