<svg width="17" height="17" viewBox="0 0 17 17" fill="none" xmlns="http://www.w3.org/2000/svg">
<g clip-path="url(#clip0_1539_1617)">
<path d="M0.214844 0.498047V16.502C0.214844 16.777 0.437836 17 0.712891 17H12.6647C12.9398 17 13.1628 16.777 13.1628 16.502V3.1888C13.1628 3.05671 13.1103 2.93004 13.0169 2.83668L10.3265 0.145928C10.2331 0.0524941 10.1064 0 9.97434 0H0.712891C0.437836 0 0.214844 0.222992 0.214844 0.498047ZM11.4621 2.69035H10.4724V1.70056L11.4621 2.69035ZM1.21094 0.996094H9.47629V3.1884C9.47629 3.46345 9.69928 3.68644 9.97434 3.68644H12.1667V16.0039H1.21094V0.996094Z" fill="white"/>
<path d="M2.9043 8.58008H10.4723C10.7474 8.58008 10.9704 8.35709 10.9704 8.08203C10.9704 7.80698 10.7474 7.58398 10.4723 7.58398H2.9043C2.62924 7.58398 2.40625 7.80698 2.40625 8.08203C2.40625 8.35709 2.62924 8.58008 2.9043 8.58008Z" fill="white"/>
<path d="M10.4787 9.54395H7.82227C7.54721 9.54395 7.32422 9.76694 7.32422 10.042C7.32422 10.317 7.54721 10.54 7.82227 10.54H10.4787C10.7537 10.54 10.9767 10.317 10.9767 10.042C10.9767 9.76694 10.7537 9.54395 10.4787 9.54395Z" fill="white"/>
<path d="M2.9043 10.5449H5.56071C5.83577 10.5449 6.05876 10.3219 6.05876 10.0469C6.05876 9.77182 5.83577 9.54883 5.56071 9.54883H2.9043C2.62924 9.54883 2.40625 9.77182 2.40625 10.0469C2.40625 10.3219 2.62924 10.5449 2.9043 10.5449Z" fill="white"/>
<path d="M10.4787 5.58887H7.82227C7.54721 5.58887 7.32422 5.81186 7.32422 6.08691C7.32422 6.36197 7.54721 6.58496 7.82227 6.58496H10.4787C10.7537 6.58496 10.9767 6.36197 10.9767 6.08691C10.9767 5.81186 10.7537 5.58887 10.4787 5.58887Z" fill="white"/>
<path d="M7.94353 3.68652H2.89648C2.62143 3.68652 2.39844 3.46353 2.39844 3.18848C2.39844 2.91342 2.62143 2.69043 2.89648 2.69043H7.94353C8.21858 2.69043 8.44157 2.91342 8.44157 3.18848C8.44157 3.46353 8.21858 3.68652 7.94353 3.68652Z" fill="white"/>
<path d="M2.9043 6.58984H5.56071C5.83577 6.58984 6.05876 6.36685 6.05876 6.0918C6.05876 5.81674 5.83577 5.59375 5.56071 5.59375H2.9043C2.62924 5.59375 2.40625 5.81674 2.40625 6.0918C2.40625 6.36685 2.62924 6.58984 2.9043 6.58984Z" fill="white"/>
<path d="M10.4723 13.5205H2.9043C2.62924 13.5205 2.40625 13.7435 2.40625 14.0186C2.40625 14.2936 2.62924 14.5166 2.9043 14.5166H10.4723C10.7474 14.5166 10.9704 14.2936 10.9704 14.0186C10.9704 13.7435 10.7474 13.5205 10.4723 13.5205Z" fill="white"/>
<path d="M15.9658 12.7773V7.32791C16.0578 7.40498 16.1713 7.44396 16.2852 7.44396C16.4085 7.44396 16.5321 7.39844 16.6284 7.3067C16.8277 7.11711 16.8355 6.80184 16.6459 6.60259L15.8285 5.74359C15.7345 5.64478 15.6041 5.58887 15.4678 5.58887C15.3314 5.58887 15.201 5.64481 15.107 5.74359L14.2896 6.60259C14.1 6.80184 14.1078 7.11711 14.3071 7.3067C14.4924 7.48307 14.7781 7.48842 14.9697 7.32785V12.7773C14.7781 12.6167 14.4924 12.622 14.3071 12.7985C14.1078 12.9881 14.1 13.3033 14.2896 13.5026L15.107 14.3616C15.201 14.4604 15.3314 14.5163 15.4678 14.5163C15.6041 14.5163 15.7345 14.4603 15.8285 14.3616L16.6459 13.5026C16.8355 13.3033 16.8277 12.9881 16.6284 12.7985C16.4431 12.6221 16.1574 12.6167 15.9658 12.7773Z" fill="white"/>
<path d="M10.4723 11.5547H2.9043C2.62924 11.5547 2.40625 11.7777 2.40625 12.0527C2.40625 12.3278 2.62924 12.5508 2.9043 12.5508H10.4723C10.7474 12.5508 10.9704 12.3278 10.9704 12.0527C10.9704 11.7777 10.7474 11.5547 10.4723 11.5547Z" fill="white"/>
</g>
<defs>
<clipPath id="clip0_1539_1617">
<rect width="17" height="17" fill="white"/>
</clipPath>
</defs>
</svg>
