<svg width="33" height="33" viewBox="0 0 33 33" fill="none" xmlns="http://www.w3.org/2000/svg">
<g clip-path="url(#clip0_1539_1735)">
<path d="M0.6875 33.0029C0.504625 33.0029 0.32725 32.9301 0.196625 32.7953C0.00825002 32.6028 -0.050875 32.3196 0.04675 32.0679L2.60837 25.4061C0.89925 22.7509 0 19.6806 0 16.5029C0 7.40455 7.40162 0.00292969 16.5 0.00292969C25.5984 0.00292969 33 7.40455 33 16.5029C33 25.6013 25.5984 33.0029 16.5 33.0029C13.4145 33.0029 10.4101 32.1422 7.79212 30.5087L0.9185 32.9631C0.842875 32.9906 0.765875 33.0029 0.6875 33.0029ZM7.87875 29.0608C8.01075 29.0608 8.14137 29.0979 8.25412 29.1722C10.7154 30.7796 13.5671 31.6293 16.5 31.6293C24.8394 31.6293 31.625 24.8437 31.625 16.5043C31.625 8.16493 24.8394 1.3793 16.5 1.3793C8.16062 1.3793 1.375 8.16493 1.375 16.5043C1.375 19.5266 2.26325 22.4443 3.94625 24.9413C4.07137 25.1269 4.0975 25.3634 4.01775 25.5724L1.86725 31.1646L7.64775 29.1007C7.722 29.0746 7.80037 29.0608 7.87875 29.0608Z" fill="#06828E"/>
<path d="M20.625 24.7529C18.4649 24.7529 14.3179 22.1693 12.5757 20.4272C10.8336 18.6837 8.25 14.5367 8.25 12.3779C8.25 10.1559 10.1406 8.25293 11.6875 8.25293H13.0625C13.3238 8.25293 13.563 8.40143 13.6785 8.63656C13.6799 8.63793 14.5076 10.3209 15.0494 11.3769C15.6599 12.5691 14.5118 13.9716 13.8586 14.6329C14.0924 15.2324 14.6382 16.4204 15.6104 17.3926C16.5825 18.3647 17.7705 18.9119 18.37 19.1443C19.03 18.4898 20.4325 17.3403 21.626 17.9536C22.682 18.4967 24.3636 19.3231 24.365 19.3231C24.6015 19.4399 24.75 19.6792 24.75 19.9404V21.3154C24.75 22.8637 22.8456 24.7529 20.625 24.7529ZM11.6875 9.62793C10.9106 9.62793 9.625 10.9136 9.625 12.3779C9.625 13.9716 11.8718 17.7762 13.5493 19.4537C15.3821 21.2866 19.151 23.3779 20.625 23.3779C22.0894 23.3779 23.375 22.0923 23.375 21.3154V20.3681C22.8112 20.0903 21.747 19.5623 20.9976 19.1773C20.6759 19.0041 19.6982 19.6929 19.0781 20.3956C18.9008 20.5963 18.6244 20.6733 18.3714 20.6004C18.2847 20.5757 16.2484 19.9734 14.6382 18.3633C13.0281 16.7532 12.4272 14.7168 12.4011 14.6302C12.3269 14.3744 12.408 14.0994 12.606 13.9234C13.3073 13.3033 13.992 12.3298 13.8242 12.0026C13.4406 11.2559 12.914 10.1917 12.6362 9.62793H11.6875Z" fill="#06828E"/>
</g>
<defs>
<clipPath id="clip0_1539_1735">
<rect width="33" height="33" fill="white"/>
</clipPath>
</defs>
</svg>
