<svg width="21" height="21" viewBox="0 0 21 21" fill="none" xmlns="http://www.w3.org/2000/svg">
<path d="M0.4375 21.002C0.321125 21.002 0.20825 20.9556 0.125125 20.8698C0.00525001 20.7473 -0.032375 20.5671 0.02975 20.407L1.65987 16.1676C0.57225 14.478 0 12.5241 0 10.502C0 4.71208 4.71012 0.00195312 10.5 0.00195312C16.2899 0.00195312 21 4.71208 21 10.502C21 16.2918 16.2899 21.002 10.5 21.002C8.5365 21.002 6.62462 20.4542 4.95862 19.4147L0.5845 20.9766C0.536375 20.9941 0.487375 21.002 0.4375 21.002ZM5.01375 18.4933C5.09775 18.4933 5.18087 18.517 5.25262 18.5642C6.81887 19.5871 8.63363 20.1278 10.5 20.1278C15.8069 20.1278 20.125 15.8097 20.125 10.5028C20.125 5.19595 15.8069 0.877828 10.5 0.877828C5.19312 0.877828 0.875 5.19595 0.875 10.5028C0.875 12.4261 1.44025 14.2828 2.51125 15.8718C2.59087 15.99 2.6075 16.1405 2.55675 16.2735L1.18825 19.8321L4.86675 18.5187C4.914 18.5021 4.96387 18.4933 5.01375 18.4933Z" fill="white"/>
<path d="M13.125 15.7517C11.7504 15.7517 9.11137 14.1076 8.00275 12.999C6.89412 11.8895 5.25 9.25046 5.25 7.87671C5.25 6.46271 6.45312 5.25171 7.4375 5.25171H8.3125C8.47875 5.25171 8.631 5.34621 8.7045 5.49583C8.70537 5.49671 9.23212 6.56771 9.57687 7.23971C9.96537 7.99833 9.23475 8.89083 8.81913 9.31171C8.96788 9.69321 9.31525 10.4492 9.93387 11.0678C10.5525 11.6865 11.3085 12.0347 11.69 12.1826C12.11 11.7661 13.0025 11.0346 13.762 11.4248C14.434 11.7705 15.5041 12.2963 15.505 12.2963C15.6555 12.3707 15.75 12.523 15.75 12.6892V13.5642C15.75 14.5495 14.5381 15.7517 13.125 15.7517ZM7.4375 6.12671C6.94313 6.12671 6.125 6.94483 6.125 7.87671C6.125 8.89083 7.55475 11.312 8.62225 12.3795C9.78863 13.5458 12.187 14.8767 13.125 14.8767C14.0569 14.8767 14.875 14.0586 14.875 13.5642V12.9613C14.5162 12.7846 13.839 12.4486 13.3621 12.2036C13.1574 12.0933 12.5353 12.5317 12.1406 12.9788C12.0278 13.1066 11.8519 13.1556 11.6909 13.1092C11.6357 13.0935 10.3399 12.7102 9.31525 11.6856C8.29062 10.661 7.90825 9.36508 7.89162 9.30996C7.84438 9.14721 7.896 8.97221 8.022 8.86021C8.46825 8.46558 8.904 7.84608 8.79725 7.63783C8.55312 7.16271 8.218 6.48546 8.04125 6.12671H7.4375Z" fill="white"/>
</svg>
