<svg width="32" height="32" viewBox="0 0 32 32" fill="none" xmlns="http://www.w3.org/2000/svg">
<g clip-path="url(#clip0_1539_1523)">
<path d="M31.8304 23.3596C31.7916 23.2761 31.7555 23.2068 31.7219 23.1513C31.1667 22.1514 30.1058 20.924 28.5397 19.4689L28.5066 19.4356L28.49 19.4193L28.4733 19.4025H28.4564C27.7457 18.7249 27.2956 18.2693 27.1071 18.0361C26.7622 17.5918 26.6849 17.142 26.8734 16.6863C27.0066 16.342 27.5068 15.6149 28.3729 14.504C28.8285 13.9152 29.1893 13.4434 29.4558 13.0879C31.3775 10.533 32.2107 8.90046 31.9551 8.18951L31.8558 8.02337C31.7891 7.92335 31.617 7.83185 31.3396 7.7484C31.0616 7.66512 30.7062 7.65135 30.273 7.70685L25.4747 7.73999C25.397 7.71245 25.286 7.71502 25.1414 7.7484C24.9969 7.78178 24.9247 7.79852 24.9247 7.79852L24.8412 7.84025L24.7749 7.89038C24.7193 7.92352 24.6582 7.98182 24.5915 8.06515C24.5252 8.14819 24.4697 8.24565 24.4253 8.3567C23.9029 9.7007 23.309 10.9503 22.6424 12.1054C22.2314 12.7942 21.8539 13.3911 21.5092 13.8965C21.165 14.4017 20.8762 14.774 20.6431 15.0126C20.4097 15.2515 20.199 15.4428 20.0098 15.5874C19.8209 15.732 19.6767 15.7931 19.5769 15.7707C19.4768 15.7484 19.3826 15.7262 19.2933 15.704C19.1379 15.604 19.0129 15.468 18.9187 15.2958C18.824 15.1237 18.7603 14.907 18.727 14.646C18.6938 14.3848 18.6742 14.1601 18.6686 13.9712C18.6634 13.7825 18.6658 13.5157 18.6771 13.1714C18.6886 12.8269 18.6938 12.5938 18.6938 12.4716C18.6938 12.0495 18.7021 11.5913 18.7186 11.097C18.7354 10.6028 18.749 10.2111 18.7604 9.92263C18.7717 9.63382 18.7769 9.32827 18.7769 9.00614C18.7769 8.68402 18.7573 8.4314 18.7186 8.24804C18.6803 8.06492 18.6215 7.88717 18.5441 7.71484C18.4662 7.54269 18.3522 7.40952 18.2025 7.31499C18.0526 7.22057 17.8662 7.14564 17.6444 7.08997C17.0557 6.95674 16.306 6.88467 15.395 6.87346C13.3291 6.85129 12.0017 6.98469 11.413 7.27349C11.1797 7.39552 10.9687 7.56224 10.7799 7.77314C10.58 8.01759 10.5521 8.151 10.6964 8.17294C11.363 8.27278 11.8348 8.51164 12.1126 8.88926L12.2126 9.08936C12.2905 9.23373 12.3682 9.48933 12.446 9.85581C12.5237 10.2223 12.5738 10.6277 12.5959 11.0718C12.6513 11.8827 12.6513 12.577 12.5959 13.1544C12.5402 13.7322 12.4877 14.1819 12.4376 14.504C12.3875 14.8262 12.3125 15.0872 12.2126 15.2871C12.1126 15.487 12.046 15.6092 12.0126 15.6535C11.9793 15.6979 11.9515 15.7258 11.9294 15.7368C11.7851 15.7921 11.6349 15.8203 11.4795 15.8203C11.3239 15.8203 11.1351 15.7425 10.913 15.5869C10.691 15.4313 10.4606 15.2176 10.2217 14.9454C9.98285 14.6732 9.71348 14.2928 9.41347 13.8041C9.1137 13.3154 8.80266 12.7379 8.48053 12.0715L8.21402 11.5882C8.04741 11.2772 7.81983 10.8245 7.53102 10.2304C7.24204 9.63604 6.98662 9.06112 6.76457 8.50574C6.67581 8.27249 6.54247 8.09492 6.36478 7.97272L6.28139 7.92259C6.22595 7.87824 6.13695 7.83115 6.01487 7.78096C5.89262 7.73083 5.76505 7.69488 5.63165 7.67277L1.06651 7.70591C0.600017 7.70591 0.283494 7.8116 0.116829 8.02267L0.0501278 8.12252C0.0168065 8.17813 0 8.26695 0 8.3892C0 8.5114 0.0333213 8.66138 0.100022 8.83895C0.766448 10.4052 1.49117 11.9158 2.27419 13.3708C3.05721 14.8259 3.73765 15.998 4.31508 16.886C4.89263 17.7747 5.48132 18.6135 6.08117 19.4019C6.68101 20.1905 7.07806 20.696 7.27233 20.918C7.46683 21.1405 7.61961 21.3068 7.73066 21.4178L8.14726 21.8176C8.41383 22.0843 8.80529 22.4036 9.32179 22.7756C9.83842 23.1479 10.4104 23.5143 11.0379 23.8756C11.6656 24.2363 12.3958 24.5307 13.229 24.7583C14.062 24.9862 14.8728 25.0776 15.6615 25.0335H17.5775C17.9661 25 18.2605 24.8778 18.4606 24.6669L18.5269 24.5834C18.5715 24.5171 18.6132 24.4141 18.6518 24.2755C18.6907 24.1366 18.7101 23.9837 18.7101 23.8173C18.6987 23.3398 18.7351 22.9094 18.8182 22.5262C18.9012 22.1432 18.9959 21.8544 19.1017 21.6599C19.2075 21.4656 19.3269 21.3016 19.4598 21.1687C19.593 21.0354 19.6879 20.9547 19.7435 20.9269C19.7989 20.899 19.843 20.88 19.8764 20.8686C20.1429 20.7798 20.4567 20.8658 20.818 21.1271C21.179 21.3881 21.5177 21.7104 21.8344 22.0935C22.151 22.4769 22.5314 22.907 22.9756 23.3845C23.4201 23.8622 23.8087 24.2173 24.1418 24.4509L24.4749 24.6509C24.6974 24.7843 24.9862 24.9065 25.3417 25.0175C25.6966 25.1285 26.0075 25.1563 26.2745 25.1008L30.5395 25.0343C30.9614 25.0343 31.2896 24.9644 31.5225 24.8258C31.7558 24.687 31.8944 24.534 31.9391 24.3677C31.9837 24.2011 31.9861 24.0122 31.9475 23.8009C31.908 23.5902 31.8691 23.4428 31.8304 23.3596Z" fill="white"/>
</g>
<defs>
<clipPath id="clip0_1539_1523">
<rect width="32" height="32" fill="white"/>
</clipPath>
</defs>
</svg>
