<svg width="32" height="32" viewBox="0 0 32 32" fill="none" xmlns="http://www.w3.org/2000/svg">
<path d="M30.0131 15.3509C30.0157 15.3509 30.0176 15.3509 30.0202 15.3509C30.1987 15.3509 30.369 15.276 30.4899 15.1448C30.6128 15.0117 30.6736 14.8331 30.6576 14.6527C30.015 7.58514 24.4195 1.9877 17.3514 1.34386C17.1722 1.32978 16.9917 1.38802 16.8586 1.51154C16.7254 1.63442 16.6512 1.80786 16.6531 1.98898C16.7645 11.3816 18.0035 15.2197 30.0131 15.3509ZM30.0131 16.6488C18.0035 16.78 16.7651 20.6181 16.6538 30.0107C16.6518 30.1919 16.7261 30.3653 16.8592 30.4882C16.9782 30.5976 17.1338 30.6584 17.2938 30.6584C17.313 30.6584 17.3328 30.6578 17.352 30.6559C24.4202 30.012 30.0157 24.4152 30.6576 17.3471C30.6736 17.1666 30.6134 16.988 30.4899 16.8549C30.3664 16.7218 30.1942 16.6559 30.0131 16.6488ZM14.6077 1.34706C7.56191 2.00946 1.98431 7.60562 1.34495 14.6539C1.32895 14.8344 1.38911 15.013 1.51263 15.1461C1.63359 15.2773 1.80447 15.3515 1.98239 15.3515C1.98495 15.3515 1.98751 15.3515 1.99007 15.3515C13.96 15.2139 15.1958 11.3778 15.3085 1.99154C15.3104 1.81042 15.2355 1.63634 15.1024 1.51346C14.968 1.39058 14.7882 1.33042 14.6077 1.34706ZM1.98943 16.6482C1.79039 16.6258 1.63423 16.7205 1.51199 16.8536C1.38911 16.9867 1.32831 17.1653 1.34431 17.3458C1.98367 24.3941 7.56191 29.9903 14.6077 30.6527C14.6275 30.6546 14.648 30.6552 14.6678 30.6552C14.8278 30.6552 14.9827 30.5951 15.1018 30.4856C15.2349 30.3627 15.3098 30.1887 15.3078 30.0075C15.1952 20.6219 13.96 16.7858 1.98943 16.6482Z" fill="white"/>
</svg>
