<svg width="32" height="24" viewBox="0 0 32 24" fill="none" xmlns="http://www.w3.org/2000/svg">
<path d="M31.3015 4.29816C31.1174 3.61945 30.7589 3.00074 30.2617 2.50348C29.7644 2.00623 29.1457 1.64775 28.467 1.46366C25.982 0.785156 15.98 0.785156 15.98 0.785156C15.98 0.785156 5.9775 0.805156 3.492 1.48366C2.8133 1.66775 2.19458 2.02623 1.69733 2.52348C1.20007 3.02074 0.841589 3.63945 0.6575 4.31816C0 6.80366 0 12.0002 0 12.0002C0 12.0002 0 17.1967 0.678 19.7022C0.862089 20.3809 1.22057 20.9996 1.71783 21.4968C2.21508 21.9941 2.8338 22.3526 3.5125 22.5367C5.9975 23.2152 16 23.2152 16 23.2152C16 23.2152 26.0025 23.2152 28.488 22.5372C29.1667 22.3531 29.7854 21.9946 30.2827 21.4973C30.7799 21.0001 31.1384 20.3814 31.3225 19.7027C32 17.2172 32 12.0002 32 12.0002C32 12.0002 31.98 6.80366 31.3015 4.29816Z" fill="white"/>
</svg>
