<svg width="40" height="40" viewBox="0 0 40 40" fill="none" xmlns="http://www.w3.org/2000/svg">
<path d="M31.2137 23.3086C33.0361 17.1271 29.49 10.6156 23.3086 8.79285C17.1272 6.97012 10.6156 10.5167 8.79286 16.698C6.97013 22.8793 10.5166 29.391 16.698 31.2137C17.7694 31.5305 18.8808 31.6916 19.998 31.692C25.0464 31.6916 29.7152 28.3905 31.2137 23.3086ZM19.9989 30.3168C17.8332 30.3161 15.7228 29.6336 13.9668 28.3662C12.2107 27.0988 10.8983 25.3108 10.2154 23.2556C9.53255 21.2005 9.51398 18.9825 10.1623 16.9162C10.8107 14.8499 12.093 13.0401 13.8276 11.7435C15.5621 10.4469 17.6608 9.72916 19.8262 9.69215C21.9915 9.65514 24.1135 10.3007 25.8913 11.5373C27.6692 12.7739 29.0126 14.5388 29.7312 16.5817C30.4498 18.6247 30.507 20.842 29.8948 22.9193C29.2688 25.0576 27.9655 26.935 26.1809 28.2689C24.3962 29.6029 22.2267 30.3214 19.9986 30.3164L19.9989 30.3168Z" fill="white"/>
<path d="M28.2171 30.1609C26.6345 31.4409 24.7746 32.3333 22.7859 32.7671C22.6976 32.7863 22.614 32.8226 22.5399 32.874C22.4657 32.9255 22.4023 32.9911 22.3535 33.067C22.3046 33.1429 22.2712 33.2277 22.2551 33.3166C22.2391 33.4054 22.2406 33.4966 22.2598 33.5848C22.2789 33.673 22.3153 33.7566 22.3667 33.8308C22.4182 33.905 22.4837 33.9684 22.5597 34.0172C22.6356 34.0661 22.7204 34.0995 22.8092 34.1156C22.8981 34.1316 22.9892 34.1301 23.0775 34.1109C25.2764 33.6312 27.3329 32.6443 29.0829 31.2289C29.1539 31.1723 29.213 31.1023 29.2568 31.0228C29.3006 30.9432 29.3282 30.8558 29.338 30.7656C29.3478 30.6753 29.3397 30.584 29.314 30.4969C29.2884 30.4099 29.2457 30.3287 29.1886 30.2582C29.1314 30.1877 29.0608 30.1292 28.9809 30.0861C28.901 30.043 28.8134 30.0161 28.723 30.0071C28.6327 29.998 28.5415 30.007 28.4546 30.0334C28.3678 30.0598 28.287 30.1031 28.217 30.1609H28.2171Z" fill="white"/>
<path d="M32.1884 26.4184C32.0315 26.3254 31.8442 26.2985 31.6675 26.3437C31.4909 26.3888 31.3394 26.5022 31.2464 26.659C30.9739 27.1182 30.6735 27.5602 30.3468 27.9825C30.2352 28.1267 30.1856 28.3094 30.2087 28.4902C30.2318 28.6711 30.3258 28.8354 30.47 28.947C30.6143 29.0585 30.7969 29.1082 30.9778 29.0851C31.1587 29.062 31.323 28.968 31.4345 28.8237C31.7957 28.3567 32.1278 27.8679 32.4291 27.3601C32.522 27.2033 32.5488 27.016 32.5037 26.8394C32.4585 26.6628 32.3451 26.5114 32.1884 26.4184Z" fill="white"/>
<path d="M39.3472 15.8819L38.916 15.8203C38.2505 15.7209 37.6222 15.4504 37.0926 15.0354C36.563 14.6204 36.1502 14.0749 35.8947 13.4525L35.8742 13.4031C35.6129 12.7808 35.5176 12.1013 35.5977 11.4311C35.6778 10.7609 35.9305 10.1229 36.3311 9.57973L36.5924 9.23143C36.6917 9.09904 36.74 8.93526 36.7282 8.77016C36.7165 8.60506 36.6456 8.44973 36.5286 8.3327L31.6673 3.47138C31.5503 3.35436 31.395 3.28348 31.2299 3.27175C31.0648 3.26002 30.9011 3.30823 30.7687 3.40753L30.4203 3.66878C29.8772 4.06938 29.2394 4.32211 28.5693 4.40225C27.8992 4.48239 27.2198 4.38719 26.5975 4.12597L26.5479 4.10552C25.9254 3.84998 25.3799 3.4372 24.9648 2.90759C24.5497 2.37797 24.2792 1.74965 24.1797 1.08413L24.1181 0.652805C24.0947 0.488965 24.013 0.339064 23.888 0.230626C23.763 0.122188 23.603 0.0624927 23.4375 0.0625H16.5625C16.397 0.0624898 16.2371 0.122173 16.112 0.230594C15.987 0.339014 15.9053 0.488894 15.8819 0.652719L15.8203 1.08318C15.7209 1.74899 15.4503 2.37756 15.0349 2.90734C14.6196 3.43711 14.0737 3.84993 13.4509 4.10534L13.4017 4.12571C12.7794 4.38682 12.0999 4.48192 11.4298 4.4017C10.7597 4.32149 10.1219 4.06871 9.57879 3.66809L9.23126 3.40753C9.09887 3.30825 8.93512 3.26006 8.77006 3.27179C8.605 3.28352 8.44971 3.35438 8.3327 3.47138L3.47138 8.3327C3.35438 8.44971 3.28352 8.605 3.27179 8.77006C3.26006 8.93512 3.30825 9.09887 3.40753 9.23126L3.66809 9.57887C4.06866 10.1219 4.32144 10.7595 4.4017 11.4295C4.48196 12.0994 4.38695 12.7787 4.12597 13.4009L4.10543 13.4506C3.85003 14.0735 3.4372 14.6194 2.90739 15.0348C2.37758 15.4503 1.74896 15.7209 1.08309 15.8203L0.652719 15.8819C0.488894 15.9053 0.339014 15.987 0.230594 16.112C0.122173 16.2371 0.0624898 16.397 0.0625 16.5625V23.4375C0.0624898 23.603 0.122173 23.7629 0.230594 23.888C0.339014 24.013 0.488894 24.0947 0.652719 24.1181L1.08318 24.1797C1.74919 24.2792 2.37793 24.55 2.90781 24.9655C3.43768 25.3811 3.85051 25.9272 4.10586 26.5503L4.12571 26.5983C4.38686 27.2206 4.48198 27.9001 4.40177 28.5702C4.32155 29.2403 4.06875 29.8781 3.66809 30.4212L3.40753 30.7687C3.30825 30.9011 3.26006 31.0649 3.27179 31.2299C3.28352 31.395 3.35438 31.5503 3.47138 31.6673L8.3327 36.5286C8.44971 36.6456 8.605 36.7165 8.77006 36.7282C8.93512 36.7399 9.09887 36.6917 9.23126 36.5925L9.57887 36.3319C10.1219 35.9313 10.7595 35.6786 11.4295 35.5983C12.0994 35.5181 12.7787 35.6131 13.4009 35.874L13.4506 35.8946C14.0735 36.15 14.6194 36.5628 15.0348 37.0926C15.4503 37.6224 15.7209 38.251 15.8203 38.9169L15.8819 39.3473C15.9053 39.5111 15.987 39.661 16.112 39.7694C16.2371 39.8778 16.397 39.9375 16.5625 39.9375H23.4375C23.603 39.9375 23.7629 39.8778 23.888 39.7694C24.013 39.661 24.0947 39.5111 24.1181 39.3473L24.1797 38.9168C24.2791 38.251 24.5497 37.6224 24.9651 37.0927C25.3804 36.5629 25.9263 36.1501 26.5491 35.8947L26.5983 35.8743C27.2206 35.6132 27.9001 35.5181 28.5702 35.5983C29.2403 35.6785 29.8781 35.9313 30.4212 36.3319L30.7687 36.5925C30.9011 36.6917 31.0649 36.7399 31.2299 36.7282C31.395 36.7165 31.5503 36.6456 31.6673 36.5286L36.5286 31.6673C36.6456 31.5503 36.7165 31.395 36.7282 31.2299C36.7399 31.0649 36.6917 30.9011 36.5925 30.7687L36.3318 30.421C35.9312 29.8781 35.6785 29.2404 35.5982 28.5705C35.518 27.9006 35.613 27.2213 35.874 26.5991L35.8946 26.5494C36.15 25.9265 36.5628 25.3806 37.0926 24.9652C37.6224 24.5497 38.251 24.2791 38.9169 24.1797L39.3473 24.1181C39.5111 24.0947 39.661 24.013 39.7694 23.888C39.8778 23.7629 39.9375 23.603 39.9375 23.4375V16.5625C39.9375 16.397 39.8778 16.237 39.7694 16.112C39.6609 15.987 39.511 15.9053 39.3472 15.8819ZM38.5625 22.8438C37.6918 23.0008 36.8746 23.3744 36.1863 23.9302C35.498 24.486 34.9606 25.2061 34.6237 26.0242L34.6046 26.0702C34.2631 26.8882 34.1328 27.7789 34.2257 28.6605C34.3187 29.542 34.6319 30.386 35.1366 31.1147L31.1147 35.1366C30.3859 34.632 29.5418 34.3188 28.6602 34.2259C27.7785 34.133 26.8877 34.2633 26.0697 34.6049L26.0253 34.6233C25.207 34.9601 24.4867 35.4975 23.9307 36.1859C23.3747 36.8743 23.0009 37.6916 22.8438 38.5625H17.1562C16.9991 37.6916 16.6253 36.8743 16.0692 36.1858C15.5132 35.4974 14.7928 34.96 13.9744 34.6232L13.9295 34.6046C13.1116 34.2631 12.2208 34.1328 11.3393 34.2258C10.4578 34.3187 9.61377 34.632 8.88502 35.1366L4.86314 31.1147C5.36784 30.3859 5.68107 29.5418 5.77398 28.6602C5.8669 27.7785 5.73651 26.8877 5.39484 26.0697L5.37645 26.0253C5.03965 25.2071 4.5023 24.4867 3.81393 23.9307C3.12556 23.3747 2.30831 23.001 1.4375 22.8438V17.1562C2.30839 16.9991 3.12573 16.6253 3.81416 16.0692C4.5026 15.5132 5.03999 14.7928 5.37679 13.9744L5.39535 13.9295C5.73692 13.1116 5.86723 12.2208 5.77427 11.3393C5.68131 10.4577 5.36807 9.61375 4.8634 8.88502L8.88527 4.86314C9.61411 5.36781 10.4582 5.68102 11.3398 5.77393C12.2215 5.86685 13.1123 5.73648 13.9303 5.39484L13.9747 5.37645C14.7929 5.03965 15.5133 4.5023 16.0693 3.81393C16.6253 3.12556 16.999 2.30831 17.1562 1.4375H22.8438C23.0008 2.30827 23.3743 3.12554 23.9301 3.81397C24.4859 4.5024 25.2061 5.03986 26.0242 5.37679L26.0688 5.39527C26.887 5.73719 27.778 5.86769 28.6599 5.77476C29.5417 5.68183 30.386 5.36844 31.1149 4.86348L35.1368 8.88536C34.6319 9.61442 34.3185 10.4588 34.2256 11.3408C34.1327 12.2227 34.2632 13.1139 34.6052 13.9321L34.6236 13.9766C34.9606 14.7945 35.4981 15.5146 36.1865 16.0702C36.8749 16.6259 37.6921 16.9994 38.5628 17.1562L38.5625 22.8438Z" fill="white"/>
<path d="M16.0166 13.457C16.1317 13.457 16.245 13.428 16.3459 13.3726C17.6499 12.6566 19.1368 12.3431 20.6189 12.4715C20.7991 12.4847 20.9773 12.4263 21.1149 12.3091C21.2524 12.1919 21.3383 12.0252 21.3538 11.8451C21.3694 11.6651 21.3135 11.4861 21.1981 11.347C21.0827 11.2079 20.9172 11.1198 20.7374 11.1018C18.9854 10.9495 17.2276 11.3199 15.6861 12.1661C15.552 12.2394 15.4461 12.3552 15.3852 12.4953C15.3242 12.6355 15.3117 12.7919 15.3496 12.9399C15.3875 13.088 15.4736 13.2192 15.5943 13.3128C15.7151 13.4064 15.8636 13.4572 16.0164 13.457H16.0166Z" fill="white"/>
<path d="M12.9488 15.6268C13.0212 15.6808 13.1036 15.72 13.1912 15.7421C13.2787 15.7642 13.3698 15.7689 13.4592 15.7558C13.5486 15.7428 13.6345 15.7122 13.7121 15.6659C13.7897 15.6196 13.8574 15.5584 13.9113 15.4859C14.0458 15.3055 14.1905 15.1282 14.341 14.9597C14.4626 14.8239 14.5254 14.6453 14.5154 14.4633C14.5053 14.2812 14.4234 14.1106 14.2876 13.9889C14.1518 13.8672 13.9732 13.8045 13.7911 13.8145C13.6091 13.8245 13.4384 13.9064 13.3168 14.0423C13.1383 14.2415 12.9671 14.451 12.8079 14.6648C12.699 14.811 12.6527 14.9946 12.6791 15.175C12.7055 15.3554 12.8025 15.5179 12.9488 15.6268Z" fill="white"/>
<path d="M27.9083 15.2297C27.8322 15.1642 27.7427 15.1161 27.6461 15.0889C27.5495 15.0617 27.4481 15.056 27.349 15.0723L24.1429 15.596C22.9587 15.7889 21.8478 16.2951 20.9253 17.0621C20.0027 17.8291 19.3022 18.8289 18.8963 19.9579C18.7282 19.732 18.5461 19.517 18.3509 19.314C17.1423 18.0555 15.4833 17.3285 13.7388 17.2929L12.5706 17.2661H12.5546C12.379 17.2662 12.2101 17.3335 12.0825 17.4541C11.955 17.5748 11.8784 17.7397 11.8685 17.915L11.7605 19.8351C11.711 20.7142 11.8373 21.5943 12.1321 22.424C12.4269 23.2536 12.8843 24.0162 13.4774 24.6669C14.0705 25.3177 14.7875 25.8436 15.5863 26.2138C16.3851 26.5841 17.2498 26.7913 18.1297 26.8233C18.1297 26.8233 19.4887 26.8749 19.5071 26.8732L21.8913 26.6852C23.5655 26.5532 25.1298 25.8003 26.2774 24.5741C27.4249 23.348 28.0727 21.7372 28.0937 20.058L28.1473 15.7597C28.1486 15.6592 28.1279 15.5597 28.0866 15.4682C28.0453 15.3766 27.9844 15.2952 27.9083 15.2297ZM26.7092 20.2985L24.2881 21.0147L26.7467 17.8099L26.7189 20.0406C26.7178 20.1268 26.7145 20.2128 26.7092 20.2985ZM24.3646 16.953L25.8582 16.709L23.2912 20.0554L22.5635 17.5952C23.1205 17.275 23.7306 17.0574 24.3646 16.953ZM21.2383 18.665C21.2899 18.6077 21.3424 18.5517 21.3959 18.4968L22.2559 21.4044L20.2061 24.0763L20.2071 23.995C20.2166 23.2717 20.1077 22.5518 19.8846 21.8637C19.9692 20.677 20.4454 19.552 21.2383 18.665ZM18.8321 23.9777L18.8276 24.33L17.0229 22.1883L17.5511 20.4879C18.3919 21.4546 18.8479 22.6966 18.8324 23.9777H18.8321ZM14.0748 18.6905C14.9096 18.7682 15.7132 19.0466 16.4172 19.502L15.9703 20.9399L14.0748 18.6905ZM14.4935 23.7403C14.0217 23.226 13.6581 22.6221 13.4244 21.9644C13.1907 21.3068 13.0916 20.6089 13.1331 19.9122L13.1439 19.7195L17.9614 25.4355C16.6308 25.3362 15.3894 24.7293 14.4937 23.7403H14.4935ZM25.2732 23.6342C24.3607 24.6108 23.1155 25.2102 21.7829 25.3141L20.9382 25.3807L22.8647 22.8695L26.3875 21.8276C26.1405 22.4982 25.7617 23.1125 25.2735 23.6342H25.2732Z" fill="white"/>
</svg>
