<svg width="27" height="27" viewBox="0 0 27 27" fill="none" xmlns="http://www.w3.org/2000/svg">
<path d="M24.627 6.32812H21.408C21.9057 5.66663 22.2012 4.84476 22.2012 3.95508C22.2012 1.77425 20.4269 0 18.2461 0C16.9324 0 15.9638 0.470654 15.1976 1.48115C14.5566 2.32659 14.0879 3.50699 13.5 4.99843C12.9121 3.50694 12.4434 2.32659 11.8024 1.48115C11.0363 0.470654 10.0676 0 8.75391 0C6.57308 0 4.79883 1.77425 4.79883 3.95508C4.79883 4.84476 5.0943 5.66663 5.59201 6.32812H2.37305C1.06455 6.32812 0 7.39267 0 8.70117V10.2832C0 11.3144 0.661342 12.1937 1.58203 12.5202V24.627C1.58203 25.9355 2.64658 27 3.95508 27H23.0449C24.3534 27 25.418 25.9355 25.418 24.627V12.5202C26.3387 12.1937 27 11.3144 27 10.2832V8.70117C27 7.39267 25.9355 6.32812 24.627 6.32812ZM14.952 5.62887C16.1638 2.55456 16.6245 1.58203 18.2461 1.58203C19.5546 1.58203 20.6191 2.64658 20.6191 3.95508C20.6191 5.26358 19.5546 6.32812 18.2461 6.32812H14.6753C14.7722 6.08476 14.8647 5.85046 14.952 5.62887ZM8.75391 1.58203C10.3755 1.58203 10.8362 2.55456 12.048 5.62887C12.1353 5.85046 12.2278 6.08476 12.3247 6.32812H8.75391C7.44541 6.32812 6.38086 5.26358 6.38086 3.95508C6.38086 2.64658 7.44541 1.58203 8.75391 1.58203ZM10.3359 25.418H3.95508C3.51891 25.418 3.16406 25.0631 3.16406 24.627V12.6562H10.3359V25.418ZM10.3359 11.0742H2.37305C1.93688 11.0742 1.58203 10.7194 1.58203 10.2832V8.70117C1.58203 8.26501 1.93688 7.91016 2.37305 7.91016H10.3359V11.0742ZM15.082 25.418H11.918V7.91016C12.0837 7.91016 14.1729 7.91016 15.082 7.91016V25.418ZM23.8359 24.627C23.8359 25.0631 23.4811 25.418 23.0449 25.418H16.6641V12.6562H23.8359V24.627ZM25.418 10.2832C25.418 10.7194 25.0631 11.0742 24.627 11.0742H16.6641V7.91016H24.627C25.0631 7.91016 25.418 8.26501 25.418 8.70117V10.2832Z" fill="#202020"/>
</svg>
