<svg width="47" height="47" viewBox="0 0 47 47" fill="none" xmlns="http://www.w3.org/2000/svg">
<circle cx="23.5" cy="23.5" r="23" stroke="#E5E5E5"/>
<g clip-path="url(#clip0_1539_2281)">
<path d="M21.7526 32.1253H22.8359V15.3337L21.2109 11.542L19.5859 15.3337V35.3753C19.5859 35.6626 19.7001 35.9382 19.9032 36.1414C20.1064 36.3445 20.382 36.4587 20.6693 36.4587H21.7526C22.0399 36.4587 22.3155 36.3445 22.5186 36.1414C22.7218 35.9382 22.8359 35.6626 22.8359 35.3753V34.292" stroke="#06828E" stroke-linecap="round" stroke-linejoin="round"/>
<path d="M24.4583 36.4587H26.625C26.9123 36.4587 27.1879 36.3445 27.391 36.1414C27.5942 35.9382 27.7083 35.6626 27.7083 35.3753V32.8024C28.261 32.6318 28.7962 32.409 29.3068 32.1372L31.1284 33.9589C31.3316 34.162 31.6071 34.2761 31.8943 34.2761C32.1816 34.2761 32.4571 34.162 32.6602 33.9589L34.9585 31.6606C35.1616 31.4574 35.2757 31.1819 35.2757 30.8947C35.2757 30.6074 35.1616 30.3319 34.9585 30.1287L33.1369 28.3071C33.4087 27.7965 33.6314 27.2613 33.8021 26.7087H36.375C36.6623 26.7087 36.9379 26.5945 37.141 26.3914C37.3442 26.1882 37.4583 25.9126 37.4583 25.6253V22.3753C37.4583 22.088 37.3442 21.8125 37.141 21.6093C36.9379 21.4061 36.6623 21.292 36.375 21.292H33.8021C33.6314 20.7393 33.4087 20.2041 33.1369 19.6935L34.9585 17.8719C35.1616 17.6688 35.2757 17.3933 35.2757 17.106C35.2757 16.8187 35.1616 16.5432 34.9585 16.3401L32.6602 14.0418C32.4571 13.8387 32.1816 13.7246 31.8943 13.7246C31.6071 13.7246 31.3316 13.8387 31.1284 14.0418L29.3068 15.8634C28.7962 15.5916 28.261 15.3689 27.7083 15.1982V12.6253C27.7083 12.338 27.5942 12.0625 27.391 11.8593C27.1879 11.6561 26.9123 11.542 26.625 11.542H23.375" stroke="#06828E" stroke-linecap="round" stroke-linejoin="round"/>
<path d="M25 19.667C26.1493 19.667 27.2515 20.1235 28.0641 20.9362C28.8768 21.7489 29.3333 22.8511 29.3333 24.0003C29.3333 25.1496 28.8768 26.2518 28.0641 27.0645C27.2515 27.8771 26.1493 28.3337 25 28.3337" stroke="#06828E" stroke-linecap="round" stroke-linejoin="round"/>
<path d="M25 22.375C25.431 22.375 25.8443 22.5462 26.149 22.851C26.4538 23.1557 26.625 23.569 26.625 24C26.625 24.431 26.4538 24.8443 26.149 25.149C25.8443 25.4538 25.431 25.625 25 25.625" stroke="#06828E" stroke-linecap="round" stroke-linejoin="round"/>
<path d="M15.2513 24.0003H12.543V12.6253C12.543 12.338 12.6571 12.0625 12.8603 11.8593C13.0634 11.6561 13.339 11.542 13.6263 11.542H16.3346C16.622 11.542 16.8975 11.6561 17.1007 11.8593C17.3038 12.0625 17.418 12.338 17.418 12.6253V35.3753C17.418 35.6626 17.3038 35.9382 17.1007 36.1414C16.8975 36.3445 16.622 36.4587 16.3346 36.4587H13.6263C13.339 36.4587 13.0634 36.3445 12.8603 36.1414C12.6571 35.9382 12.543 35.6626 12.543 35.3753V26.167" stroke="#06828E" stroke-linecap="round" stroke-linejoin="round"/>
<path d="M12.543 20.209H14.168" stroke="#06828E" stroke-linecap="round" stroke-linejoin="round"/>
<path d="M12.543 27.792H14.168" stroke="#06828E" stroke-linecap="round" stroke-linejoin="round"/>
<path d="M12.543 32.125H15.2513" stroke="#06828E" stroke-linecap="round" stroke-linejoin="round"/>
<path d="M12.543 15.875H15.2513" stroke="#06828E" stroke-linecap="round" stroke-linejoin="round"/>
<path d="M19.5859 15.334H22.8359" stroke="#06828E" stroke-linecap="round" stroke-linejoin="round"/>
</g>
<defs>
<clipPath id="clip0_1539_2281">
<rect width="26" height="26" fill="white" transform="translate(12 11)"/>
</clipPath>
</defs>
</svg>
