<svg width="34" height="34" viewBox="0 0 34 34" fill="none" xmlns="http://www.w3.org/2000/svg">
<path d="M17 34C26.3888 34 34 26.3888 34 17C34 7.61116 26.3888 0 17 0C7.61116 0 0 7.61116 0 17C0 26.3888 7.61116 34 17 34Z" fill="#C9D3E0" fill-opacity="0.7"/>
<path d="M27.9119 15.6066C27.5511 12.905 26.2064 10.4589 24.1032 8.69238L23.6472 9.2353C25.6025 10.8775 26.8565 13.1475 27.2028 15.6556C26.5994 15.8464 26.167 16.4104 26.167 17.0726C26.167 17.7346 26.5994 18.2986 27.2027 18.4896C26.8983 20.6794 25.8773 22.7345 24.3051 24.3067C22.733 25.8789 20.6778 26.8999 18.488 27.2043C18.297 26.601 17.7331 26.1686 17.071 26.1686C16.4089 26.1686 15.845 26.601 15.654 27.2043C13.321 26.881 11.1657 25.7565 9.55591 24.0145L9.03516 24.4957C10.7676 26.3703 13.0911 27.5765 15.6049 27.9134C15.7268 28.6125 16.3376 29.1458 17.071 29.1458C17.8045 29.1458 18.4152 28.6125 18.5371 27.9133C20.8973 27.5961 23.1138 26.5007 24.8065 24.8081C26.4991 23.1155 27.5945 20.8989 27.9116 18.5387C28.6108 18.4169 29.1441 17.8061 29.1441 17.0726C29.1442 16.3393 28.611 15.7285 27.9119 15.6066ZM17.071 28.4367C16.6411 28.4367 16.2914 28.087 16.2914 27.6572C16.2914 27.6551 16.2914 27.6531 16.2914 27.6509L16.2947 27.6145C16.3155 27.2013 16.6565 26.8776 17.071 26.8776C17.4855 26.8776 17.8264 27.2013 17.8472 27.6145L17.8485 27.6407L17.8505 27.6509C17.8506 27.6531 17.8506 27.6551 17.8506 27.6572C17.8505 28.087 17.5008 28.4367 17.071 28.4367ZM27.6556 17.8521C27.6536 17.8521 27.6514 17.8521 27.6493 17.8522L27.6129 17.8488C27.1997 17.828 26.876 17.4871 26.876 17.0726C26.876 16.6581 27.1997 16.3172 27.6129 16.2963L27.639 16.2951L27.6492 16.293C27.6514 16.293 27.6535 16.293 27.6555 16.293C28.0854 16.293 28.4351 16.6427 28.4351 17.0726C28.4351 17.5024 28.0855 17.8521 27.6556 17.8521Z" fill="#343E4C"/>
<path d="M7.97716 17.0731C7.97716 16.4111 7.54484 15.8472 6.94151 15.6562C7.24589 13.4664 8.26687 11.4112 9.83907 9.83902C11.4112 8.26687 13.4664 7.24584 15.6562 6.94147C15.8472 7.54479 16.4111 7.97712 17.0732 7.97712C17.7356 7.97712 18.2997 7.54456 18.4904 6.9409C20.078 7.16138 21.6035 7.75834 22.9206 8.67722L23.3263 8.09568C21.9041 7.10351 20.2548 6.4625 18.5393 6.23212C18.4173 5.53325 17.8065 5 17.0731 5C16.3397 5 15.7289 5.53334 15.6071 6.2325C13.2469 6.54965 11.0303 7.64506 9.33766 9.3377C7.64496 11.0303 6.54965 13.2469 6.23245 15.6071C5.53334 15.7289 5 16.3397 5 17.0731C5 17.8066 5.53325 18.4173 6.23231 18.5392C6.49151 20.4746 7.26452 22.3024 8.47867 23.8422L9.0354 23.4032C7.90953 21.9755 7.1892 20.2829 6.94099 18.4903C7.54465 18.2994 7.97716 17.7354 7.97716 17.0731ZM16.2936 6.48853C16.2936 6.05866 16.6433 5.70901 17.0732 5.70901C17.5031 5.70901 17.8528 6.05866 17.8528 6.48853C17.8528 6.49056 17.8528 6.49273 17.8528 6.4949L17.8494 6.53126C17.8287 6.94444 17.4877 7.26815 17.0732 7.26815C16.6587 7.26815 16.3178 6.94444 16.297 6.53126L16.2957 6.50518L16.2936 6.4949C16.2936 6.49278 16.2936 6.49056 16.2936 6.48853ZM6.50513 17.8506L6.49495 17.8527C6.49278 17.8527 6.4907 17.8527 6.48868 17.8527C6.05881 17.8527 5.70911 17.503 5.70911 17.0731C5.70911 16.6432 6.05881 16.2936 6.48868 16.2936C6.4907 16.2936 6.49278 16.2936 6.49495 16.2935L6.53131 16.2969C6.94453 16.3177 7.2682 16.6586 7.2682 17.0731C7.2682 17.4876 6.94453 17.8285 6.53131 17.8494L6.50513 17.8506Z" fill="#343E4C"/>
<path d="M8.78125 17.0732C8.78125 21.6459 12.5015 25.3661 17.0742 25.3661C21.6469 25.3661 25.3671 21.6459 25.3671 17.0732C25.3671 12.5005 21.6469 8.78027 17.0742 8.78027C12.5014 8.78027 8.78125 12.5005 8.78125 17.0732ZM9.49875 17.4277H12.9394V20.4989H10.3092C9.83628 19.5687 9.54969 18.5284 9.49875 17.4277ZM12.9395 23.4277C12.0546 22.85 11.2974 22.0928 10.7197 21.2079H12.9395V23.4277ZM12.9395 16.7187H9.49885C9.54973 15.6179 9.83628 14.5777 10.3093 13.6475H12.9395V16.7187ZM12.9395 12.9385H10.7197C11.2974 12.0537 12.0546 11.2964 12.9395 10.7187V12.9385ZM16.7196 24.6486C15.6188 24.5977 14.5787 24.3112 13.6485 23.8381V21.208H16.7196V24.6486ZM16.7196 20.4989H13.6485V17.4277H16.7196V20.4989ZM16.7196 16.7187H13.6485V13.6475H16.7196V16.7187ZM16.7196 12.9385H13.6485V10.3083C14.5787 9.83531 15.6189 9.54876 16.7196 9.49782V12.9385ZM20.4998 23.8381C19.5696 24.3111 18.5294 24.5976 17.4287 24.6485V21.2079H20.4998V23.8381ZM20.4998 20.4989H17.4287V17.4277H20.4998V20.4989ZM20.4998 16.7187H17.4287V13.6475H20.4998V16.7187ZM21.2089 23.4277V21.2079H23.4286C22.8509 22.0928 22.0937 22.85 21.2089 23.4277ZM21.2089 10.7187C22.0937 11.2964 22.8509 12.0537 23.4287 12.9385H21.2089V10.7187ZM21.2089 13.6475H23.8391C24.312 14.5777 24.5986 15.6179 24.6495 16.7187H21.2089V13.6475ZM21.2088 17.4277H24.6495C24.5986 18.5284 24.312 19.5687 23.839 20.4989H21.2088V17.4277ZM20.4998 12.9385H17.4287V9.49778C18.5294 9.54866 19.5696 9.83521 20.4998 10.3082V12.9385Z" fill="#343E4C"/>
<path d="M15.5607 14.8281H14.8047V15.5371H15.5607V14.8281Z" fill="#343E4C"/>
<path d="M19.342 14.8281H18.5859V15.5371H19.342V14.8281Z" fill="#343E4C"/>
<path d="M19.342 18.6094H18.5859V19.3184H19.342V18.6094Z" fill="#343E4C"/>
<path d="M15.5607 18.6094H14.8047V19.3184H15.5607V18.6094Z" fill="#343E4C"/>
<path d="M15.5607 22.3887H14.8047V23.0977H15.5607V22.3887Z" fill="#343E4C"/>
<path d="M19.342 22.3887H18.5859V23.0977H19.342V22.3887Z" fill="#343E4C"/>
<path d="M19.342 11.0479H18.5859V11.7569H19.342V11.0479Z" fill="#343E4C"/>
<path d="M15.5607 11.0479H14.8047V11.7569H15.5607V11.0479Z" fill="#343E4C"/>
<path d="M11.7834 14.8281H11.0273V15.5371H11.7834V14.8281Z" fill="#343E4C"/>
<path d="M23.1233 14.8281H22.3672V15.5371H23.1233V14.8281Z" fill="#343E4C"/>
<path d="M23.1233 18.6094H22.3672V19.3184H23.1233V18.6094Z" fill="#343E4C"/>
<path d="M11.7834 18.6094H11.0273V19.3184H11.7834V18.6094Z" fill="#343E4C"/>
</svg>
