<svg width="42" height="42" viewBox="0 0 42 42" fill="none" xmlns="http://www.w3.org/2000/svg">
<path d="M21 42C32.598 42 42 32.598 42 21C42 9.40202 32.598 0 21 0C9.40202 0 0 9.40202 0 21C0 32.598 9.40202 42 21 42Z" fill="#60B3BB" fill-opacity="0.1"/>
<path d="M21 38C30.3888 38 38 30.3888 38 21C38 11.6112 30.3888 4 21 4C11.6112 4 4 11.6112 4 21C4 30.3888 11.6112 38 21 38Z" fill="#7FC8CF" fill-opacity="0.7"/>
<g clip-path="url(#clip0_2718_135)">
<path d="M21.0009 14.2761C17.2931 14.2761 14.2765 17.2925 14.2765 21.0005C14.2765 24.7084 17.2931 27.7248 21.0009 27.7248C24.7087 27.7248 27.7252 24.7083 27.7252 21.0005C27.7252 17.2926 24.7087 14.2761 21.0009 14.2761ZM21.0009 26.3498C19.9429 26.3498 18.9087 26.0361 18.029 25.4483C17.1493 24.8605 16.4636 24.025 16.0587 23.0476C15.6539 22.0701 15.5479 20.9945 15.7543 19.9569C15.9607 18.9192 16.4702 17.966 17.2183 17.2179C17.9665 16.4698 18.9196 15.9603 19.9573 15.7539C20.995 15.5475 22.0705 15.6534 23.048 16.0583C24.0255 16.4632 24.8609 17.1488 25.4487 18.0285C26.0365 18.9082 26.3502 19.9425 26.3502 21.0005C26.3486 22.4187 25.7845 23.7784 24.7817 24.7813C23.7788 25.7841 22.4191 26.3482 21.0009 26.3498ZM31.4672 23.3798L30.7634 21.0929C30.7421 21.0331 30.7421 20.9679 30.7634 20.9081L31.4672 18.6212C31.572 18.2891 31.5705 17.9325 31.4629 17.6013C31.3553 17.27 31.1469 16.9807 30.8669 16.7736L28.9532 15.3372C28.9009 15.3013 28.8625 15.2485 28.8445 15.1876L28.0698 12.9236C27.9594 12.5933 27.7486 12.3057 27.4668 12.101C27.185 11.8962 26.8463 11.7846 26.498 11.7817L24.1055 11.7443C24.0421 11.7461 23.98 11.7259 23.9298 11.6872L21.9723 10.3112C21.6888 10.1088 21.3492 10 21.0009 10C20.6525 10 20.3129 10.1088 20.0294 10.3112L18.0721 11.6872C18.0218 11.7259 17.9597 11.7461 17.8963 11.7443L15.5038 11.7817C15.1555 11.7846 14.8168 11.8962 14.535 12.101C14.2532 12.3057 14.0424 12.5933 13.932 12.9236L13.1572 15.1875C13.1393 15.2484 13.1009 15.3011 13.0486 15.337L11.135 16.7734C10.8549 16.9805 10.6465 17.2699 10.5389 17.6011C10.4313 17.9323 10.4298 18.2889 10.5346 18.6211L11.2384 20.908C11.2596 20.9678 11.2596 21.033 11.2384 21.0928L10.5346 23.3797C10.4297 23.7119 10.4312 24.0685 10.5389 24.3997C10.6465 24.7309 10.8549 25.0203 11.1349 25.2274L13.0486 26.6637C13.1009 26.6996 13.1393 26.7524 13.1572 26.8132L13.932 29.0773C14.0424 29.4076 14.2532 29.6952 14.535 29.9C14.8168 30.1047 15.1555 30.2163 15.5038 30.2192L17.8962 30.2566C17.9596 30.2548 18.0217 30.275 18.072 30.3136L20.0295 31.6898C20.313 31.8921 20.6526 32.0009 21.0009 32.0009C21.3492 32.0009 21.6888 31.8921 21.9723 31.6898L23.9297 30.3137C23.98 30.275 24.0421 30.2548 24.1055 30.2566L26.498 30.2192C26.8463 30.2163 27.185 30.1047 27.4668 29.9C27.7486 29.6952 27.9594 29.4076 28.0698 29.0773L28.8445 26.8134C28.8625 26.7526 28.9008 26.6998 28.9532 26.6639L30.8668 25.2275C31.1469 25.0204 31.3553 24.7311 31.4629 24.3998C31.5705 24.0685 31.572 23.7119 31.4672 23.3798ZM30.0415 24.1279L28.1279 25.5643C27.8547 25.7653 27.6506 26.0462 27.5438 26.3682L26.769 28.6321C26.75 28.6944 26.7112 28.7489 26.6585 28.7872C26.6058 28.8255 26.542 28.8456 26.4768 28.8444L24.0842 28.8817C23.7451 28.8838 23.4149 28.9911 23.1393 29.1888L21.1816 30.5649C21.1295 30.6042 21.0661 30.6254 21.0009 30.6254C20.9357 30.6254 20.8723 30.6042 20.8202 30.5649L18.8627 29.1887C18.5871 28.991 18.2569 28.8837 17.9177 28.8817L15.5252 28.8444C15.46 28.8455 15.3963 28.8255 15.3435 28.7871C15.2908 28.7488 15.252 28.6944 15.233 28.632L14.4583 26.3682C14.3515 26.0462 14.1474 25.7652 13.8741 25.5642L11.9603 24.1279C11.9068 24.0905 11.867 24.0367 11.8468 23.9747C11.8266 23.9127 11.8273 23.8458 11.8486 23.7841L12.5524 21.4972C12.6552 21.174 12.6552 20.8268 12.5524 20.5035L11.8486 18.2166C11.8273 18.155 11.8266 18.0881 11.8468 18.026C11.867 17.964 11.9068 17.9102 11.9603 17.8729L13.8739 16.4365C14.1471 16.2354 14.3512 15.9545 14.458 15.6325L15.2328 13.3687C15.2518 13.3063 15.2906 13.2519 15.3433 13.2136C15.396 13.1752 15.4598 13.1552 15.525 13.1563L17.9174 13.119C18.2567 13.117 18.587 13.0097 18.8627 12.8119L20.8204 11.436C20.8725 11.3968 20.9359 11.3755 21.0011 11.3755C21.0663 11.3755 21.1297 11.3968 21.1817 11.436L23.139 12.8121C23.4146 13.0099 23.7449 13.1172 24.0841 13.1192L26.4766 13.1565C26.5417 13.1553 26.6055 13.1754 26.6582 13.2137C26.711 13.2521 26.7498 13.3065 26.7688 13.3689L27.5435 15.6327C27.6503 15.9547 27.8544 16.2356 28.1276 16.4367L30.0415 17.8731C30.095 17.9104 30.1348 17.9642 30.155 18.0262C30.1752 18.0882 30.1745 18.1552 30.1532 18.2168L29.4494 20.5037C29.3465 20.8269 29.3465 21.1742 29.4494 21.4974L30.1532 23.7842C30.1745 23.8459 30.1751 23.9128 30.1549 23.9748C30.1348 24.0368 30.095 24.0905 30.0415 24.1279ZM24.7306 18.5691C24.7916 18.6356 24.8389 18.7136 24.8698 18.7984C24.9007 18.8832 24.9145 18.9733 24.9106 19.0635C24.9067 19.1537 24.885 19.2423 24.8469 19.3241C24.8087 19.4059 24.7548 19.4794 24.6883 19.5404L20.3963 23.4741C20.2695 23.5903 20.1038 23.6546 19.9318 23.6546C19.9188 23.6546 19.9058 23.6542 19.8927 23.6535C19.801 23.6483 19.7113 23.6247 19.6289 23.5843C19.5464 23.5438 19.4729 23.4872 19.4127 23.4179L17.2593 20.9386C17.1998 20.8705 17.1544 20.7913 17.1255 20.7056C17.0967 20.6198 17.085 20.5293 17.0913 20.439C17.0975 20.3488 17.1215 20.2607 17.1618 20.1797C17.2021 20.0988 17.258 20.0266 17.3263 19.9673C17.3946 19.9079 17.4739 19.8627 17.5597 19.8341C17.6456 19.8055 17.7362 19.7941 17.8264 19.8006C17.9166 19.8071 18.0046 19.8313 18.0855 19.8718C18.1663 19.9124 18.2384 19.9685 18.2975 20.037L19.9878 21.9835L23.7592 18.5269C23.8936 18.4037 24.0715 18.3389 24.2536 18.3468C24.4358 18.3547 24.6074 18.4347 24.7306 18.5691Z" fill="#375C60"/>
</g>
<defs>
<clipPath id="clip0_2718_135">
<rect width="22" height="22" fill="white" transform="translate(10 10)"/>
</clipPath>
</defs>
</svg>
