<svg width="16" height="16" viewBox="0 0 16 16" fill="none" xmlns="http://www.w3.org/2000/svg">
<g clip-path="url(#clip0_1539_2064)">
<path d="M14.4972 2.24677C13.9682 1.7843 13.2675 1.5727 12.5703 1.66939C12.3685 1.69461 12.1717 1.66239 11.9937 1.57411L9.51672 0.346485C8.56169 -0.125796 7.42866 -0.114577 6.48413 0.375923L4.18866 1.56852C4.00997 1.66242 3.80888 1.69886 3.60637 1.6722L3.40809 1.64699C2.71231 1.56011 2.01863 1.7717 1.49591 2.23417C0.9725 2.69524 0.671875 3.35948 0.671875 4.05739V8.29939C0.671875 9.78205 1.32563 11.1765 2.46566 12.1252L6.44631 15.438C6.89681 15.8122 7.44897 16 8.00041 16C8.55256 16 9.10469 15.8122 9.55456 15.438L13.5359 12.1252C14.6752 11.1778 15.329 9.78345 15.329 8.29939V4.07698C15.329 3.37489 15.0256 2.70783 14.4972 2.24677ZM13.8939 8.29939C13.8939 9.35464 13.4287 10.3468 12.618 11.0209L8.63663 14.3338V14.3352C8.26806 14.6393 7.73272 14.6421 7.36416 14.3338L3.38353 11.0209C2.57213 10.3468 2.10687 9.35464 2.10687 8.29939V4.05736C2.10687 3.76727 2.22669 3.50242 2.44391 3.31042C2.62888 3.14786 2.85662 3.06239 3.09697 3.06239C3.13972 3.06239 3.18316 3.0652 3.22659 3.0708L3.42559 3.09602C3.921 3.15486 4.41287 3.06939 4.8515 2.84095L7.14556 1.64836C7.68441 1.36808 8.33325 1.35967 8.87909 1.63295L11.3553 2.85917C11.7926 3.0778 12.2838 3.15767 12.7638 3.09039C13.0538 3.05955 13.3334 3.13524 13.5534 3.32724C13.7727 3.51924 13.894 3.78548 13.894 4.07698V8.29939H13.8939Z" fill="#797979"/>
<path d="M9.54749 9.10405L8.24631 10.2882C7.9534 10.5559 7.93168 11.0085 8.19865 11.3028C8.34018 11.4584 8.53427 11.5369 8.72909 11.5369C8.90146 11.5369 9.07452 11.4752 9.21187 11.3505L10.5131 10.1663C10.8059 9.89864 10.8277 9.44598 10.5607 9.1517C10.2944 8.85883 9.84109 8.8392 9.54749 9.10405Z" fill="#797979"/>
</g>
<defs>
<clipPath id="clip0_1539_2064">
<rect width="16" height="16" fill="white"/>
</clipPath>
</defs>
</svg>
