<svg width="17" height="17" viewBox="0 0 17 17" fill="none" xmlns="http://www.w3.org/2000/svg">
<path d="M9.45917 16.9367H7.4798C7.13588 16.9367 6.8344 16.7059 6.74432 16.3739L6.32002 14.8122L5.59273 14.5605L4.06894 15.3839C3.7734 15.5417 3.40641 15.491 3.16821 15.2513L1.76873 13.8519C1.52532 13.6092 1.47545 13.2325 1.64591 12.9348L2.46849 11.4966L2.1685 10.7373L0.544199 10.2534C0.2211 10.1566 0 9.85885 0 9.5224V7.54227C0 7.19686 0.231525 6.89464 0.565018 6.80529L2.09253 6.39736C2.18483 6.09514 2.29722 5.80183 2.42901 5.51897L1.68014 4.13141C1.52011 3.83514 1.5737 3.46888 1.81189 3.23068L3.21137 1.8312C3.45405 1.58702 3.83071 1.53642 4.12848 1.70911L5.39471 2.43267C5.71479 2.26443 6.04831 2.12448 6.39147 2.00986L6.81056 0.607396C6.90658 0.28433 7.20362 0.0625 7.54083 0.0625H9.5202C9.86412 0.0625 10.1656 0.293262 10.2557 0.62526L10.6346 2.01879C10.9778 2.13345 11.3098 2.27635 11.6291 2.44459L12.9311 1.74188C13.2266 1.58257 13.5921 1.63321 13.8318 1.87439L15.2313 3.27387C15.4747 3.51655 15.5246 3.89321 15.3541 4.19098L14.5814 5.53985C14.7109 5.81976 14.8219 6.11154 14.9127 6.4123L16.4558 6.87233C16.7789 6.96911 17 7.26685 17 7.60333V9.58346C17 9.92738 16.7692 10.2296 16.4372 10.3189L14.8397 10.7537L14.5152 11.5025L15.3206 12.9943C15.4807 13.2906 15.4271 13.6569 15.1889 13.8951L13.7894 15.2945C13.5467 15.5372 13.1686 15.5878 12.8715 15.4166L11.4035 14.5769L10.6643 14.8047L10.1894 16.3933C10.0927 16.7148 9.79638 16.9367 9.45917 16.9367ZM8.06265 15.4121H8.89117L9.32068 13.9769C9.39363 13.7343 9.58345 13.5422 9.82613 13.4678L11.2703 13.0226C11.472 12.9616 11.6901 12.9839 11.874 13.0896L13.1231 13.8042L13.7089 13.2191L12.9973 11.9C12.8863 11.6946 12.8759 11.4489 12.969 11.2346L13.5876 9.80978C13.6799 9.59688 13.863 9.43906 14.0871 9.37804L15.4754 9.00138V8.1721L14.0685 7.75224C13.8065 7.67335 13.6062 7.46042 13.5444 7.19393C13.435 6.72643 13.2682 6.28576 13.0486 5.88527C12.9206 5.65152 12.9228 5.36866 13.0546 5.13936L13.7409 3.93936L13.1551 3.35426L11.9804 3.9885C11.74 4.11654 11.4489 4.1091 11.2174 3.9647C10.7834 3.69671 10.3122 3.49424 9.81717 3.36472C9.5529 3.29622 9.34595 3.09079 9.2745 2.82726L8.93735 1.58702H8.10883L7.73364 2.8421C7.6577 3.09816 7.45301 3.29619 7.19395 3.36319C6.69893 3.49122 6.22771 3.69074 5.79149 3.95872C5.55402 4.10462 5.25552 4.11205 5.01434 3.97064L3.87763 3.32152L3.29103 3.90659L3.96024 5.14676C4.08305 5.37454 4.08232 5.64999 3.95725 5.87627C3.73392 6.28271 3.56495 6.72491 3.45625 7.19237C3.39296 7.4663 3.18305 7.68368 2.91135 7.75663L1.52455 8.12737V8.95516L2.95976 9.38245C3.18381 9.44946 3.36471 9.6162 3.45034 9.83355L4.02057 11.2777C4.10616 11.4936 4.0883 11.7348 3.97368 11.9357L3.25832 13.1863L3.84492 13.7714L5.16325 13.0598C5.35085 12.9601 5.57046 12.9407 5.77366 13.0107L7.19844 13.502C7.43664 13.5838 7.61902 13.7789 7.6853 14.0231L8.06265 15.4121Z" fill="#6b7170"/>
<path d="M8.49843 11.1718C8.14485 11.1718 7.792 11.1004 7.45702 10.9589C6.80046 10.6805 6.29129 10.1624 6.0233 9.50136C5.47097 8.13761 6.13125 6.57733 7.495 6.02499C8.85726 5.47116 10.419 6.13217 10.9729 7.49742C11.526 8.86117 10.8657 10.4215 9.50117 10.9738C9.17734 11.1063 8.8379 11.1718 8.49843 11.1718ZM7.43616 8.92967C7.67513 9.51627 8.34656 9.79763 8.92795 9.56242C9.21157 9.44631 9.43413 9.22743 9.55326 8.94604C9.67239 8.66464 9.67459 8.35349 9.55997 8.06914C9.3225 7.48254 8.6503 7.20118 8.06742 7.43789C7.48308 7.67459 7.19946 8.34307 7.43616 8.92967Z" fill="#6b7170"/>
</svg>
