<svg width="47" height="47" viewBox="0 0 47 47" fill="none" xmlns="http://www.w3.org/2000/svg">
<circle cx="23.5" cy="23.5" r="23" stroke="#E5E5E5"/>
<g clip-path="url(#clip0_4110_584)">
<path d="M11.7314 37H29.9952C30.4542 36.9995 30.8943 36.8169 31.2189 36.4923C31.5435 36.1677 31.7261 35.7277 31.7266 35.2686V11.7314C31.7261 11.2723 31.5435 10.8322 31.2189 10.5077C30.8943 10.1831 30.4542 10.0005 29.9952 10H15.8668C15.4176 10.0029 14.9865 10.1775 14.6617 10.4879L10.5261 14.4982C10.3609 14.6607 10.2294 14.8541 10.1391 15.0675C10.0489 15.2808 10.0016 15.5099 10 15.7415V35.2686C10.0005 35.7277 10.1831 36.1677 10.5077 36.4923C10.8322 36.8169 11.2723 36.9995 11.7314 37ZM10.7935 15.1789C10.8701 14.9861 15.0946 10.9452 15.2734 10.8077V14.4824C15.2732 14.6921 15.1897 14.8932 15.0414 15.0414C14.8932 15.1897 14.6921 15.2732 14.4824 15.2734H10.7419C10.7573 15.241 10.775 15.2102 10.7935 15.1789ZM10.6328 15.9062H14.4824C14.8599 15.9058 15.2218 15.7557 15.4887 15.4887C15.7557 15.2218 15.9058 14.8599 15.9062 14.4824V10.6328H29.9952C30.2864 10.6331 30.5657 10.749 30.7716 10.9549C30.9776 11.1609 31.0934 11.4401 31.0938 11.7314V35.2686C31.0934 35.5599 30.9776 35.8391 30.7716 36.0451C30.5657 36.251 30.2864 36.3669 29.9952 36.3672H11.7314C11.4401 36.3669 11.1609 36.251 10.9549 36.0451C10.749 35.8391 10.6331 35.5599 10.6328 35.2686V15.9062Z" fill="#06828E"/>
<path d="M20.8633 24.2383C21.4265 24.2383 21.9771 24.0713 22.4454 23.7584C22.9136 23.4455 23.2786 23.0007 23.4942 22.4804C23.7097 21.96 23.7661 21.3875 23.6562 20.8351C23.5463 20.2827 23.2751 19.7753 22.8769 19.377C22.4786 18.9788 21.9712 18.7076 21.4188 18.5977C20.8664 18.4878 20.2939 18.5442 19.7735 18.7597C19.2532 18.9753 18.8084 19.3403 18.4955 19.8086C18.1826 20.2768 18.0156 20.8274 18.0156 21.3906C18.0165 22.1456 18.3168 22.8694 18.8506 23.4033C19.3845 23.9372 20.1083 24.2374 20.8633 24.2383ZM20.8633 19.1758C21.3013 19.1758 21.7296 19.3057 22.0938 19.5491C22.458 19.7924 22.7419 20.1383 22.9095 20.543C23.0772 20.9478 23.121 21.3931 23.0356 21.8227C22.9501 22.2524 22.7392 22.647 22.4294 22.9568C22.1197 23.2665 21.725 23.4775 21.2954 23.5629C20.8657 23.6484 20.4204 23.6045 20.0157 23.4369C19.611 23.2692 19.2651 22.9854 19.0217 22.6211C18.7783 22.2569 18.6484 21.8287 18.6484 21.3906C18.6491 20.8034 18.8827 20.2405 19.2979 19.8252C19.7131 19.41 20.2761 19.1765 20.8633 19.1758Z" fill="#06828E"/>
<path d="M16.0678 22.7234L16.1883 22.7276C16.2896 23.0838 16.4316 23.4272 16.6114 23.7509L16.5296 23.8384C16.3834 23.994 16.3036 24.2005 16.3073 24.414C16.311 24.6275 16.3979 24.8311 16.5494 24.9815L17.2721 25.7042C17.4225 25.8557 17.6261 25.9425 17.8396 25.9462C18.0531 25.95 18.2596 25.8702 18.4151 25.724L18.5035 25.6411C18.8268 25.8215 19.1699 25.9638 19.5259 26.0653L19.5302 26.1857C19.5367 26.3993 19.6263 26.6018 19.78 26.7502C19.9336 26.8986 20.1392 26.9811 20.3528 26.9801H21.375C21.5886 26.9811 21.7942 26.8986 21.9479 26.7502C22.1016 26.6018 22.1912 26.3993 22.1977 26.1857L22.2019 26.0653C22.5581 25.9641 22.9015 25.8221 23.2252 25.6422L23.3127 25.724C23.4683 25.8703 23.6748 25.95 23.8883 25.9463C24.1018 25.9426 24.3054 25.8557 24.4558 25.7042L25.1786 24.9815C25.3301 24.831 25.4169 24.6274 25.4205 24.4139C25.4242 24.2005 25.3445 23.994 25.1983 23.8384L25.1156 23.75C25.2956 23.4266 25.4379 23.0835 25.5398 22.7276L25.6602 22.7234C25.8734 22.7165 26.0754 22.6268 26.2235 22.4733C26.3715 22.3198 26.4539 22.1146 26.4531 21.9014V20.8792C26.4541 20.6656 26.3716 20.4601 26.2232 20.3065C26.0749 20.1528 25.8724 20.0631 25.659 20.0565L25.5385 20.0523C25.4372 19.6961 25.2952 19.3528 25.1154 19.0291L25.1972 18.9415C25.3434 18.7859 25.4232 18.5794 25.4195 18.366C25.4158 18.1525 25.3289 17.9489 25.1774 17.7984L24.4549 17.0758C24.3045 16.9242 24.1008 16.8374 23.8873 16.8337C23.6738 16.83 23.4673 16.9097 23.3116 17.0559L23.2233 17.1388C22.8999 16.9586 22.5568 16.8162 22.2008 16.7146L22.1966 16.5942C22.1901 16.3807 22.1005 16.1781 21.9468 16.0297C21.7932 15.8813 21.5876 15.7988 21.374 15.7998H20.3522C20.1386 15.7988 19.933 15.8813 19.7793 16.0297C19.6257 16.1781 19.536 16.3807 19.5295 16.5942L19.5253 16.7146C19.1691 16.8159 18.8257 16.9579 18.5021 17.1378L18.4145 17.0559C18.259 16.9097 18.0524 16.8299 17.839 16.8336C17.6255 16.8373 17.4218 16.9242 17.2714 17.0758L16.5486 17.7984C16.3971 17.9489 16.3103 18.1525 16.3067 18.366C16.303 18.5795 16.3828 18.7859 16.5289 18.9415L16.6116 19.0299C16.4316 19.3534 16.2893 19.6964 16.1874 20.0523L16.067 20.0565C15.8536 20.0633 15.6513 20.153 15.5031 20.3067C15.3549 20.4603 15.2725 20.6657 15.2734 20.8792V21.9014C15.2727 22.1149 15.3553 22.3203 15.5036 22.4738C15.652 22.6273 15.8544 22.7169 16.0678 22.7234ZM15.9063 20.8792C15.9062 20.83 15.9253 20.7826 15.9595 20.7472C15.9937 20.7118 16.0404 20.691 16.0896 20.6893L16.4463 20.6769C16.5158 20.6745 16.5826 20.6492 16.6364 20.605C16.6901 20.5607 16.7277 20.5 16.7435 20.4322C16.8482 19.9799 17.0273 19.5481 17.2733 19.1544C17.3102 19.0953 17.3265 19.0257 17.3198 18.9564C17.3131 18.8871 17.2837 18.822 17.2362 18.7711L16.9922 18.5097C16.959 18.4738 16.941 18.4265 16.9418 18.3776C16.9427 18.3287 16.9624 18.282 16.9968 18.2473L17.7203 17.5238C17.7549 17.4887 17.8019 17.4686 17.8512 17.4677C17.9005 17.4669 17.9482 17.4853 17.984 17.5192L18.2437 17.7622C18.2946 17.8097 18.3598 17.8391 18.4291 17.8458C18.4984 17.8525 18.568 17.8362 18.6271 17.7993C19.021 17.5535 19.453 17.3748 19.9054 17.2705C19.9733 17.2548 20.034 17.2171 20.0783 17.1634C20.1226 17.1097 20.1479 17.0428 20.1503 16.9733L20.1626 16.6164C20.1643 16.5671 20.185 16.5205 20.2204 16.4863C20.2558 16.4521 20.3032 16.433 20.3524 16.433H21.3746C21.4238 16.433 21.4712 16.4521 21.5066 16.4863C21.542 16.5205 21.5627 16.5671 21.5644 16.6164L21.5769 16.973C21.5793 17.0426 21.6046 17.1094 21.6488 17.1631C21.6931 17.2169 21.7538 17.2545 21.8216 17.2703C22.2738 17.3751 22.7056 17.5543 23.0992 17.8003C23.1583 17.8373 23.228 17.8537 23.2973 17.8471C23.3667 17.8404 23.432 17.811 23.4829 17.7634L23.7443 17.5192C23.7803 17.4856 23.8279 17.4674 23.877 17.4682C23.9262 17.4691 23.9732 17.489 24.0079 17.5238L24.7298 18.2473C24.7646 18.2821 24.7846 18.3291 24.7854 18.3783C24.7863 18.4276 24.768 18.4752 24.7344 18.5112L24.4914 18.7707C24.4439 18.8216 24.4145 18.8867 24.4078 18.956C24.4011 19.0253 24.4175 19.0949 24.4543 19.1539C24.7001 19.5478 24.8788 19.9798 24.9831 20.4322C24.9988 20.5 25.0364 20.5608 25.0902 20.6051C25.1439 20.6494 25.2107 20.6747 25.2803 20.6771L25.637 20.6896C25.6863 20.6912 25.7329 20.7119 25.7672 20.7473C25.8014 20.7828 25.8206 20.8301 25.8205 20.8794V21.9016C25.8206 21.9508 25.8015 21.9982 25.7673 22.0336C25.7331 22.069 25.6864 22.0898 25.6372 22.0914L25.2805 22.1039C25.211 22.1063 25.1442 22.1316 25.0904 22.1758C25.0367 22.2201 24.9991 22.2808 24.9833 22.3486C24.8785 22.8008 24.6993 23.2326 24.4532 23.6262C24.4164 23.6853 24.4001 23.7549 24.4068 23.8242C24.4135 23.8935 24.4429 23.9586 24.4904 24.0095L24.7344 24.2709C24.7676 24.3068 24.7856 24.3541 24.7847 24.403C24.7839 24.4519 24.7642 24.4985 24.7298 24.5333L24.0063 25.2568C23.9715 25.2916 23.9245 25.3116 23.8753 25.3125C23.826 25.3133 23.7784 25.295 23.7424 25.2614L23.4829 25.0184C23.432 24.9709 23.3669 24.9415 23.2976 24.9348C23.2283 24.9281 23.1587 24.9445 23.0996 24.9813C22.7057 25.227 22.2738 25.4057 21.8214 25.5101C21.7535 25.5258 21.6928 25.5634 21.6485 25.6172C21.6042 25.6709 21.5789 25.7377 21.5765 25.8073L21.564 26.1642C21.5623 26.2134 21.5416 26.2601 21.5062 26.2943C21.4707 26.3285 21.4234 26.3476 21.3742 26.3475H20.3522C20.303 26.3476 20.2556 26.3285 20.2202 26.2943C20.1848 26.2601 20.164 26.2134 20.1623 26.1642L20.1503 25.8073C20.1479 25.7377 20.1226 25.6709 20.0783 25.6172C20.034 25.5634 19.9733 25.5258 19.9054 25.5101C19.453 25.4053 19.0212 25.2263 18.6274 24.9802C18.5683 24.9433 18.4986 24.9268 18.4292 24.9335C18.3599 24.9402 18.2946 24.9696 18.2437 25.0171L17.9823 25.2614C17.9463 25.295 17.8987 25.3132 17.8495 25.3123C17.8003 25.3115 17.7534 25.2916 17.7186 25.2568L16.9968 24.5333C16.962 24.4985 16.942 24.4515 16.9411 24.4023C16.9403 24.353 16.9586 24.3054 16.9922 24.2694L17.2352 24.0099C17.2827 23.959 17.312 23.8939 17.3187 23.8246C17.3255 23.7553 17.3091 23.6857 17.2723 23.6266C17.0266 23.2327 16.8479 22.8008 16.7435 22.3484C16.7278 22.2805 16.6901 22.2198 16.6364 22.1755C16.5827 22.1312 16.5158 22.1059 16.4463 22.1035L16.0896 22.091C16.0403 22.0894 15.9936 22.0687 15.9594 22.0332C15.9252 21.9978 15.906 21.9505 15.906 21.9012L15.9063 20.8792Z" fill="#06828E"/>
<path d="M14.1133 30.25H27.6133C27.6972 30.25 27.7777 30.2167 27.837 30.1573C27.8964 30.098 27.9297 30.0175 27.9297 29.9336C27.9297 29.8497 27.8964 29.7692 27.837 29.7099C27.7777 29.6505 27.6972 29.6172 27.6133 29.6172H14.1133C14.0294 29.6172 13.9489 29.6505 13.8895 29.7099C13.8302 29.7692 13.7969 29.8497 13.7969 29.9336C13.7969 30.0175 13.8302 30.098 13.8895 30.1573C13.9489 30.2167 14.0294 30.25 14.1133 30.25Z" fill="#06828E"/>
<path d="M14.1133 32.9922H27.6133C27.6972 32.9922 27.7777 32.9589 27.837 32.8995C27.8964 32.8402 27.9297 32.7597 27.9297 32.6758C27.9297 32.5919 27.8964 32.5114 27.837 32.452C27.7777 32.3927 27.6972 32.3594 27.6133 32.3594H14.1133C14.0294 32.3594 13.9489 32.3927 13.8895 32.452C13.8302 32.5114 13.7969 32.5919 13.7969 32.6758C13.7969 32.7597 13.8302 32.8402 13.8895 32.8995C13.9489 32.9589 14.0294 32.9922 14.1133 32.9922Z" fill="#06828E"/>
<path d="M35.1016 10C34.5982 10.0006 34.1157 10.2008 33.7598 10.5567C33.4039 10.9126 33.2037 11.3951 33.2031 11.8984V34.1523C33.2032 34.2045 33.216 34.2558 33.2407 34.3017L34.4508 36.5606C34.515 36.677 34.6092 36.7741 34.7237 36.8417C34.8382 36.9092 34.9686 36.9449 35.1016 36.9449C35.2345 36.9449 35.365 36.9092 35.4794 36.8417C35.5939 36.7741 35.6881 36.677 35.7523 36.5606L36.9625 34.3017C36.9871 34.2558 37 34.2045 37 34.1523V11.8984C36.9994 11.3951 36.7992 10.9126 36.4433 10.5567C36.0874 10.2008 35.6049 10.0006 35.1016 10ZM35.1946 36.2617C35.1856 36.2785 35.1722 36.2926 35.1558 36.3023C35.1394 36.3121 35.1207 36.3173 35.1017 36.3173C35.0826 36.3173 35.0639 36.3121 35.0475 36.3023C35.0312 36.2926 35.0178 36.2785 35.0087 36.2617L34.0479 34.4688H36.1562L35.1946 36.2617ZM36.3672 33.8359H33.8359V15.0625H36.3672V33.8359ZM36.3672 14.4297H33.8359V13.7969H36.3672V14.4297ZM36.3672 13.1641H33.8359V11.8984C33.8359 11.5628 33.9693 11.2409 34.2066 11.0035C34.444 10.7662 34.7659 10.6328 35.1016 10.6328C35.4372 10.6328 35.7591 10.7662 35.9965 11.0035C36.2338 11.2409 36.3672 11.5628 36.3672 11.8984V13.1641Z" fill="#06828E"/>
</g>
<defs>
<clipPath id="clip0_4110_584">
<rect width="27" height="27" fill="white" transform="translate(10 10)"/>
</clipPath>
</defs>
</svg>
