<svg width="47" height="47" viewBox="0 0 47 47" fill="none" xmlns="http://www.w3.org/2000/svg">
<circle cx="23.5" cy="23.5" r="23" stroke="#E5E5E5"/>
<path d="M18.332 29.6338H17.4987C17.2686 29.6338 17.082 29.8278 17.082 30.0671C17.082 30.3064 17.2686 30.5005 17.4987 30.5005H18.332C18.5621 30.5005 18.7487 30.3064 18.7487 30.0671C18.7487 29.8278 18.5621 29.6338 18.332 29.6338Z" fill="#06828E"/>
<path d="M29.9987 29.6338H19.9987C19.7686 29.6338 19.582 29.8278 19.582 30.0671C19.582 30.3064 19.7686 30.5005 19.9987 30.5005H29.9987C30.2288 30.5005 30.4154 30.3064 30.4154 30.0671C30.4154 29.8278 30.2288 29.6338 29.9987 29.6338Z" fill="#06828E"/>
<path d="M18.332 27.0332H17.4987C17.2686 27.0332 17.082 27.2272 17.082 27.4665C17.082 27.7058 17.2686 27.8999 17.4987 27.8999H18.332C18.5621 27.8999 18.7487 27.7058 18.7487 27.4665C18.7487 27.2272 18.5621 27.0332 18.332 27.0332Z" fill="#06828E"/>
<path d="M29.9987 27.0332H19.9987C19.7686 27.0332 19.582 27.2272 19.582 27.4665C19.582 27.7058 19.7686 27.8999 19.9987 27.8999H29.9987C30.2288 27.8999 30.4154 27.7058 30.4154 27.4665C30.4154 27.2272 30.2288 27.0332 29.9987 27.0332Z" fill="#06828E"/>
<path d="M18.332 24.4336H17.4987C17.2686 24.4336 17.082 24.6276 17.082 24.8669C17.082 25.1062 17.2686 25.3003 17.4987 25.3003H18.332C18.5621 25.3003 18.7487 25.1062 18.7487 24.8669C18.7487 24.6276 18.5621 24.4336 18.332 24.4336Z" fill="#06828E"/>
<path d="M29.9987 24.4336H19.9987C19.7686 24.4336 19.582 24.6276 19.582 24.8669C19.582 25.1062 19.7686 25.3003 19.9987 25.3003H29.9987C30.2288 25.3003 30.4154 25.1062 30.4154 24.8669C30.4154 24.6276 30.2288 24.4336 29.9987 24.4336Z" fill="#06828E"/>
<path d="M18.332 21.833H17.4987C17.2686 21.833 17.082 22.027 17.082 22.2663C17.082 22.5056 17.2686 22.6997 17.4987 22.6997H18.332C18.5621 22.6997 18.7487 22.5056 18.7487 22.2663C18.7487 22.027 18.5621 21.833 18.332 21.833Z" fill="#06828E"/>
<path d="M29.9987 21.833H19.9987C19.7686 21.833 19.582 22.027 19.582 22.2663C19.582 22.5056 19.7686 22.6997 19.9987 22.6997H29.9987C30.2288 22.6997 30.4154 22.5056 30.4154 22.2663C30.4154 22.027 30.2288 21.833 29.9987 21.833Z" fill="#06828E"/>
<path d="M18.332 19.2334H17.4987C17.2686 19.2334 17.082 19.4274 17.082 19.6667C17.082 19.906 17.2686 20.1001 17.4987 20.1001H18.332C18.5621 20.1001 18.7487 19.906 18.7487 19.6667C18.7487 19.4274 18.5621 19.2334 18.332 19.2334Z" fill="#06828E"/>
<path d="M29.9987 19.2334H19.9987C19.7686 19.2334 19.582 19.4274 19.582 19.6667C19.582 19.906 19.7686 20.1001 19.9987 20.1001H29.9987C30.2288 20.1001 30.4154 19.906 30.4154 19.6667C30.4154 19.4274 30.2288 19.2334 29.9987 19.2334Z" fill="#06828E"/>
<path d="M32.9099 17.4727C32.9079 17.4347 32.9007 17.3972 32.8887 17.3613C32.8841 17.3475 32.8808 17.334 32.8749 17.3206C32.8547 17.2735 32.8265 17.2305 32.7916 17.1936L26.9583 11.127C26.9229 11.0907 26.8815 11.0614 26.8362 11.0403C26.8233 11.0342 26.8104 11.0308 26.7974 11.026C26.7626 11.0135 26.7263 11.006 26.6895 11.0035C26.6824 11.0048 26.6745 11 26.6654 11H14.9987C14.7686 11 14.582 11.194 14.582 11.4333V12.7333H12.4987C12.2686 12.7333 12.082 12.9274 12.082 13.1667V36.5667C12.082 36.806 12.2686 37 12.4987 37H29.9987C30.2288 37 30.4154 36.806 30.4154 36.5667V34.4H32.4987C32.7288 34.4 32.9154 34.206 32.9154 33.9667V17.5C32.9154 17.4905 32.9108 17.4822 32.9099 17.4727ZM27.082 12.4794L31.4929 17.0667H27.082V12.4794ZM29.582 36.1333H12.9154V13.6H14.582V33.9667C14.582 34.206 14.7686 34.4 14.9987 34.4H29.582V36.1333ZM32.082 33.5333H15.4154V11.8667H26.2487V17.5C26.2487 17.7393 26.4353 17.9333 26.6654 17.9333H32.082V33.5333Z" fill="#06828E"/>
<path d="M19.9987 14.9004H17.4987C17.2686 14.9004 17.082 15.0944 17.082 15.3337V17.9337C17.082 18.173 17.2686 18.3671 17.4987 18.3671H19.9987C20.2288 18.3671 20.4154 18.173 20.4154 17.9337V15.3337C20.4154 15.0944 20.2288 14.9004 19.9987 14.9004ZM19.582 17.5004H17.9154V15.7671H19.582V17.5004Z" fill="#06828E"/>
</svg>
