<svg width="16" height="14" viewBox="0 0 16 14" fill="none" xmlns="http://www.w3.org/2000/svg">
<path d="M12.4016 0.683594H3.59838C1.61422 0.683594 0 2.29784 0 4.28197V9.71875C0 11.7029 1.61422 13.3171 3.59838 13.3171H12.4016C14.3858 13.3171 16 11.7029 16 9.71875V4.28197C16 2.29784 14.3858 0.683594 12.4016 0.683594ZM9.79603 8.69166C8.8635 8.69166 8.10544 7.93359 8.10544 7.00037C8.10544 6.06856 8.8635 5.3105 9.79603 5.3105H14.5651V8.69169H9.79603V8.69166ZM12.4016 11.8823H3.59838C2.40522 11.8823 1.43488 10.9112 1.43488 9.71878V4.28197C1.43488 3.08953 2.40522 2.11847 3.59838 2.11847H12.4016C13.4555 2.11847 14.333 2.87687 14.524 3.87562H9.79603C8.0725 3.87562 6.67056 5.27687 6.67056 7.00037C6.67056 8.72388 8.0725 10.1265 9.79603 10.1265H14.5239C14.3323 11.1246 13.4551 11.8823 12.4016 11.8823Z" fill="#6B7170"/>
<path d="M10.4457 6.2832H10.1549C9.75838 6.2832 9.4375 6.60408 9.4375 7.00064C9.4375 7.3972 9.75838 7.71808 10.1549 7.71808H10.4457C10.8422 7.71808 11.1631 7.3972 11.1631 7.00064C11.1631 6.60408 10.8422 6.2832 10.4457 6.2832Z" fill="#6B7170"/>
</svg>
