<svg width="34" height="34" viewBox="0 0 34 34" fill="none" xmlns="http://www.w3.org/2000/svg">
<path d="M17 34C26.3888 34 34 26.3888 34 17C34 7.61116 26.3888 0 17 0C7.61116 0 0 7.61116 0 17C0 26.3888 7.61116 34 17 34Z" fill="#5CD8E4" fill-opacity="0.7"/>
<path fill-rule="evenodd" clip-rule="evenodd" d="M7.21074 17.0292C7.21074 16.7304 7.46968 16.4715 7.78836 16.4715H26.1926C26.5113 16.4715 26.7702 16.7304 26.7702 17.0292V22.0485C26.7702 22.3672 26.5113 22.6262 26.1926 22.6262H25.117V21.1522C25.117 20.8734 24.8979 20.6543 24.6191 20.6543C24.3402 20.6543 24.1012 20.8734 24.1012 21.1522V22.6262H22.5874V19.9571C22.5874 19.6783 22.3484 19.4592 22.0696 19.4592C21.7907 19.4592 21.5716 19.6783 21.5716 19.9571V22.6262H20.0379V21.1522C20.0379 20.8734 19.8188 20.6543 19.54 20.6543C19.2611 20.6543 19.0221 20.8734 19.0221 21.1522V22.6262H17.5083V19.9571C17.5083 19.6783 17.2693 19.4592 16.9905 19.4592C16.7116 19.4592 16.4925 19.6783 16.4925 19.9571V22.6262H14.9588V21.1522C14.9588 20.8734 14.7397 20.6543 14.4609 20.6543C14.182 20.6543 13.943 20.8734 13.943 21.1522V22.6262H12.4293V19.9571C12.4293 19.6783 12.1902 19.4592 11.9114 19.4592C11.6325 19.4592 11.4134 19.6783 11.4134 19.9571V22.6262H9.87975V21.1522C9.87975 20.8734 9.66066 20.6543 9.3818 20.6543C9.10295 20.6543 8.86394 20.8734 8.86394 21.1522V22.6262H7.78836C7.46968 22.6262 7.21074 22.3672 7.21074 22.0485V17.0292ZM10.4972 14.3602C10.7362 14.4996 11.035 14.4399 11.1943 14.2008C11.3338 13.9618 11.274 13.6431 11.035 13.5037L10.0989 12.9062H23.902L22.9459 13.5037C22.7269 13.6431 22.6472 13.9618 22.8065 14.2008C22.9459 14.4399 23.2646 14.4996 23.5037 14.3602L25.854 12.8265C26.0332 12.7468 26.1129 12.5676 26.1129 12.3883C26.1129 12.1891 26.0133 12.0298 25.854 11.9501L23.5037 10.4363C23.2646 10.277 22.9459 10.3567 22.8065 10.5758C22.6472 10.8148 22.7269 11.1335 22.9459 11.2729L23.902 11.8904H10.0989L11.035 11.2729C11.274 11.1335 11.3338 10.8148 11.1943 10.5758C11.035 10.3567 10.7362 10.277 10.4972 10.4363L8.14689 11.9501C7.96763 12.0298 7.88795 12.1891 7.86804 12.3883C7.86804 12.5676 7.96763 12.7269 8.12697 12.8265L10.4972 14.3602ZM27.786 22.0485V17.0292C27.786 16.1727 27.069 15.4557 26.1926 15.4557H7.78836C6.91197 15.4557 6.21484 16.1727 6.21484 17.0292V22.0485C6.21484 22.9249 6.91197 23.642 7.78836 23.642H26.1926C27.069 23.642 27.786 22.9249 27.786 22.0485Z" fill="#0A4C53"/>
</svg>
