<svg width="28" height="28" viewBox="0 0 28 28" fill="none" xmlns="http://www.w3.org/2000/svg">
<circle cx="14" cy="14" r="14" fill="#06828E"/>
<g clip-path="url(#clip0_2798_131)">
<path d="M9.33332 17.9372H8.75V7.14551H15.75V10.3538H15.1667V7.72883H9.33332V17.9372Z" fill="white"/>
<path d="M19.8346 17.9368H19.2513V13.3898L17.6734 11.8118H13.1263V17.9368H12.543V11.2285H17.9125L19.8346 13.1506V17.9368Z" fill="white"/>
<path d="M19.8333 20.8542H8.16667C7.52207 20.8542 7 20.3321 7 19.6875V18.8125H21V19.6875C21 20.3321 20.4779 20.8542 19.8333 20.8542ZM7.58332 19.3959V19.6875C7.58332 20.0084 7.84583 20.2708 8.16664 20.2708H19.8333C20.1541 20.2708 20.4166 20.0083 20.4166 19.6875V19.3959H7.58332Z" fill="white"/>
<path d="M10.207 8.60352H11.3737V9.18684H10.207V8.60352Z" fill="white"/>
<path d="M10.207 10.0625H11.3737V10.6458H10.207V10.0625Z" fill="white"/>
<path d="M10.207 11.5205H11.3737V12.1038H10.207V11.5205Z" fill="white"/>
<path d="M10.207 12.9785H11.3737V13.5618H10.207V12.9785Z" fill="white"/>
<path d="M10.207 14.4375H11.3737V15.0208H10.207V14.4375Z" fill="white"/>
<path d="M10.207 15.8955H11.3737V16.4788H10.207V15.8955Z" fill="white"/>
<path d="M10.207 17.3535H11.3737V17.9368H10.207V17.3535Z" fill="white"/>
<path d="M16.625 12.9785H19.25V13.5618H16.625V12.9785Z" fill="white"/>
<path d="M16.625 14.4375H19.25V15.0208H16.625V14.4375Z" fill="white"/>
<path d="M16.625 15.8955H19.25V16.4788H16.625V15.8955Z" fill="white"/>
<path d="M16.625 17.3535H19.25V17.9368H16.625V17.3535Z" fill="white"/>
</g>
<defs>
<clipPath id="clip0_2798_131">
<rect width="14" height="14" fill="white" transform="translate(7 7)"/>
</clipPath>
</defs>
</svg>
