<svg width="27" height="27" viewBox="0 0 27 27" fill="none" xmlns="http://www.w3.org/2000/svg">
<circle cx="13.5" cy="13.5" r="13.5" fill="#06828E"/>
<g clip-path="url(#clip0_2797_129)">
<path d="M8.16431 6.41016V19.5898C8.16431 19.8164 8.33483 20 8.54517 20H17.6848C17.8951 20 18.0657 19.8164 18.0657 19.5898V8.62607C18.0657 8.51729 18.0255 8.41298 17.9541 8.33609L15.8968 6.12018C15.8253 6.04323 15.7285 6 15.6274 6H8.54517C8.33483 6 8.16431 6.18364 8.16431 6.41016ZM16.7651 8.21558H16.0083V7.40046L16.7651 8.21558ZM8.92603 6.82031H15.2466V8.62574C15.2466 8.85225 15.4171 9.03589 15.6274 9.03589H17.3039V19.1797H8.92603V6.82031Z" fill="white"/>
<path d="M10.2209 13.0664H16.0083C16.2186 13.0664 16.3891 12.8828 16.3891 12.6562C16.3891 12.4297 16.2186 12.2461 16.0083 12.2461H10.2209C10.0106 12.2461 9.84009 12.4297 9.84009 12.6562C9.84009 12.8828 10.0106 13.0664 10.2209 13.0664Z" fill="white"/>
<path d="M16.014 13.8594H13.9827C13.7723 13.8594 13.6018 14.043 13.6018 14.2695C13.6018 14.496 13.7723 14.6797 13.9827 14.6797H16.014C16.2244 14.6797 16.3949 14.496 16.3949 14.2695C16.3949 14.043 16.2244 13.8594 16.014 13.8594Z" fill="white"/>
<path d="M10.2209 14.6836H12.2523C12.4627 14.6836 12.6332 14.5 12.6332 14.2734C12.6332 14.0469 12.4627 13.8633 12.2523 13.8633H10.2209C10.0106 13.8633 9.84009 14.0469 9.84009 14.2734C9.84009 14.5 10.0106 14.6836 10.2209 14.6836Z" fill="white"/>
<path d="M16.014 10.6025H13.9827C13.7723 10.6025 13.6018 10.7862 13.6018 11.0127C13.6018 11.2392 13.7723 11.4229 13.9827 11.4229H16.014C16.2244 11.4229 16.3949 11.2392 16.3949 11.0127C16.3949 10.7862 16.2244 10.6025 16.014 10.6025Z" fill="white"/>
<path d="M14.0726 9.03613H10.2131C10.0028 9.03613 9.83228 8.85249 9.83228 8.62598C9.83228 8.39946 10.0028 8.21582 10.2131 8.21582H14.0726C14.283 8.21582 14.4535 8.39946 14.4535 8.62598C14.4535 8.85249 14.283 9.03613 14.0726 9.03613Z" fill="white"/>
<path d="M10.2209 11.427H12.2523C12.4627 11.427 12.6332 11.2434 12.6332 11.0168C12.6332 10.7903 12.4627 10.6067 12.2523 10.6067H10.2209C10.0106 10.6067 9.84009 10.7903 9.84009 11.0168C9.84009 11.2434 10.0106 11.427 10.2209 11.427Z" fill="white"/>
<path d="M16.0083 17.1345H10.2209C10.0106 17.1345 9.84009 17.3182 9.84009 17.5447C9.84009 17.7712 10.0106 17.9548 10.2209 17.9548H16.0083C16.2186 17.9548 16.3891 17.7712 16.3891 17.5447C16.3891 17.3182 16.2186 17.1345 16.0083 17.1345Z" fill="white"/>
<path d="M20.2073 16.5224V12.0347C20.2776 12.0982 20.3645 12.1303 20.4515 12.1303C20.5459 12.1303 20.6404 12.0928 20.714 12.0172C20.8664 11.8611 20.8724 11.6015 20.7274 11.4374L20.1024 10.73C20.0305 10.6486 19.9307 10.6025 19.8265 10.6025C19.7222 10.6025 19.6224 10.6486 19.5506 10.73L18.9255 11.4374C18.7805 11.6015 18.7865 11.8611 18.9389 12.0172C19.0806 12.1625 19.2991 12.1669 19.4456 12.0346V16.5224C19.2991 16.3902 19.0806 16.3945 18.9389 16.5399C18.7865 16.696 18.7805 16.9556 18.9255 17.1197L19.5506 17.8271C19.6224 17.9085 19.7222 17.9545 19.8265 17.9545C19.9307 17.9545 20.0305 17.9085 20.1024 17.8271L20.7274 17.1197C20.8724 16.9556 20.8664 16.696 20.714 16.5399C20.5723 16.3946 20.3538 16.3902 20.2073 16.5224Z" fill="white"/>
<path d="M16.0083 15.5156H10.2209C10.0106 15.5156 9.84009 15.6993 9.84009 15.9258C9.84009 16.1523 10.0106 16.3359 10.2209 16.3359H16.0083C16.2186 16.3359 16.3891 16.1523 16.3891 15.9258C16.3891 15.6993 16.2186 15.5156 16.0083 15.5156Z" fill="white"/>
</g>
<defs>
<clipPath id="clip0_2797_129">
<rect width="13" height="14" fill="white" transform="translate(8 6)"/>
</clipPath>
</defs>
</svg>
