<svg width="28" height="28" viewBox="0 0 28 28" fill="none" xmlns="http://www.w3.org/2000/svg">
<circle cx="14" cy="14" r="14" fill="#06828E"/>
<g clip-path="url(#clip0_2798_130)">
<g clip-path="url(#clip1_2798_130)">
<path d="M17.7027 7.82324H8.23047V20.9997H17.7027C18.5859 20.9997 19.3045 20.2811 19.3045 19.3979V9.42506C19.3045 8.54182 18.5859 7.82324 17.7027 7.82324ZM9.00253 8.5953H9.77579V20.2277H9.00253V8.5953ZM13.6648 15.1452C12.8665 14.7955 12.3507 14.0079 12.3507 13.1388C12.3507 12.6645 12.5006 12.2129 12.7841 11.8329C12.9473 11.6142 13.1514 11.4272 13.3814 11.2828V13.2672H15.6988V11.2828C15.9288 11.4272 16.133 11.6142 16.2962 11.8329C16.5797 12.2129 16.7295 12.6645 16.7295 13.1388C16.7295 14.0079 16.2136 14.7955 15.4154 15.1452L15.1843 15.2466V20.2277H13.896V15.2466L13.6648 15.1452ZM18.5324 19.3979C18.5324 19.8554 18.1602 20.2277 17.7027 20.2277H15.9564V15.7391C16.9029 15.2227 17.5015 14.2282 17.5015 13.1388C17.5015 12.4968 17.2987 11.8856 16.9149 11.3712C16.5445 10.8745 16.0167 10.4989 15.4288 10.3136L14.9268 10.1554V12.4951H14.1535V10.1554L13.6515 10.3136C13.0637 10.4989 12.5359 10.8745 12.1654 11.3712C11.7815 11.8856 11.5788 12.4968 11.5788 13.1388C11.5788 14.2282 12.1774 15.2227 13.1239 15.7391V20.2277H10.5479V8.5953H17.7027C18.1602 8.5953 18.5324 8.96756 18.5324 9.42506V19.3979Z" fill="white"/>
</g>
</g>
<defs>
<clipPath id="clip0_2798_130">
<rect width="14" height="14" fill="white" transform="translate(8 7)"/>
</clipPath>
<clipPath id="clip1_2798_130">
<rect width="13.1765" height="13.1765" fill="white" transform="translate(7.17578 7.82324)"/>
</clipPath>
</defs>
</svg>
