<svg width="15" height="17" viewBox="0 0 15 17" fill="none" xmlns="http://www.w3.org/2000/svg">
<path d="M10.9989 17H4.00116C2.25398 17 0.832092 15.5781 0.832092 13.8317V3.16834C0.832059 1.42189 2.25395 0 4.00116 0H9.31795C10.1621 0 10.9855 0.345412 11.5773 0.94692L13.3305 3.3321C13.8449 3.84426 14.168 4.6319 14.168 5.46865V13.8317C14.168 15.5781 12.7461 17 10.9989 17ZM4.00116 1.52462C3.09445 1.52462 2.35671 2.26163 2.35671 3.16834V13.8317C2.35671 14.7384 3.09445 15.4754 4.00116 15.4754H10.9989C11.9056 15.4754 12.6433 14.7384 12.6433 13.8317V5.46865C12.6433 5.03539 12.4758 4.62596 12.1714 4.31627L10.4182 1.93109C10.183 1.70329 9.75566 1.52462 9.31791 1.52462H4.00116Z" fill="#6B7170"/>
<path d="M9.59343 6.0256H5.403C4.98165 6.0256 4.64069 5.68464 4.64069 5.26329C4.64069 4.84194 4.98165 4.50098 5.403 4.50098H9.59343C10.0148 4.50098 10.3557 4.84194 10.3557 5.26329C10.3557 5.68467 10.0148 6.0256 9.59343 6.0256Z" fill="#6B7170"/>
<path d="M9.59343 9.49923H5.403C4.98165 9.49923 4.64069 9.15827 4.64069 8.73692C4.64069 8.31557 4.98165 7.97461 5.403 7.97461H9.59343C10.0148 7.97461 10.3557 8.31557 10.3557 8.73692C10.3557 9.15827 10.0148 9.49923 9.59343 9.49923Z" fill="#6B7170"/>
<path d="M9.59343 12.9709H5.403C4.98165 12.9709 4.64069 12.6299 4.64069 12.2086C4.64069 11.7873 4.98165 11.4463 5.403 11.4463H9.59343C10.0148 11.4463 10.3557 11.7873 10.3557 12.2086C10.3557 12.6299 10.0148 12.9709 9.59343 12.9709Z" fill="#6B7170"/>
</svg>
