<svg width="42" height="42" viewBox="0 0 42 42" fill="none" xmlns="http://www.w3.org/2000/svg">
<path d="M21 42C32.598 42 42 32.598 42 21C42 9.40202 32.598 0 21 0C9.40202 0 0 9.40202 0 21C0 32.598 9.40202 42 21 42Z" fill="#00B0C1" fill-opacity="0.1"/>
<path d="M21 38C30.3888 38 38 30.3888 38 21C38 11.6112 30.3888 4 21 4C11.6112 4 4 11.6112 4 21C4 30.3888 11.6112 38 21 38Z" fill="#5CD8E4" fill-opacity="0.7"/>
<path fill-rule="evenodd" clip-rule="evenodd" d="M11.2107 21.0292C11.2107 20.7304 11.4697 20.4715 11.7884 20.4715H30.1926C30.5113 20.4715 30.7702 20.7304 30.7702 21.0292V26.0485C30.7702 26.3672 30.5113 26.6262 30.1926 26.6262H29.117V25.1522C29.117 24.8734 28.8979 24.6543 28.6191 24.6543C28.3402 24.6543 28.1012 24.8734 28.1012 25.1522V26.6262H26.5874V23.9571C26.5874 23.6783 26.3484 23.4592 26.0696 23.4592C25.7907 23.4592 25.5716 23.6783 25.5716 23.9571V26.6262H24.0379V25.1522C24.0379 24.8734 23.8188 24.6543 23.54 24.6543C23.2611 24.6543 23.0221 24.8734 23.0221 25.1522V26.6262H21.5083V23.9571C21.5083 23.6783 21.2693 23.4592 20.9905 23.4592C20.7116 23.4592 20.4925 23.6783 20.4925 23.9571V26.6262H18.9588V25.1522C18.9588 24.8734 18.7397 24.6543 18.4609 24.6543C18.182 24.6543 17.943 24.8734 17.943 25.1522V26.6262H16.4293V23.9571C16.4293 23.6783 16.1902 23.4592 15.9114 23.4592C15.6325 23.4592 15.4134 23.6783 15.4134 23.9571V26.6262H13.8798V25.1522C13.8798 24.8734 13.6607 24.6543 13.3818 24.6543C13.103 24.6543 12.8639 24.8734 12.8639 25.1522V26.6262H11.7884C11.4697 26.6262 11.2107 26.3672 11.2107 26.0485V21.0292ZM14.4972 18.3602C14.7362 18.4996 15.035 18.4399 15.1943 18.2008C15.3338 17.9618 15.274 17.6431 15.035 17.5037L14.0989 16.9062H27.902L26.9459 17.5037C26.7269 17.6431 26.6472 17.9618 26.8065 18.2008C26.9459 18.4399 27.2646 18.4996 27.5037 18.3602L29.854 16.8265C30.0332 16.7468 30.1129 16.5676 30.1129 16.3883C30.1129 16.1891 30.0133 16.0298 29.854 15.9501L27.5037 14.4363C27.2646 14.277 26.9459 14.3567 26.8065 14.5758C26.6472 14.8148 26.7269 15.1335 26.9459 15.2729L27.902 15.8904H14.0989L15.035 15.2729C15.274 15.1335 15.3338 14.8148 15.1943 14.5758C15.035 14.3567 14.7362 14.277 14.4972 14.4363L12.1469 15.9501C11.9676 16.0298 11.888 16.1891 11.868 16.3883C11.868 16.5676 11.9676 16.7269 12.127 16.8265L14.4972 18.3602ZM31.786 26.0485V21.0292C31.786 20.1727 31.069 19.4557 30.1926 19.4557H11.7884C10.912 19.4557 10.2148 20.1727 10.2148 21.0292V26.0485C10.2148 26.9249 10.912 27.642 11.7884 27.642H30.1926C31.069 27.642 31.786 26.9249 31.786 26.0485Z" fill="#0A4C53"/>
</svg>
