<svg width="47" height="47" viewBox="0 0 47 47" fill="none" xmlns="http://www.w3.org/2000/svg">
<circle cx="23.5" cy="23.5" r="23" stroke="#E5E5E5"/>
<g clip-path="url(#clip0_1539_2296)">
<g clip-path="url(#clip1_1539_2296)">
<path d="M24.4295 25.4886C26.9504 25.4886 28.9941 23.4449 28.9941 20.924C28.9941 18.403 26.9504 16.3594 24.4295 16.3594H20.4735C20.1374 16.3594 19.8649 16.6319 19.8649 16.968V24.2713H18.6477C18.3115 24.2713 18.0391 24.5438 18.0391 24.88C18.0391 25.2161 18.3115 25.4886 18.6477 25.4886H19.8649V26.7058H18.6477C18.3115 26.7058 18.0391 26.9783 18.0391 27.3144C18.0391 27.6505 18.3115 27.923 18.6477 27.923H19.8649V29.7489C19.8649 30.085 20.1374 30.3575 20.4735 30.3575C20.8097 30.3575 21.0821 30.085 21.0821 29.7489V27.923H25.6467C25.9829 27.923 26.2553 27.6505 26.2553 27.3144C26.2553 26.9783 25.9829 26.7058 25.6467 26.7058H21.0821V25.4886H24.4295ZM21.0821 17.5766H24.4295C26.2782 17.5766 27.7769 19.0752 27.7769 20.924C27.7769 22.7727 26.2782 24.2713 24.4295 24.2713H21.0821V17.5766Z" fill="#06828E"/>
<path d="M23.5781 38.9999C14.9732 38.9986 7.99866 32.022 8 23.4171C8.00061 19.2862 9.64161 15.3248 12.5622 12.4036C18.7351 6.40861 28.5991 6.55279 34.594 12.7256C40.4654 18.7713 40.4654 28.3898 34.594 34.4354C31.679 37.3669 27.7123 39.0105 23.5781 38.9999ZM23.5781 9.05613C15.6582 9.05613 9.21485 15.4995 9.21485 23.4194C9.21485 31.3393 15.6582 37.7827 23.5781 37.7827C31.498 37.7827 37.9414 31.3393 37.9414 23.4194C37.9414 15.4995 31.498 9.05613 23.5781 9.05613Z" fill="#06828E"/>
<path d="M23.5769 36.2504C16.5024 36.2504 10.7461 30.4942 10.7461 23.4196C10.7461 16.3451 16.5024 10.5889 23.5769 10.5889C30.6514 10.5889 36.4076 16.3451 36.4076 23.4196C36.4076 30.4942 30.6514 36.2504 23.5769 36.2504ZM23.5769 11.8061C17.173 11.8061 11.9633 17.0158 11.9633 23.4196C11.9633 29.8235 17.173 35.0332 23.5769 35.0332C29.9807 35.0332 35.1904 29.8235 35.1904 23.4196C35.1904 17.0158 29.9807 11.8061 23.5769 11.8061Z" fill="#06828E"/>
</g>
</g>
<defs>
<clipPath id="clip0_1539_2296">
<rect width="31" height="31" fill="white" transform="translate(8 8)"/>
</clipPath>
<clipPath id="clip1_1539_2296">
<rect width="31" height="31" fill="white" transform="translate(8 8)"/>
</clipPath>
</defs>
</svg>
