<svg width="42" height="42" viewBox="0 0 42 42" fill="none" xmlns="http://www.w3.org/2000/svg">
<path d="M21 42C32.598 42 42 32.598 42 21C42 9.40202 32.598 0 21 0C9.40202 0 0 9.40202 0 21C0 32.598 9.40202 42 21 42Z" fill="#29D3B4" fill-opacity="0.1"/>
<path d="M21 38C30.3888 38 38 30.3888 38 21C38 11.6112 30.3888 4 21 4C11.6112 4 4 11.6112 4 21C4 30.3888 11.6112 38 21 38Z" fill="#75E0CD" fill-opacity="0.7"/>
<g clip-path="url(#clip0_2718_130)">
<path d="M20.8125 22.8427L23.7349 25.765C23.8052 25.8353 23.9006 25.8748 24 25.8748C24.0994 25.8748 24.1948 25.8353 24.2651 25.765L25.7651 24.265C25.8354 24.1947 25.8749 24.0994 25.8749 23.9999C25.8749 23.9005 25.8354 23.8051 25.7651 23.7348L22.8428 20.8124L23.0985 20.557C23.2705 20.6014 23.4474 20.6242 23.625 20.6249C23.9866 20.6276 24.3434 20.5425 24.6648 20.3768C24.9862 20.2112 25.2626 19.97 25.4702 19.674C25.6779 19.3779 25.8105 19.0359 25.8568 18.6773C25.903 18.3187 25.8616 17.9542 25.7359 17.6152C25.7145 17.5556 25.6785 17.5025 25.6311 17.4606C25.5837 17.4188 25.5265 17.3896 25.4648 17.3758C25.4031 17.362 25.3389 17.364 25.2782 17.3817C25.2174 17.3993 25.1622 17.432 25.1175 17.4768L24.2198 18.3749H23.625V17.7802L24.525 16.8824C24.5698 16.8377 24.6025 16.7825 24.6201 16.7218C24.6378 16.661 24.6398 16.5969 24.626 16.5351C24.6122 16.4734 24.583 16.4162 24.5412 16.3688C24.4993 16.3214 24.4462 16.2854 24.3866 16.264C24.0475 16.1392 23.6831 16.0983 23.3247 16.1449C22.9663 16.1915 22.6246 16.3242 22.3286 16.5316C22.0327 16.7391 21.7913 17.0151 21.6253 17.3361C21.4592 17.6571 21.3733 18.0135 21.375 18.3749C21.3759 18.5521 21.3987 18.7284 21.4429 18.8999L21 19.3447L20.625 18.9697V18.3749C20.625 18.2755 20.5855 18.1801 20.5151 18.1098L18.6401 16.2348C18.5698 16.1645 18.4744 16.125 18.375 16.125C18.2756 16.125 18.1802 16.1645 18.1099 16.2348L16.2349 18.1098C16.1646 18.1801 16.1251 18.2755 16.1251 18.3749C16.1251 18.4744 16.1646 18.5697 16.2349 18.64L18.1099 20.515C18.1802 20.5854 18.2756 20.6249 18.375 20.6249H18.9698L19.3448 20.9999L18.9 21.4428C18.7285 21.3986 18.5521 21.3758 18.375 21.3749C18.0134 21.3722 17.6566 21.4574 17.3352 21.623C17.0138 21.7886 16.7374 22.0298 16.5298 22.3259C16.3222 22.6219 16.1895 22.9639 16.1432 23.3225C16.097 23.6811 16.1385 24.0456 16.2641 24.3847C16.2855 24.4442 16.3215 24.4973 16.3689 24.5392C16.4163 24.5811 16.4735 24.6102 16.5352 24.624C16.5969 24.6379 16.6611 24.6358 16.7219 24.6182C16.7826 24.6005 16.8378 24.5678 16.8825 24.523L17.7803 23.6249H18.375V24.2197L17.4769 25.1174C17.4321 25.1621 17.3994 25.2174 17.3818 25.2781C17.3641 25.3388 17.3621 25.403 17.3759 25.4647C17.3897 25.5264 17.4189 25.5836 17.4607 25.631C17.5026 25.6784 17.5557 25.7145 17.6153 25.7358C17.9543 25.8615 18.3188 25.903 18.6774 25.8567C19.036 25.8104 19.378 25.6778 19.674 25.4701C19.9701 25.2625 20.2113 24.9861 20.3769 24.6647C20.5426 24.3433 20.6277 23.9865 20.625 23.6249C20.6241 23.4478 20.6013 23.2714 20.5571 23.0999L20.8125 22.8427ZM24 24.9697L21.1553 22.1249L22.125 21.1552L24.9698 23.9999L24 24.9697ZM22.1325 19.2749C22.1829 19.2246 22.2178 19.161 22.2334 19.0915C22.2489 19.0221 22.2444 18.9496 22.2203 18.8827C22.1589 18.7203 22.1266 18.5485 22.125 18.3749C22.1255 18.0056 22.2619 17.6495 22.5083 17.3744C22.7547 17.0993 23.0938 16.9246 23.4608 16.8835L22.9849 17.3598C22.9146 17.4301 22.875 17.5255 22.875 17.6249V18.7499C22.875 18.8494 22.9145 18.9448 22.9848 19.0151C23.0552 19.0854 23.1506 19.1249 23.25 19.1249H24.375C24.4745 19.1249 24.5698 19.0854 24.6401 19.015L25.1164 18.5392C25.0754 18.9062 24.9006 19.2452 24.6256 19.4916C24.3505 19.738 23.9943 19.8744 23.625 19.8749C23.4521 19.8731 23.2809 19.8408 23.1191 19.7797C23.0521 19.756 22.9798 19.7516 22.9104 19.7672C22.841 19.7827 22.7774 19.8174 22.7269 19.8674L22.2968 20.2979C22.2439 20.2698 22.1849 20.2552 22.125 20.2552C22.0651 20.2552 22.0062 20.2698 21.9533 20.2979L21.5303 19.8749L22.1325 19.2749ZM18.5303 19.8749L17.0303 18.3749L18.375 17.0302L19.875 18.5302V19.1249C19.875 19.2244 19.9146 19.3197 19.9849 19.39L21.4073 20.8124L20.8125 21.4072L19.3901 19.9848C19.3198 19.9145 19.2245 19.8749 19.125 19.8749H18.5303ZM19.7798 23.119C19.8409 23.2808 19.8731 23.452 19.875 23.6249C19.8745 23.9942 19.7381 24.3504 19.4917 24.6255C19.2453 24.9006 18.9063 25.0753 18.5393 25.1163L19.0151 24.64C19.0855 24.5697 19.125 24.4744 19.125 24.3749V23.2499C19.125 23.1505 19.0855 23.0551 19.0152 22.9848C18.9448 22.9144 18.8495 22.8749 18.75 22.8749H17.625C17.5256 22.8749 17.4302 22.9145 17.3599 22.9848L16.8836 23.4607C16.9246 23.0937 17.0994 22.7546 17.3745 22.5082C17.6495 22.2619 18.0057 22.1254 18.375 22.1249C18.5479 22.1268 18.7191 22.159 18.8809 22.2202C18.9481 22.2444 19.0209 22.249 19.0907 22.2335C19.1605 22.2179 19.2244 22.1829 19.275 22.1324L19.875 21.5302L20.298 21.9532C20.2699 22.0061 20.2553 22.065 20.2553 22.1249C20.2553 22.1848 20.2699 22.2438 20.298 22.2967L19.8675 22.7249C19.8168 22.7754 19.7816 22.8393 19.7661 22.9092C19.7505 22.979 19.7553 23.0518 19.7798 23.119Z" fill="#105C4E"/>
<path d="M28.125 21C28.125 19.5908 27.7071 18.2133 26.9242 17.0416C26.1413 15.8699 25.0285 14.9566 23.7266 14.4174C22.4247 13.8781 20.9921 13.737 19.61 14.0119C18.2279 14.2868 16.9583 14.9654 15.9619 15.9619C14.9654 16.9583 14.2868 18.2279 14.0119 19.61C13.737 20.9921 13.8781 22.4247 14.4174 23.7266C14.9566 25.0285 15.8699 26.1413 17.0416 26.9242C18.2133 27.7071 19.5908 28.125 21 28.125C22.889 28.1229 24.7001 27.3716 26.0358 26.0358C27.3716 24.7001 28.1229 22.889 28.125 21ZM14.625 21C14.625 19.7391 14.9989 18.5066 15.6994 17.4582C16.3999 16.4099 17.3955 15.5928 18.5604 15.1103C19.7253 14.6278 21.0071 14.5015 22.2437 14.7475C23.4803 14.9935 24.6163 15.6006 25.5078 16.4922C26.3994 17.3838 27.0065 18.5197 27.2525 19.7563C27.4985 20.9929 27.3722 22.2747 26.8897 23.4396C26.4072 24.6045 25.5901 25.6001 24.5418 26.3006C23.4934 27.0011 22.2609 27.375 21 27.375C19.3098 27.3731 17.6894 26.7009 16.4943 25.5057C15.2991 24.3106 14.6269 22.6902 14.625 21Z" fill="#105C4E"/>
<path d="M30.7919 14.7352C30.7226 14.6268 30.6509 14.5188 30.5778 14.4131L29.9609 14.8383C30.0292 14.9383 30.0961 15.0383 30.1616 15.1383L30.7919 14.7352Z" fill="#105C4E"/>
<path d="M13.7461 30.0855C13.9516 30.2494 14.1616 30.4058 14.3701 30.5509L14.798 29.9348C14.5985 29.796 14.4035 29.6501 14.2133 29.499L13.7461 30.0855Z" fill="#105C4E"/>
<path d="M31.8676 20.6383L32.6176 20.6135C32.6093 20.3533 32.5921 20.0923 32.5669 19.8369L31.8203 19.9119C31.8438 20.1514 31.8596 20.3935 31.8676 20.6383Z" fill="#105C4E"/>
<path d="M31.7264 19.189L32.4659 19.0653C32.4228 18.808 32.3707 18.5515 32.3114 18.3018L31.582 18.4754C31.6372 18.7086 31.6859 18.9486 31.7264 19.189Z" fill="#105C4E"/>
<path d="M15.0273 30.9752C15.2463 31.1064 15.4773 31.2339 15.7087 31.3532L16.0507 30.686C15.8332 30.5735 15.6191 30.4554 15.4132 30.332L15.0273 30.9752Z" fill="#105C4E"/>
<path d="M30.8648 16.4139L31.5443 16.0978C31.4363 15.8653 31.3193 15.6317 31.1922 15.4033L30.5352 15.7644C30.6525 15.9782 30.7632 16.1964 30.8648 16.4139Z" fill="#105C4E"/>
<path d="M31.3877 17.7751L32.1039 17.5531C32.0289 17.3083 31.9423 17.0608 31.8482 16.8174L31.1484 17.087C31.2377 17.3131 31.3176 17.5445 31.3877 17.7751Z" fill="#105C4E"/>
<path d="M27.7188 29.5518L28.1823 30.1413C28.3863 29.9808 28.5865 29.812 28.7778 29.6395L28.2745 29.083C28.0968 29.2439 27.9096 29.3999 27.7188 29.5518Z" fill="#105C4E"/>
<path d="M28.8008 28.577L29.3382 29.102C29.5197 28.9145 29.6955 28.7214 29.8632 28.5253L29.2909 28.04C29.136 28.2215 28.971 28.4027 28.8008 28.577Z" fill="#105C4E"/>
<path d="M29.7461 27.4668L30.3483 27.9138C30.5021 27.7068 30.6506 27.4912 30.7912 27.2726L30.1601 26.8672C30.0288 27.0716 29.8897 27.2733 29.7461 27.4668Z" fill="#105C4E"/>
<path d="M26.5195 30.3751L26.9009 31.0212C27.1259 30.8885 27.3464 30.7479 27.5575 30.6031L27.1338 29.9844C26.9362 30.1182 26.7295 30.2499 26.5195 30.3751Z" fill="#105C4E"/>
<path d="M25.2188 31.0263L25.5101 31.7178C25.7486 31.6169 25.986 31.5078 26.2162 31.3919L25.8787 30.7218C25.663 30.8306 25.443 30.9321 25.2188 31.0263Z" fill="#105C4E"/>
<path d="M31.5781 23.5297L32.3075 23.7033C32.3679 23.4494 32.42 23.1929 32.4624 22.9402L31.7229 22.8164C31.6831 23.0523 31.6344 23.2923 31.5781 23.5297Z" fill="#105C4E"/>
<path d="M31.8203 22.0945L32.5669 22.1695C32.5924 21.91 32.6097 21.649 32.6179 21.3933L31.8679 21.3682C31.8604 21.6119 31.8443 21.8538 31.8203 22.0945Z" fill="#105C4E"/>
<path d="M30.5312 26.2407L31.1882 26.6029C31.3127 26.3779 31.4316 26.1432 31.5411 25.9081L30.8627 25.5908C30.7589 25.8106 30.6482 26.0292 30.5312 26.2407Z" fill="#105C4E"/>
<path d="M31.1445 24.9212L31.8439 25.1916C31.9369 24.9512 32.0228 24.7041 32.1004 24.4555L31.3842 24.2305C31.3122 24.4645 31.2312 24.6962 31.1445 24.9212Z" fill="#105C4E"/>
<path d="M17.8789 32.2015C18.1305 32.2716 18.3852 32.3331 18.636 32.3845L18.786 31.6499C18.5517 31.6015 18.3135 31.5441 18.078 31.4785L17.8789 32.2015Z" fill="#105C4E"/>
<path d="M23.8438 31.4995L24.0399 32.2233C24.2907 32.1554 24.5412 32.0785 24.7842 31.9949L24.5401 31.2861C24.3132 31.3641 24.0789 31.4358 23.8438 31.4995Z" fill="#105C4E"/>
<path d="M16.4102 31.6844C16.6483 31.7867 16.8924 31.8824 17.135 31.9679L17.3848 31.2602C17.155 31.1797 16.9288 31.0914 16.706 30.9951L16.4102 31.6844Z" fill="#105C4E"/>
<path d="M20.9984 31.8748H20.9609V32.6248H20.9984C21.2454 32.6248 21.4909 32.6171 21.7349 32.6016L21.6888 31.8516C21.4603 31.8671 21.2302 31.8748 20.9984 31.8748Z" fill="#105C4E"/>
<path d="M19.4062 32.5166C19.6642 32.5519 19.9249 32.5785 20.1806 32.5965L20.2328 31.8465C19.989 31.8296 19.7453 31.8041 19.5075 31.7715L19.4062 32.5166Z" fill="#105C4E"/>
<path d="M22.418 31.7832L22.5147 32.5264C22.7731 32.493 23.0311 32.4514 23.2827 32.4004L23.1361 31.665C22.901 31.7115 22.6595 31.7517 22.418 31.7832Z" fill="#105C4E"/>
<path d="M12.8633 29.3023C12.9555 29.3931 13.0493 29.4821 13.1445 29.5693L13.6508 29.0162C13.5623 28.9348 13.4745 28.852 13.3883 28.7676L12.8633 29.3023Z" fill="#105C4E"/>
<path d="M21 10.125C23.7905 10.1298 26.473 11.2033 28.4963 13.125H27.375V13.875H29.25C29.3495 13.875 29.4449 13.8354 29.5152 13.7651C29.5855 13.6948 29.625 13.5994 29.625 13.5V11.625H28.875V12.4545C27.2148 10.9228 25.1441 9.90822 22.9163 9.53485C20.6885 9.16148 18.4002 9.4455 16.3313 10.3522C14.2624 11.2588 12.5026 12.7488 11.2671 14.6399C10.0317 16.531 9.37418 18.7411 9.37504 21C9.36819 23.5164 10.1847 25.9659 11.7 27.975L12.3 27.525C11.0883 25.9093 10.3504 23.9881 10.169 21.9766C9.98761 19.9651 10.3699 17.9429 11.2731 16.1365C12.1763 14.3301 13.5647 12.8109 15.2827 11.7491C17.0007 10.6874 18.9804 10.125 21 10.125Z" fill="#105C4E"/>
<path d="M29.625 21C29.625 19.2941 29.1192 17.6266 28.1714 16.2082C27.2237 14.7898 25.8767 13.6843 24.3006 13.0315C22.7246 12.3787 20.9904 12.2079 19.3173 12.5407C17.6443 12.8735 16.1074 13.695 14.9012 14.9012C13.695 16.1074 12.8735 17.6443 12.5407 19.3173C12.2079 20.9904 12.3787 22.7246 13.0315 24.3006C13.6843 25.8767 14.7898 27.2237 16.2082 28.1714C17.6266 29.1192 19.2941 29.625 21 29.625C23.2867 29.6225 25.4791 28.713 27.0961 27.0961C28.713 25.4791 29.6225 23.2867 29.625 21ZM13.125 21C13.125 19.4425 13.5869 17.9199 14.4522 16.6249C15.3175 15.3299 16.5474 14.3205 17.9864 13.7245C19.4253 13.1284 21.0087 12.9725 22.5363 13.2763C24.0639 13.5802 25.4671 14.3302 26.5685 15.4315C27.6698 16.5329 28.4198 17.9361 28.7237 19.4637C29.0275 20.9913 28.8716 22.5747 28.2756 24.0136C27.6795 25.4526 26.6702 26.6825 25.3751 27.5478C24.0801 28.4131 22.5575 28.875 21 28.875C18.9122 28.8726 16.9105 28.0422 15.4342 26.5658C13.9578 25.0895 13.1274 23.0879 13.125 21Z" fill="#105C4E"/>
</g>
<defs>
<clipPath id="clip0_2718_130">
<rect width="24" height="24" fill="white" transform="translate(9 9)"/>
</clipPath>
</defs>
</svg>
