<svg width="16" height="16" viewBox="0 0 16 16" fill="none" xmlns="http://www.w3.org/2000/svg">
<path d="M10.5525 8.00003L10.6343 7.91822C11.0536 8.06112 11.4888 8.13334 11.9333 8.13334C14.1757 8.13334 16 6.30903 16 4.06666C16 3.47897 15.8715 2.90516 15.6181 2.36112L15.2421 1.55369L12.9785 3.80631C12.8737 3.91106 12.7345 3.96875 12.5862 3.96875C12.438 3.96875 12.2987 3.91103 12.1938 3.80616C12.089 3.70134 12.0312 3.56197 12.0312 3.41375C12.0312 3.26553 12.089 3.12616 12.1949 3.02019L14.4463 0.757844L13.6388 0.381781C13.0948 0.128437 12.521 0 11.9333 0C9.69097 0 7.86669 1.82428 7.86669 4.06666C7.86669 4.51116 7.93891 4.94641 8.08178 5.36566L7.16569 6.28175L4.875 3.99113V1.93181L1.69778 0.0255L0.0255 1.69775L1.93187 4.875H3.99113L6.28178 7.16566L0.528813 12.9186C0.187813 13.2596 0 13.7128 0 14.195C0 14.6772 0.187813 15.1304 0.528656 15.4712C0.8695 15.8122 1.32278 16 1.805 16C2.28722 16 2.7405 15.8122 3.08122 15.4713L7.99991 10.5526L12.9185 15.4712C13.2595 15.8122 13.7128 16 14.195 16C14.6771 16 15.1304 15.8122 15.4712 15.4713C15.8122 15.1305 15.9999 14.6772 15.9999 14.195C15.9999 13.7127 15.8122 13.2594 15.4713 12.9188L10.5525 8.00003ZM3.625 3.625H2.63959L1.59953 1.89153L1.89156 1.59947L3.625 2.63959V3.625ZM2.19728 14.5875C2.09256 14.6923 1.95328 14.75 1.80503 14.75C1.65678 14.75 1.5175 14.6923 1.41262 14.5874C1.30778 14.4825 1.25 14.3432 1.25 14.195C1.25 14.0468 1.30775 13.9074 1.41266 13.8025L9.56631 5.64884L9.38163 5.25234C9.20581 4.87484 9.11666 4.47591 9.11666 4.06666C9.11666 2.51356 10.3802 1.25 11.9333 1.25C12.0165 1.25 12.0994 1.25378 12.1818 1.26131L11.3101 2.13734C10.9691 2.47831 10.7812 2.93159 10.7812 3.41375C10.7812 3.89591 10.9691 4.34919 11.3099 4.68997C11.6507 5.03097 12.104 5.21875 12.5863 5.21875C13.0685 5.21875 13.5218 5.03097 13.8614 4.69116L14.7387 3.81813C14.7462 3.90056 14.75 3.98344 14.75 4.06663C14.75 5.61975 13.4864 6.88331 11.9333 6.88331C11.5241 6.88331 11.1252 6.79416 10.7476 6.61834L10.3511 6.43366L2.19728 14.5875ZM14.5874 14.5874C14.4826 14.6923 14.3432 14.75 14.195 14.75C14.0468 14.75 13.9074 14.6923 13.8025 14.5873L8.88387 9.66869L9.66869 8.88391L14.5875 13.8027C14.6922 13.9075 14.7499 14.0468 14.7499 14.195C14.7499 14.3432 14.6923 14.4825 14.5874 14.5874Z" fill="#6B7170"/>
</svg>
