<svg width="26" height="33" viewBox="0 0 26 33" fill="none" xmlns="http://www.w3.org/2000/svg">
<path d="M2.88039 0C1.795 0 0.900391 0.89461 0.900391 1.98V33H25.9804V1.98C25.9804 0.89461 25.0858 0 24.0004 0H2.88039ZM2.88039 1.32H24.0004C24.3665 1.32 24.6604 1.61391 24.6604 1.98V31.68H22.0204V23.76H14.7604V31.68H2.22039V1.98C2.22039 1.61391 2.5143 1.32 2.88039 1.32ZM4.86039 3.96V9.24H12.1204V3.96H4.86039ZM14.7604 3.96V9.24H22.0204V3.96H14.7604ZM6.18039 5.28H10.8004V7.92H6.18039V5.28ZM16.0804 5.28H20.7004V7.92H16.0804V5.28ZM4.86039 10.56V15.84H12.1204V10.56H4.86039ZM14.7604 10.56V15.84H22.0204V10.56H14.7604ZM6.18039 11.88H10.8004V14.52H6.18039V11.88ZM16.0804 11.88H20.7004V14.52H16.0804V11.88ZM4.86039 17.16V22.44H12.1204V17.16H4.86039ZM14.7604 17.16V22.44H22.0204V17.16H14.7604ZM6.18039 18.48H10.8004V21.12H6.18039V18.48ZM16.0804 18.48H20.7004V21.12H16.0804V18.48ZM4.86039 23.76V29.04H12.1204V23.76H4.86039ZM6.18039 25.08H10.8004V27.72H6.18039V25.08ZM16.0804 25.08H20.7004V31.68H16.0804V25.08Z" fill="#06828E"/>
</svg>
