<svg width="42" height="42" viewBox="0 0 42 42" fill="none" xmlns="http://www.w3.org/2000/svg">
<path d="M21 42C32.598 42 42 32.598 42 21C42 9.40202 32.598 0 21 0C9.40202 0 0 9.40202 0 21C0 32.598 9.40202 42 21 42Z" fill="#29D3B4" fill-opacity="0.1"/>
<path d="M21 38C30.3888 38 38 30.3888 38 21C38 11.6112 30.3888 4 21 4C11.6112 4 4 11.6112 4 21C4 30.3888 11.6112 38 21 38Z" fill="#75E0CD" fill-opacity="0.7"/>
<g clip-path="url(#clip0_13741_21394)">
<path d="M20.8126 22.8428L23.735 25.7652C23.8053 25.8355 23.9007 25.875 24.0001 25.875C24.0996 25.875 24.1949 25.8355 24.2653 25.7652L25.7653 24.2652C25.8356 24.1948 25.875 24.0995 25.875 24C25.875 23.9006 25.8356 23.8052 25.7653 23.7349L22.8429 20.8125L23.0986 20.5572C23.2706 20.6015 23.4475 20.6243 23.6251 20.625C23.9867 20.6277 24.3435 20.5426 24.6649 20.377C24.9863 20.2113 25.2627 19.9701 25.4704 19.6741C25.678 19.3781 25.8106 19.036 25.8569 18.6774C25.9032 18.3188 25.8617 17.9543 25.736 17.6153C25.7147 17.5558 25.6786 17.5026 25.6312 17.4608C25.5838 17.4189 25.5266 17.3897 25.4649 17.3759C25.4032 17.3621 25.339 17.3641 25.2783 17.3818C25.2176 17.3994 25.1623 17.4322 25.1176 17.4769L24.2199 18.375H23.6251V17.7803L24.5251 16.8825C24.5699 16.8379 24.6026 16.7826 24.6203 16.7219C24.6379 16.6612 24.6399 16.597 24.6261 16.5353C24.6123 16.4736 24.5831 16.4164 24.5413 16.369C24.4994 16.3216 24.4463 16.2855 24.3868 16.2642C24.0476 16.1393 23.6833 16.0984 23.3249 16.145C22.9665 16.1916 22.6247 16.3243 22.3287 16.5318C22.0328 16.7392 21.7915 17.0152 21.6254 17.3362C21.4593 17.6572 21.3735 18.0136 21.3751 18.375C21.376 18.5522 21.3988 18.7285 21.443 18.9L21.0001 19.3448L20.6251 18.9698V18.375C20.6251 18.2756 20.5856 18.1802 20.5153 18.1099L18.6403 16.2349C18.5699 16.1646 18.4746 16.1251 18.3751 16.1251C18.2757 16.1251 18.1803 16.1646 18.11 16.2349L16.235 18.1099C16.1647 18.1802 16.1252 18.2756 16.1252 18.375C16.1252 18.4745 16.1647 18.5698 16.235 18.6402L18.11 20.5152C18.1803 20.5855 18.2757 20.625 18.3751 20.625H18.9699L19.3449 21L18.9001 21.4429C18.7286 21.3987 18.5523 21.3759 18.3751 21.375C18.0136 21.3724 17.6567 21.4575 17.3353 21.6231C17.0139 21.7888 16.7375 22.03 16.5299 22.326C16.3223 22.622 16.1896 22.964 16.1434 23.3227C16.0971 23.6813 16.1386 24.0458 16.2643 24.3848C16.2856 24.4443 16.3216 24.4975 16.369 24.5393C16.4164 24.5812 16.4737 24.6104 16.5354 24.6242C16.5971 24.638 16.6613 24.636 16.722 24.6183C16.7827 24.6006 16.838 24.5679 16.8826 24.5232L17.7804 23.625H18.3751V24.2198L17.477 25.1175C17.4323 25.1622 17.3995 25.2175 17.3819 25.2782C17.3642 25.3389 17.3622 25.4031 17.376 25.4648C17.3898 25.5265 17.419 25.5837 17.4609 25.6311C17.5027 25.6785 17.5559 25.7146 17.6154 25.7359C17.9544 25.8616 18.3189 25.9031 18.6775 25.8568C19.0361 25.8105 19.3781 25.6779 19.6742 25.4703C19.9702 25.2626 20.2114 24.9863 20.377 24.6648C20.5427 24.3434 20.6278 23.9866 20.6251 23.625C20.6242 23.4479 20.6015 23.2716 20.5573 23.1L20.8126 22.8428ZM24.0001 24.9698L21.1554 22.125L22.1251 21.1553L24.9699 24L24.0001 24.9698ZM22.1326 19.275C22.183 19.2247 22.218 19.1611 22.2335 19.0917C22.249 19.0222 22.2445 18.9498 22.2204 18.8828C22.159 18.7205 22.1268 18.5486 22.1251 18.375C22.1256 18.0058 22.2621 17.6496 22.5084 17.3745C22.7548 17.0994 23.0939 16.9247 23.4609 16.8837L22.985 17.3599C22.9147 17.4302 22.8752 17.5256 22.8751 17.625V18.75C22.8751 18.8495 22.9146 18.9449 22.985 19.0152C23.0553 19.0855 23.1507 19.125 23.2501 19.125H24.3751C24.4746 19.125 24.5699 19.0855 24.6403 19.0152L25.1165 18.5393C25.0755 18.9063 24.9008 19.2453 24.6257 19.4917C24.3506 19.7381 23.9944 19.8746 23.6251 19.875C23.4522 19.8732 23.281 19.8409 23.1193 19.7798C23.0522 19.7561 22.9799 19.7518 22.9105 19.7673C22.8411 19.7828 22.7775 19.8175 22.727 19.8675L22.2969 20.298C22.244 20.27 22.185 20.2553 22.1251 20.2553C22.0652 20.2553 22.0063 20.27 21.9534 20.298L21.5304 19.875L22.1326 19.275ZM18.5304 19.875L17.0304 18.375L18.3751 17.0303L19.8751 18.5303V19.125C19.8752 19.2245 19.9147 19.3199 19.985 19.3902L21.4074 20.8125L20.8126 21.4073L19.3903 19.9849C19.3199 19.9146 19.2246 19.8751 19.1251 19.875H18.5304ZM19.7799 23.1192C19.841 23.2809 19.8733 23.4521 19.8751 23.625C19.8746 23.9943 19.7382 24.3505 19.4918 24.6256C19.2454 24.9007 18.9064 25.0754 18.5394 25.1164L19.0153 24.6402C19.0856 24.5699 19.1251 24.4745 19.1251 24.375V23.25C19.1251 23.1506 19.0856 23.0552 19.0153 22.9849C18.945 22.9146 18.8496 22.875 18.7501 22.875H17.6251C17.5257 22.8751 17.4303 22.9146 17.36 22.9849L16.8838 23.4608C16.9248 23.0938 17.0995 22.7547 17.3746 22.5084C17.6497 22.262 18.0058 22.1255 18.3751 22.125C18.548 22.1269 18.7193 22.1591 18.881 22.2203C18.9483 22.2445 19.021 22.2491 19.0908 22.2336C19.1606 22.218 19.2245 22.183 19.2751 22.1325L19.8751 21.5303L20.2981 21.9533C20.2701 22.0062 20.2554 22.0652 20.2554 22.125C20.2554 22.1849 20.2701 22.2439 20.2981 22.2968L19.8676 22.725C19.8169 22.7755 19.7817 22.8395 19.7662 22.9093C19.7506 22.9791 19.7554 23.0519 19.7799 23.1192Z" fill="#105C4E"/>
<path d="M28.125 21C28.125 19.5908 27.7071 18.2133 26.9242 17.0416C26.1413 15.8699 25.0285 14.9566 23.7266 14.4174C22.4247 13.8781 20.9921 13.737 19.61 14.0119C18.2279 14.2868 16.9583 14.9654 15.9619 15.9619C14.9654 16.9583 14.2868 18.2279 14.0119 19.61C13.737 20.9921 13.8781 22.4247 14.4174 23.7266C14.9566 25.0285 15.8699 26.1413 17.0416 26.9242C18.2133 27.7071 19.5908 28.125 21 28.125C22.889 28.1229 24.7001 27.3716 26.0358 26.0358C27.3716 24.7001 28.1229 22.889 28.125 21ZM14.625 21C14.625 19.7391 14.9989 18.5066 15.6994 17.4582C16.3999 16.4099 17.3955 15.5928 18.5604 15.1103C19.7253 14.6278 21.0071 14.5015 22.2437 14.7475C23.4803 14.9935 24.6163 15.6006 25.5078 16.4922C26.3994 17.3838 27.0065 18.5197 27.2525 19.7563C27.4985 20.9929 27.3722 22.2747 26.8897 23.4396C26.4072 24.6045 25.5901 25.6001 24.5418 26.3006C23.4934 27.0011 22.2609 27.375 21 27.375C19.3098 27.3731 17.6894 26.7009 16.4943 25.5057C15.2991 24.3106 14.6269 22.6902 14.625 21Z" fill="#105C4E"/>
<path d="M30.7919 14.7352C30.7226 14.6268 30.6509 14.5188 30.5778 14.4131L29.9609 14.8383C30.0292 14.9383 30.0961 15.0383 30.1616 15.1383L30.7919 14.7352Z" fill="#105C4E"/>
<path d="M13.7461 30.0855C13.9516 30.2494 14.1616 30.4058 14.3701 30.5509L14.798 29.9348C14.5985 29.796 14.4035 29.6501 14.2133 29.499L13.7461 30.0855Z" fill="#105C4E"/>
<path d="M31.8676 20.6383L32.6176 20.6135C32.6093 20.3533 32.5921 20.0923 32.5669 19.8369L31.8203 19.9119C31.8438 20.1514 31.8596 20.3935 31.8676 20.6383Z" fill="#105C4E"/>
<path d="M31.7264 19.189L32.4659 19.0653C32.4228 18.808 32.3707 18.5515 32.3114 18.3018L31.582 18.4754C31.6372 18.7086 31.6859 18.9486 31.7264 19.189Z" fill="#105C4E"/>
<path d="M15.0273 30.9752C15.2463 31.1064 15.4773 31.2339 15.7087 31.3532L16.0507 30.686C15.8332 30.5735 15.6191 30.4554 15.4132 30.332L15.0273 30.9752Z" fill="#105C4E"/>
<path d="M30.8648 16.4139L31.5443 16.0978C31.4363 15.8653 31.3193 15.6317 31.1922 15.4033L30.5352 15.7644C30.6525 15.9782 30.7632 16.1964 30.8648 16.4139Z" fill="#105C4E"/>
<path d="M31.3877 17.7751L32.1039 17.5531C32.0289 17.3083 31.9423 17.0608 31.8482 16.8174L31.1484 17.087C31.2377 17.3131 31.3176 17.5445 31.3877 17.7751Z" fill="#105C4E"/>
<path d="M27.7188 29.5518L28.1823 30.1413C28.3863 29.9808 28.5865 29.812 28.7778 29.6395L28.2745 29.083C28.0968 29.2439 27.9096 29.3999 27.7188 29.5518Z" fill="#105C4E"/>
<path d="M28.8008 28.577L29.3382 29.102C29.5197 28.9145 29.6955 28.7214 29.8632 28.5253L29.2909 28.04C29.136 28.2215 28.971 28.4027 28.8008 28.577Z" fill="#105C4E"/>
<path d="M29.7461 27.4668L30.3483 27.9138C30.5021 27.7068 30.6506 27.4912 30.7912 27.2726L30.1601 26.8672C30.0288 27.0716 29.8897 27.2733 29.7461 27.4668Z" fill="#105C4E"/>
<path d="M26.5195 30.3751L26.9009 31.0212C27.1259 30.8885 27.3464 30.7479 27.5575 30.6031L27.1338 29.9844C26.9362 30.1182 26.7295 30.2499 26.5195 30.3751Z" fill="#105C4E"/>
<path d="M25.2188 31.0263L25.5101 31.7178C25.7486 31.6169 25.986 31.5078 26.2162 31.3919L25.8787 30.7218C25.663 30.8306 25.443 30.9321 25.2188 31.0263Z" fill="#105C4E"/>
<path d="M31.5781 23.5297L32.3075 23.7033C32.3679 23.4494 32.42 23.1929 32.4624 22.9402L31.7229 22.8164C31.6831 23.0523 31.6344 23.2923 31.5781 23.5297Z" fill="#105C4E"/>
<path d="M31.8203 22.0945L32.5669 22.1695C32.5924 21.91 32.6097 21.649 32.6179 21.3933L31.8679 21.3682C31.8604 21.6119 31.8443 21.8538 31.8203 22.0945Z" fill="#105C4E"/>
<path d="M30.5312 26.2407L31.1882 26.6029C31.3127 26.3779 31.4316 26.1432 31.5411 25.9081L30.8627 25.5908C30.7589 25.8106 30.6482 26.0292 30.5312 26.2407Z" fill="#105C4E"/>
<path d="M31.1445 24.9212L31.8439 25.1916C31.9369 24.9512 32.0228 24.7041 32.1004 24.4555L31.3842 24.2305C31.3122 24.4645 31.2312 24.6962 31.1445 24.9212Z" fill="#105C4E"/>
<path d="M17.8789 32.2015C18.1305 32.2716 18.3852 32.3331 18.636 32.3845L18.786 31.6499C18.5517 31.6015 18.3135 31.5441 18.078 31.4785L17.8789 32.2015Z" fill="#105C4E"/>
<path d="M23.8438 31.4995L24.0399 32.2233C24.2907 32.1554 24.5412 32.0785 24.7842 31.9949L24.5401 31.2861C24.3132 31.3641 24.0789 31.4358 23.8438 31.4995Z" fill="#105C4E"/>
<path d="M16.4102 31.6844C16.6483 31.7867 16.8924 31.8824 17.135 31.9679L17.3848 31.2602C17.155 31.1797 16.9288 31.0914 16.706 30.9951L16.4102 31.6844Z" fill="#105C4E"/>
<path d="M20.9984 31.8748H20.9609V32.6248H20.9984C21.2454 32.6248 21.4909 32.6171 21.7349 32.6016L21.6888 31.8516C21.4603 31.8671 21.2302 31.8748 20.9984 31.8748Z" fill="#105C4E"/>
<path d="M19.4062 32.5166C19.6642 32.5519 19.9249 32.5785 20.1806 32.5965L20.2328 31.8465C19.989 31.8296 19.7453 31.8041 19.5075 31.7715L19.4062 32.5166Z" fill="#105C4E"/>
<path d="M22.418 31.7832L22.5147 32.5264C22.7731 32.493 23.0311 32.4514 23.2827 32.4004L23.1361 31.665C22.901 31.7115 22.6595 31.7517 22.418 31.7832Z" fill="#105C4E"/>
<path d="M12.8633 29.3023C12.9555 29.3931 13.0493 29.4821 13.1445 29.5693L13.6508 29.0162C13.5623 28.9348 13.4745 28.852 13.3883 28.7676L12.8633 29.3023Z" fill="#105C4E"/>
<path d="M21 10.125C23.7905 10.1298 26.473 11.2033 28.4963 13.125H27.375V13.875H29.25C29.3495 13.875 29.4449 13.8354 29.5152 13.7651C29.5855 13.6948 29.625 13.5994 29.625 13.5V11.625H28.875V12.4545C27.2148 10.9228 25.1441 9.90822 22.9163 9.53485C20.6885 9.16148 18.4002 9.4455 16.3313 10.3522C14.2624 11.2588 12.5026 12.7488 11.2671 14.6399C10.0317 16.531 9.37418 18.7411 9.37504 21C9.36819 23.5164 10.1847 25.9659 11.7 27.975L12.3 27.525C11.0883 25.9093 10.3504 23.9881 10.169 21.9766C9.98761 19.9651 10.3699 17.9429 11.2731 16.1365C12.1763 14.3301 13.5647 12.8109 15.2827 11.7491C17.0007 10.6874 18.9804 10.125 21 10.125Z" fill="#105C4E"/>
<path d="M29.625 21C29.625 19.2941 29.1192 17.6266 28.1714 16.2082C27.2237 14.7898 25.8767 13.6843 24.3006 13.0315C22.7246 12.3787 20.9904 12.2079 19.3173 12.5407C17.6443 12.8735 16.1074 13.695 14.9012 14.9012C13.695 16.1074 12.8735 17.6443 12.5407 19.3173C12.2079 20.9904 12.3787 22.7246 13.0315 24.3006C13.6843 25.8767 14.7898 27.2237 16.2082 28.1714C17.6266 29.1192 19.2941 29.625 21 29.625C23.2867 29.6225 25.4791 28.713 27.0961 27.0961C28.713 25.4791 29.6225 23.2867 29.625 21ZM13.125 21C13.125 19.4425 13.5869 17.9199 14.4522 16.6249C15.3175 15.3299 16.5474 14.3205 17.9864 13.7245C19.4253 13.1284 21.0087 12.9725 22.5363 13.2763C24.0639 13.5802 25.4671 14.3302 26.5685 15.4315C27.6698 16.5329 28.4198 17.9361 28.7237 19.4637C29.0275 20.9913 28.8716 22.5747 28.2756 24.0136C27.6795 25.4526 26.6702 26.6825 25.3751 27.5478C24.0801 28.4131 22.5575 28.875 21 28.875C18.9122 28.8726 16.9105 28.0422 15.4342 26.5658C13.9578 25.0895 13.1274 23.0879 13.125 21Z" fill="#105C4E"/>
</g>
<defs>
<clipPath id="clip0_13741_21394">
<rect width="24" height="24" fill="white" transform="translate(9 9)"/>
</clipPath>
</defs>
</svg>
