<svg width="35" height="34" viewBox="0 0 35 34" fill="none" xmlns="http://www.w3.org/2000/svg">
<path d="M0 16.4481V16.4004C0.43241 10.8222 2.45289 6.63811 5.96296 3.99286C9.42532 1.29992 13.177 0.00114596 17.2641 0.00114596C21.5436 -0.0465577 25.5353 1.39532 29.0946 4.28062C32.7016 7.11822 34.4805 11.35 34.4805 16.8313V17.1683C34.4805 22.6989 32.7016 26.8337 29.0946 29.6713C25.4876 32.5566 21.4959 34 17.2164 34H17.024C12.84 33.9523 8.99291 32.5089 5.43514 29.6236C1.87583 26.786 0.0492425 22.4095 0.00153883 16.4466L0 16.4481ZM16.2054 8.89865V1.29992H15.0513C14.8112 1.58922 14.6189 1.92468 14.4265 2.21398C14.2342 2.50328 14.0418 2.79104 13.8494 3.12804C13.6571 3.41734 13.417 3.80205 13.2724 4.08981C13.08 4.37911 12.9354 4.66687 12.7907 5.00387C12.5014 5.48553 12.2614 5.96564 12.069 6.39805C11.829 6.83046 11.6366 7.26441 11.492 7.64912C11.7813 7.84147 12.1167 8.08153 12.5014 8.22618C12.9338 8.37083 13.3678 8.51548 13.8002 8.61089C14.2819 8.70783 14.7143 8.75554 15.099 8.80324C15.5314 8.85094 15.9161 8.90019 16.2054 8.90019V8.89865ZM18.2259 1.30146V8.85094C18.4659 8.85094 18.7552 8.89865 19.043 8.85094C19.3323 8.85094 19.6678 8.80324 19.9571 8.754C20.4864 8.65705 21.1112 8.51394 21.5928 8.36929C22.1222 8.17694 22.6023 7.93688 22.9393 7.64758C22.3622 6.2534 21.7375 5.14699 21.1112 4.08827C20.4849 3.02956 19.7647 2.11703 18.9953 1.34762V1.29992H18.2259V1.30146ZM13.0323 1.73387V1.68616C12.6953 1.83081 12.3583 2.07087 11.9736 2.21552C11.6366 2.36017 11.2042 2.55252 10.8672 2.74488C10.1932 3.08188 9.52072 3.46659 8.84672 3.899C8.22195 4.33141 7.59565 4.81306 7.06783 5.29317C7.26019 5.48553 7.50024 5.67788 7.6926 5.82253C7.88495 5.96718 8.12501 6.15953 8.3666 6.35189C8.55896 6.44883 8.79901 6.59194 9.04061 6.7843C9.28067 6.92895 9.56997 7.1213 9.85773 7.31365C10.2424 6.44729 10.6271 5.53477 11.1088 4.71611C11.5904 3.84975 12.1183 3.03264 12.6476 2.31093C12.6953 2.21398 12.7446 2.11857 12.84 2.02163C12.8877 1.97392 12.9369 1.83081 13.0323 1.73387ZM27.7466 5.29163V5.24393C26.5448 4.32987 25.4861 3.56045 24.4289 3.08034C23.3717 2.60023 22.313 2.11857 21.3512 1.73387C22.1206 2.50328 22.7946 3.46505 23.2271 4.37911C23.7087 5.34088 24.1888 6.35035 24.5735 7.31212C24.7659 7.21517 25.0059 7.11976 25.2952 6.92741C25.5353 6.78276 25.8723 6.63811 26.1616 6.495C26.4509 6.30264 26.691 6.11029 26.9787 5.91794C27.268 5.67788 27.5558 5.48553 27.7481 5.29317L27.7466 5.29163ZM26.9295 16.0157H32.46C32.46 14.2368 32.0753 12.5534 31.3536 10.8222C30.6796 9.1387 29.7178 7.74453 28.516 6.5427V6.495C28.276 6.8797 27.9389 7.21671 27.6019 7.45676C27.2172 7.69682 26.8802 7.88918 26.4955 8.08153C26.2555 8.22618 26.0139 8.41853 25.7738 8.51394C25.5338 8.65859 25.1968 8.754 24.9567 8.89865C25.1491 9.28335 25.3414 9.71576 25.5338 10.1005C25.6784 10.5329 25.9185 11.0145 26.0154 11.4469C26.3047 12.2164 26.4971 13.0335 26.6894 13.8521C26.8341 14.5738 26.9295 15.3433 26.9295 16.0157ZM9.52226 8.89865V8.85094C9.13756 8.65859 8.70515 8.51394 8.36814 8.32159C8.03114 8.08153 7.69414 7.83993 7.40638 7.64758C7.11708 7.50293 6.82932 7.31058 6.58926 7.11822C6.3492 6.92587 6.15685 6.73352 5.96449 6.54116C4.71343 7.74299 3.8009 9.08946 3.22384 10.6775C2.59908 12.2641 2.16513 14.0445 1.97278 15.968H7.88803C7.88803 14.6215 8.08038 13.3228 8.41739 12.024C8.70668 10.6775 9.13756 9.66806 9.52226 8.89865ZM16.2054 15.968V10.4375C15.8207 10.4852 15.339 10.4852 14.9066 10.4375C14.425 10.3898 13.9449 10.2451 13.5124 10.1005C13.1277 10.0035 12.6461 9.90812 12.2614 9.76347C11.829 9.66652 11.395 9.47417 11.0596 9.28181C10.7703 9.76347 10.5302 10.3405 10.3378 10.9653C10.0978 11.5424 9.95314 12.1671 9.80849 12.7442C9.71154 13.3212 9.66384 13.946 9.61613 14.4754C9.56843 15.0047 9.51919 15.5341 9.51919 15.9665H16.2039L16.2054 15.968ZM18.2259 10.5344V15.968H25.3429C25.3429 15.6787 25.3429 15.3433 25.2952 14.9585C25.1983 14.6215 25.1506 14.1891 25.1029 13.8044C24.9582 13.2274 24.8136 12.6026 24.6212 12.0255C24.4289 11.4962 24.2365 10.9668 23.9965 10.5344C23.8995 10.2944 23.8041 10.0051 23.7072 9.81271C23.5625 9.57265 23.4179 9.428 23.3225 9.28335C22.7931 9.66806 22.0714 9.90812 21.2066 10.1005C20.3895 10.2928 19.4277 10.4852 18.5613 10.5329H18.2243L18.2259 10.5344ZM7.88649 17.5546H1.97124C1.97124 18.3717 2.11589 19.2857 2.35594 20.3921C2.596 21.5463 3.07765 22.605 3.60701 23.7591C3.84707 24.3362 4.13637 24.9132 4.42413 25.4903C4.76113 26.0196 5.14584 26.5967 5.53055 27.1261C5.81985 26.9337 6.10761 26.7891 6.34766 26.6444C6.63696 26.4998 6.97243 26.3074 7.26173 26.1628C7.59873 26.0181 7.93573 25.8735 8.32044 25.6811C8.65744 25.5364 9.08985 25.3441 9.52226 25.1517C9.13756 23.9499 8.70515 22.7958 8.41585 21.497C8.07884 20.246 7.88649 18.9964 7.88649 17.6023V17.5546ZM16.2054 23.1805V17.5546H9.52072C9.52072 17.9393 9.56843 18.5163 9.66537 19.0934C9.71308 19.6704 9.85773 20.2952 9.95467 20.9215C10.147 21.5955 10.2917 22.268 10.484 22.845C10.6764 23.4221 10.8687 23.9038 11.0611 24.3362C11.9275 23.9992 12.7923 23.7591 13.3693 23.6145C13.9941 23.4221 14.5712 23.2774 15.1482 23.2297H15.6776C15.8699 23.182 16.0623 23.182 16.2069 23.182L16.2054 23.1805ZM18.2259 17.5546V23.1328C18.5629 23.1805 18.9476 23.2297 19.3323 23.2774C19.7647 23.3252 20.2941 23.4221 20.7265 23.5175L21.4482 23.6622C21.6882 23.7591 21.9775 23.8068 22.2176 23.8545C22.5069 23.9515 22.7946 23.9992 23.0839 24.0946C23.324 24.1915 23.5656 24.2392 23.758 24.3346C24.3827 22.7481 24.7674 21.4493 25.009 20.3429C25.2491 19.2842 25.346 18.3717 25.346 17.6023V17.5546H18.2289H18.2259ZM32.46 17.6023V17.5546H26.9295V17.8438C26.8818 18.7579 26.7371 19.8151 26.5448 20.9215C26.3524 21.9802 25.92 23.2297 25.3429 24.7686C26.1124 25.1533 26.8341 25.538 27.4111 25.9227C27.9882 26.3074 28.5175 26.7398 28.9023 27.1245C29.7194 26.3074 30.4411 25.201 31.0658 23.7576C31.6906 22.3634 32.1246 20.92 32.3646 19.3811C32.4123 19.0918 32.4123 18.8041 32.4616 18.5148V17.6007L32.46 17.6023ZM16.2054 32.2211V24.7193C15.0036 24.9117 13.9926 25.1517 13.2231 25.3441C12.4537 25.5364 11.8767 25.7288 11.492 25.9212C11.7813 26.6429 12.069 27.2676 12.3583 27.8447C12.6476 28.374 12.9831 28.9511 13.2724 29.4312C13.3693 29.6236 13.5617 29.8159 13.7048 30.056C13.8494 30.2483 13.9449 30.4884 14.0895 30.6807C14.2342 30.9208 14.3788 31.2101 14.5219 31.4979C14.7143 31.7379 14.8589 32.0272 15.0513 32.2196L16.2054 32.2211ZM18.2259 32.2211H19.3323C19.7647 31.8841 20.1986 31.404 20.5341 30.8746C20.9188 30.3453 21.3512 29.7205 21.6405 29.1912C21.9775 28.5664 22.3145 27.9893 22.6023 27.4123C22.8901 26.8352 23.1317 26.3059 23.324 25.9212C22.7946 25.7288 22.0729 25.5364 21.3528 25.3441C20.6326 25.1517 19.6216 24.9594 18.2274 24.767V32.2211H18.2259ZM27.7466 28.2786V28.2309C27.6496 28.0863 27.4573 27.8939 27.3142 27.7493C27.1711 27.6046 26.9295 27.4123 26.6894 27.2676C26.4971 27.123 26.257 26.9783 25.9677 26.8352C25.6784 26.6921 25.2937 26.4982 24.9582 26.3059C24.7659 26.6906 24.4289 27.3646 23.9488 28.2771C23.5164 29.1912 22.7469 30.2976 21.7852 31.4994C22.987 31.3071 24.0457 30.8746 25.0075 30.2976C26.0662 29.7682 26.9787 29.0465 27.7481 28.2771L27.7466 28.2786ZM9.85773 26.7398V26.6921C9.52072 26.8845 8.99137 27.1245 8.46355 27.3661C7.88649 27.6062 7.26173 27.8955 6.68467 28.2802C7.02167 28.5695 7.35867 28.8572 7.64643 29.0496C7.93573 29.2896 8.2712 29.482 8.5605 29.6744C9.08985 30.0114 9.71462 30.3484 10.3394 30.6361C10.9641 30.9239 11.7336 31.2132 12.6953 31.5025C12.3583 31.1178 12.1183 30.6361 11.8782 30.2514C11.6382 29.8667 11.3489 29.482 11.1088 29.0973C10.8687 28.7126 10.6764 28.2802 10.484 27.8955C10.244 27.5108 10.0516 27.1261 9.85927 26.7414L9.85773 26.7398Z" fill="#06828E"/>
</svg>
