<svg width="31" height="31" viewBox="0 0 31 31" fill="none" xmlns="http://www.w3.org/2000/svg">
<path d="M2.3832 7.43413C2.34791 6.77661 1.78618 6.27218 1.12856 6.30748C0.470932 6.34277 -0.0335516 6.90442 0.00174479 7.56193L2.3832 7.43413ZM3.91883 1.33991C3.46529 1.81734 3.4847 2.57198 3.96221 3.02547C4.43971 3.47894 5.19446 3.45953 5.64802 2.9821L3.91883 1.33991ZM13.3732 27.9197C13.9308 28.27 14.6669 28.1022 15.0173 27.5447C15.3677 26.9872 15.1997 26.2511 14.6421 25.9008L13.3732 27.9197ZM20.4466 28.3109C19.8021 28.1759 19.1701 28.5891 19.0351 29.2335C18.9001 29.878 19.3131 30.5099 19.9579 30.6448L20.4466 28.3109ZM21.2918 21.1339L22.0159 20.3717L20.2867 18.7295L19.5626 19.4918L21.2918 21.1339ZM24.3987 20.0507L27.4362 21.7989L28.626 19.7323L25.5884 17.9841L24.3987 20.0507ZM28.0225 25.4232L25.764 27.8007L27.4932 29.4429L29.7517 27.0655L28.0225 25.4232ZM9.70855 21.7937C3.54579 15.3063 2.51205 9.83426 2.3832 7.43413L0.00174479 7.56193C0.159545 10.5016 1.40792 16.5185 7.97936 23.4358L9.70855 21.7937ZM11.8952 11.2428L12.3513 10.7627L10.6221 9.12056L10.1661 9.60058L11.8952 11.2428ZM12.7095 4.78632L10.7046 1.95114L8.7573 3.32776L10.7622 6.16293L12.7095 4.78632ZM11.0307 10.4217C10.1661 9.60058 10.165 9.60174 10.1638 9.6029C10.1635 9.60331 10.1624 9.60449 10.1616 9.60529C10.1601 9.60691 10.1586 9.60854 10.157 9.61023C10.1539 9.6136 10.1506 9.61711 10.1473 9.62078C10.1406 9.62811 10.1335 9.63605 10.1261 9.6446C10.1112 9.6617 10.0949 9.68126 10.0774 9.70334C10.0425 9.7475 10.0029 9.80175 9.96145 9.86657C9.87828 9.99654 9.78807 10.1677 9.71169 10.3823C9.55633 10.8188 9.47169 11.3968 9.57746 12.1187C9.78528 13.5369 10.7147 15.444 13.1431 18.0002L14.8723 16.3581C12.6024 13.9686 12.0433 12.497 11.9372 11.773C11.886 11.4236 11.938 11.2396 11.9586 11.1818C11.9701 11.1493 11.9777 11.1402 11.9703 11.1518C11.9667 11.1574 11.9595 11.1679 11.9475 11.1831C11.9415 11.1907 11.9343 11.1995 11.9256 11.2094C11.9213 11.2144 11.9166 11.2197 11.9116 11.2252C11.909 11.228 11.9064 11.2309 11.9037 11.2338C11.9023 11.2352 11.901 11.2367 11.8995 11.2382C11.8988 11.239 11.8978 11.2401 11.8974 11.2405C11.8963 11.2416 11.8952 11.2428 11.0307 10.4217ZM13.1431 18.0002C15.5643 20.5489 17.393 21.5509 18.7882 21.7774C19.5039 21.8936 20.0835 21.8008 20.5223 21.6279C20.7368 21.5433 20.9066 21.4439 21.0339 21.3536C21.0974 21.3085 21.1503 21.2657 21.1931 21.2284C21.2144 21.2096 21.2333 21.1921 21.2497 21.1762C21.2579 21.1684 21.2654 21.1608 21.2724 21.1538C21.2759 21.1503 21.2794 21.1468 21.2826 21.1435C21.2842 21.1419 21.2858 21.1403 21.2872 21.1387C21.288 21.1379 21.2891 21.1366 21.2896 21.1363C21.2907 21.1351 21.2918 21.1339 20.4272 20.3129C19.5626 19.4918 19.5637 19.4907 19.5647 19.4896C19.5652 19.4891 19.5661 19.488 19.5669 19.4872C19.5683 19.4858 19.5698 19.4843 19.571 19.4829C19.5739 19.48 19.5766 19.4772 19.5793 19.4745C19.5845 19.4692 19.5896 19.4641 19.5944 19.4595C19.6041 19.4503 19.6127 19.4424 19.6203 19.4357C19.6356 19.4223 19.6469 19.4137 19.6542 19.4087C19.669 19.398 19.6675 19.4017 19.6472 19.4096C19.6165 19.4217 19.4721 19.4727 19.1704 19.4238C18.5304 19.3198 17.1493 18.755 14.8723 16.3581L13.1431 18.0002ZM10.7046 1.95114C9.09309 -0.327791 5.86837 -0.712271 3.91883 1.33991L5.64802 2.9821C6.47929 2.10706 7.9427 2.1758 8.7573 3.32776L10.7046 1.95114ZM25.764 27.8007C25.3202 28.2678 24.8561 28.518 24.4049 28.5625L24.6392 30.9356C25.8269 30.8183 26.7882 30.185 27.4932 29.4429L25.764 27.8007ZM12.3513 10.7627C13.8896 9.14337 13.9985 6.60915 12.7095 4.78632L10.7622 6.16293C11.4334 7.11208 11.3304 8.37489 10.6221 9.12056L12.3513 10.7627ZM27.4362 21.7989C28.7414 22.55 28.9968 24.3977 28.0225 25.4232L29.7517 27.0655C31.8265 24.8815 31.2222 21.2265 28.626 19.7323L27.4362 21.7989ZM22.0159 20.3717C22.6286 19.7266 23.5835 19.5816 24.3987 20.0507L25.5884 17.9841C23.8419 16.979 21.6759 17.2672 20.2867 18.7295L22.0159 20.3717ZM14.6421 25.9008C13.0781 24.918 11.4134 23.5882 9.70855 21.7937L7.97936 23.4358C9.81419 25.3673 11.632 26.8256 13.3732 27.9197L14.6421 25.9008ZM24.4049 28.5625C23.536 28.6484 22.1609 28.6698 20.4466 28.3109L19.9579 30.6448C21.9429 31.0604 23.5648 31.0416 24.6392 30.9356L24.4049 28.5625Z" fill="#06828E"/>
</svg>
