<svg width="56" height="56" viewBox="0 0 56 56" fill="none" xmlns="http://www.w3.org/2000/svg">
<circle cx="28" cy="28" r="28" fill="#06828E"/>
<path d="M27.5837 16.6712C21.3367 16.6712 16.2545 21.7532 16.2545 28.0004C16.2545 34.2475 21.3367 39.3296 27.5837 39.3296C33.8306 39.3296 38.9129 34.2473 38.9129 28.0004C38.9129 21.7535 33.8306 16.6712 27.5837 16.6712ZM27.5837 37.013C25.8011 37.013 24.0586 36.4844 22.5765 35.4941C21.0944 34.5038 19.9392 33.0962 19.2571 31.4494C18.575 29.8025 18.3965 27.9904 18.7442 26.2421C19.092 24.4938 19.9504 22.888 21.2108 21.6275C22.4712 20.3671 24.0771 19.5087 25.8254 19.161C27.5737 18.8132 29.3858 18.9917 31.0326 19.6738C32.6795 20.356 34.087 21.5111 35.0774 22.9933C36.0677 24.4754 36.5963 26.2179 36.5963 28.0004C36.5935 30.3899 35.6431 32.6807 33.9535 34.3703C32.2639 36.0599 29.9731 37.0103 27.5837 37.013ZM45.2173 32.0091L44.0315 28.1561C43.9957 28.0554 43.9957 27.9455 44.0315 27.8448L45.2173 23.9919C45.3939 23.4323 45.3914 22.8315 45.2101 22.2734C45.0287 21.7154 44.6777 21.2278 44.2059 20.8789L40.9817 18.4589C40.8935 18.3985 40.8289 18.3095 40.7986 18.207L39.4934 14.3925C39.3073 13.836 38.9521 13.3514 38.4774 13.0065C38.0026 12.6616 37.432 12.4735 36.8452 12.4686L32.8143 12.4057C32.7074 12.4086 32.6029 12.3747 32.5182 12.3095L29.2203 9.99105C28.7426 9.65008 28.1704 9.4668 27.5836 9.4668C26.9967 9.4668 26.4245 9.65008 25.9469 9.99105L22.6491 12.3095C22.5644 12.3747 22.4598 12.4086 22.353 12.4057L18.3221 12.4686C17.7353 12.4735 17.1647 12.6616 16.6899 13.0065C16.2152 13.3514 15.86 13.836 15.6739 14.3925L14.3686 18.2067C14.3384 18.3092 14.2737 18.3982 14.1856 18.4586L10.9615 20.8786C10.4897 21.2275 10.1386 21.7151 9.95729 22.2731C9.77596 22.8312 9.77342 23.432 9.95004 23.9916L11.1358 27.8447C11.1715 27.9454 11.1715 28.0553 11.1358 28.156L9.94997 32.009C9.77335 32.5686 9.77588 33.1693 9.95722 33.7274C10.1386 34.2855 10.4896 34.773 10.9615 35.1219L14.1856 37.5419C14.2737 37.6023 14.3384 37.6912 14.3686 37.7938L15.6739 41.6083C15.86 42.1648 16.2152 42.6494 16.6899 42.9943C17.1647 43.3392 17.7353 43.5273 18.3221 43.5322L22.3528 43.5951C22.4597 43.5921 22.5643 43.6261 22.649 43.6912L25.947 46.0097C26.4247 46.3507 26.9968 46.5339 27.5837 46.5339C28.1705 46.5339 28.7426 46.3507 29.2203 46.0097L32.5182 43.6913C32.6029 43.6261 32.7075 43.5921 32.8143 43.5951L36.8452 43.5322C37.432 43.5273 38.0026 43.3392 38.4774 42.9943C38.9521 42.6493 39.3073 42.1648 39.4933 41.6082L40.7986 37.794C40.8289 37.6915 40.8935 37.6026 40.9817 37.5422L44.2057 35.1221C44.6776 34.7733 45.0287 34.2857 45.2101 33.7276C45.3914 33.1695 45.3939 32.5687 45.2173 32.0091ZM42.8153 33.2694L39.5913 35.6895C39.1309 36.0282 38.787 36.5015 38.6072 37.044L37.3018 40.8581C37.2698 40.9632 37.2044 41.0549 37.1156 41.1195C37.0268 41.184 36.9193 41.2179 36.8095 41.2159L32.7785 41.2787C32.207 41.2822 31.6508 41.463 31.1864 41.7961L27.8881 44.1145C27.8004 44.1807 27.6935 44.2165 27.5837 44.2165C27.4738 44.2165 27.3669 44.1807 27.2792 44.1145L23.9812 41.796C23.5168 41.4629 22.9606 41.2821 22.3891 41.2786L18.3582 41.2158C18.2484 41.2178 18.141 41.184 18.0521 41.1194C17.9633 41.0548 17.8979 40.9631 17.8659 40.858L16.5606 37.0439C16.3807 36.5014 16.0369 36.0281 15.5765 35.6894L12.352 33.2694C12.2619 33.2065 12.1948 33.1159 12.1608 33.0114C12.1269 32.9069 12.1279 32.7941 12.1638 32.6903L13.3496 28.8373C13.5229 28.2927 13.5229 27.7078 13.3496 27.1632L12.1638 23.3102C12.1279 23.2063 12.1269 23.0936 12.1608 22.9891C12.1948 22.8846 12.2619 22.794 12.352 22.7311L15.5761 20.311C16.0364 19.9723 16.3803 19.499 16.5601 18.9565L17.8655 15.1424C17.8975 15.0373 17.9629 14.9456 18.0517 14.881C18.1405 14.8165 18.248 14.7826 18.3578 14.7846L22.3885 14.7217C22.9602 14.7184 23.5167 14.5376 23.9812 14.2044L27.2796 11.8862C27.3673 11.8201 27.4741 11.7842 27.5839 11.7842C27.6938 11.7842 27.8006 11.8201 27.8883 11.8862L31.186 14.2047C31.6503 14.5378 32.2067 14.7186 32.7782 14.722L36.8091 14.7849C36.9189 14.7829 37.0263 14.8168 37.1152 14.8813C37.204 14.9459 37.2694 15.0376 37.3014 15.1427L38.6067 18.9567C38.7866 19.4993 39.1304 19.9726 39.5907 20.3113L42.8153 22.7314C42.9054 22.7943 42.9725 22.8849 43.0065 22.9894C43.0405 23.0939 43.0394 23.2066 43.0035 23.3105L41.8177 27.1634C41.6443 27.708 41.6443 28.293 41.8177 28.8376L43.0035 32.6905C43.0394 32.7943 43.0404 32.907 43.0064 33.0115C42.9724 33.116 42.9054 33.2065 42.8153 33.2694ZM33.8674 23.904C33.9702 24.0161 34.0499 24.1474 34.1019 24.2903C34.154 24.4333 34.1773 24.5851 34.1707 24.737C34.1641 24.889 34.1276 25.0382 34.0633 25.176C33.9991 25.3139 33.9083 25.4377 33.7961 25.5405L26.5651 32.168C26.3514 32.3637 26.0722 32.4722 25.7825 32.4721C25.7605 32.4721 25.7386 32.4715 25.7166 32.4702C25.5621 32.4614 25.411 32.4218 25.2721 32.3536C25.1332 32.2854 25.0094 32.1901 24.9079 32.0733L21.2799 27.8961C21.1796 27.7814 21.103 27.648 21.0544 27.5035C21.0058 27.3591 20.9862 27.2065 20.9967 27.0545C21.0072 26.9024 21.0476 26.754 21.1155 26.6176C21.1835 26.4812 21.2777 26.3596 21.3927 26.2596C21.5078 26.1597 21.6414 26.0835 21.786 26.0353C21.9306 25.9871 22.0832 25.9679 22.2352 25.9788C22.3872 25.9897 22.5356 26.0305 22.6718 26.0989C22.808 26.1672 22.9293 26.2618 23.0289 26.3771L25.8768 29.6565L32.2309 23.8329C32.4573 23.6253 32.757 23.5162 33.0639 23.5295C33.3708 23.5428 33.6598 23.6775 33.8674 23.904Z" fill="white"/>
</svg>
