<svg width="56" height="56" viewBox="0 0 56 56" fill="none" xmlns="http://www.w3.org/2000/svg">
<circle cx="28" cy="28" r="28" fill="#06828E"/>
<g clip-path="url(#clip0_13694_21539)">
<path d="M41.0625 29C41.0625 26.4165 40.2964 23.891 38.8611 21.7429C37.4258 19.5948 35.3857 17.9205 32.9988 16.9318C30.6119 15.9432 27.9855 15.6845 25.4516 16.1885C22.9178 16.6925 20.5902 17.9366 18.7634 19.7634C16.9366 21.5902 15.6925 23.9178 15.1885 26.4516C14.6845 28.9855 14.9432 31.6119 15.9318 33.9988C16.9205 36.3857 18.5948 38.4258 20.7429 39.8611C22.891 41.2964 25.4165 42.0625 28 42.0625C31.4632 42.0587 34.7835 40.6812 37.2324 38.2324C39.6812 35.7835 41.0587 32.4632 41.0625 29ZM16.3125 29C16.3125 26.6884 16.998 24.4288 18.2822 22.5068C19.5664 20.5848 21.3918 19.0868 23.5274 18.2022C25.663 17.3176 28.013 17.0861 30.2801 17.5371C32.5473 17.988 34.6298 19.1012 36.2643 20.7357C37.8988 22.3702 39.012 24.4527 39.4629 26.7199C39.9139 28.987 39.6824 31.337 38.7978 33.4726C37.9132 35.6082 36.4152 37.4336 34.4932 38.7178C32.5712 40.002 30.3116 40.6875 28 40.6875C24.9013 40.684 21.9306 39.4516 19.7395 37.2605C17.5484 35.0694 16.316 32.0987 16.3125 29Z" fill="white"/>
<path d="M45.9551 17.5133C45.828 17.3146 45.6966 17.1166 45.5626 16.9227L44.4316 17.7024C44.5568 17.8857 44.6794 18.069 44.7995 18.2524L45.9551 17.5133Z" fill="white"/>
<path d="M14.7031 45.6573C15.0799 45.9577 15.4649 46.2444 15.8471 46.5105L16.6316 45.3809C16.2658 45.1265 15.9083 44.8591 15.5598 44.582L14.7031 45.6573Z" fill="white"/>
<path d="M47.9265 28.3372L49.3015 28.2919C49.2863 27.8147 49.2547 27.3362 49.2087 26.868L47.8398 27.0055C47.8829 27.4446 47.9118 27.8885 47.9265 28.3372Z" fill="white"/>
<path d="M47.6631 25.6803L49.0189 25.4535C48.9398 24.9818 48.8442 24.5116 48.7356 24.0537L47.3984 24.372C47.4995 24.7996 47.5889 25.2396 47.6631 25.6803Z" fill="white"/>
<path d="M17.0469 47.2875C17.4484 47.5281 17.8719 47.7618 18.2961 47.9805L18.9231 46.7574C18.5243 46.5511 18.1318 46.3346 17.7543 46.1084L17.0469 47.2875Z" fill="white"/>
<path d="M46.0848 20.5933L47.3305 20.0137C47.1325 19.5875 46.918 19.1592 46.685 18.7405L45.4805 19.4025C45.6957 19.7944 45.8985 20.1945 46.0848 20.5933Z" fill="white"/>
<path d="M47.0441 23.0879L48.3572 22.6809C48.2197 22.232 48.0609 21.7782 47.8883 21.332L46.6055 21.8263C46.7691 22.2409 46.9155 22.6651 47.0441 23.0879Z" fill="white"/>
<path d="M40.3184 44.6787L41.1681 45.7595C41.5421 45.4652 41.9092 45.1558 42.2599 44.8396L41.3372 43.8193C41.0114 44.1143 40.6683 44.4003 40.3184 44.6787Z" fill="white"/>
<path d="M42.3008 42.8908L43.286 43.8533C43.6187 43.5095 43.9412 43.1554 44.2485 42.7959L43.1993 41.9062C42.9154 42.239 42.6129 42.5711 42.3008 42.8908Z" fill="white"/>
<path d="M44.0312 40.8561L45.1354 41.6756C45.4172 41.2961 45.6895 40.9008 45.9473 40.5L44.7903 39.7568C44.5496 40.1315 44.2946 40.5014 44.0312 40.8561Z" fill="white"/>
<path d="M38.1152 46.1871L38.8144 47.3716C39.2269 47.1283 39.6312 46.8705 40.0182 46.6051L39.2414 45.4707C38.879 45.7161 38.5002 45.9575 38.1152 46.1871Z" fill="white"/>
<path d="M35.7344 47.3815L36.2686 48.6492C36.7058 48.4643 37.141 48.2642 37.5631 48.0518L36.9444 46.8232C36.5488 47.0226 36.1455 47.2087 35.7344 47.3815Z" fill="white"/>
<path d="M47.3945 33.6377L48.7317 33.956C48.8424 33.4906 48.938 33.0203 49.0157 32.557L47.6599 32.3301C47.587 32.7625 47.4977 33.2025 47.3945 33.6377Z" fill="white"/>
<path d="M47.8379 31.0065L49.2067 31.144C49.2535 30.6682 49.2851 30.1897 49.3002 29.7209L47.9252 29.6748C47.9115 30.1217 47.8819 30.5651 47.8379 31.0065Z" fill="white"/>
<path d="M45.4727 38.6084L46.6772 39.2726C46.9054 38.8601 47.1233 38.4297 47.3241 37.9986L46.0804 37.417C45.89 37.8199 45.6872 38.2207 45.4727 38.6084Z" fill="white"/>
<path d="M46.6016 36.1883L47.8838 36.6839C48.0543 36.2432 48.2117 35.7902 48.354 35.3344L47.0409 34.9219C46.9089 35.3509 46.7604 35.7758 46.6016 36.1883Z" fill="white"/>
<path d="M22.2812 49.5363C22.7426 49.6649 23.2094 49.7776 23.6693 49.8718L23.9443 48.525C23.5146 48.4363 23.0781 48.3311 22.6463 48.2108L22.2812 49.5363Z" fill="white"/>
<path d="M33.2129 48.2496L33.5725 49.5765C34.0324 49.452 34.4916 49.3111 34.9371 49.1578L34.4896 47.8584C34.0736 48.0014 33.644 48.1327 33.2129 48.2496Z" fill="white"/>
<path d="M19.5898 48.5878C20.0264 48.7755 20.474 48.9508 20.9188 49.1076L21.3767 47.8103C20.9554 47.6627 20.5407 47.5007 20.1323 47.3242L19.5898 48.5878Z" fill="white"/>
<path d="M28.0004 48.9372H27.9316V50.3122H28.0004C28.4532 50.3122 28.9033 50.2979 29.3506 50.2695L29.2661 48.8945C28.8472 48.9229 28.4253 48.9372 28.0004 48.9372Z" fill="white"/>
<path d="M25.0781 50.1141C25.5511 50.1787 26.0289 50.2275 26.4978 50.2605L26.5934 48.8855C26.1465 48.8546 25.6996 48.8079 25.2638 48.748L25.0781 50.1141Z" fill="white"/>
<path d="M30.5957 48.7704L30.7731 50.133C31.2468 50.0718 31.7198 49.9955 32.1811 49.902L31.9123 48.5538C31.4812 48.6391 31.0385 48.7126 30.5957 48.7704Z" fill="white"/>
<path d="M13.082 44.2196C13.2512 44.386 13.423 44.5492 13.5977 44.7091L14.5258 43.6951C14.3635 43.5459 14.2027 43.3939 14.0445 43.2393L13.082 44.2196Z" fill="white"/>
<path d="M28.0001 9.06255C33.1158 9.07134 38.0338 11.0395 41.7432 14.5625H39.6876V15.9375H43.1251C43.3074 15.9375 43.4823 15.8651 43.6112 15.7362C43.7401 15.6073 43.8126 15.4324 43.8126 15.25V11.8125H42.4376V13.3333C39.3938 10.5252 35.5975 8.6652 31.5133 7.98068C27.429 7.29617 23.2337 7.81686 19.4407 9.47908C15.6477 11.1413 12.4214 13.873 10.1564 17.3399C7.89142 20.8069 6.68599 24.8588 6.68758 29C6.67502 33.6135 8.17198 38.1043 10.9501 41.7875L12.0501 40.9626C9.8285 38.0004 8.47566 34.4782 8.14314 30.7905C7.81062 27.1029 8.51157 23.3955 10.1674 20.0837C11.8233 16.772 14.3687 13.9868 17.5183 12.0402C20.668 10.0936 24.2974 9.06255 28.0001 9.06255Z" fill="white"/>
<path d="M43.8125 29C43.8125 25.8726 42.8851 22.8154 41.1476 20.2151C39.4101 17.6147 36.9405 15.588 34.0512 14.3912C31.1618 13.1944 27.9825 12.8812 24.9151 13.4913C21.8478 14.1015 19.0303 15.6075 16.8189 17.8189C14.6075 20.0303 13.1015 22.8478 12.4913 25.9151C11.8812 28.9825 12.1944 32.1618 13.3912 35.0512C14.588 37.9405 16.6147 40.4101 19.2151 42.1476C21.8154 43.8851 24.8726 44.8125 28 44.8125C32.1923 44.808 36.2117 43.1405 39.1761 40.1761C42.1405 37.2117 43.808 33.1923 43.8125 29ZM13.5625 29C13.5625 26.1445 14.4093 23.3532 15.9957 20.979C17.5821 18.6047 19.8369 16.7542 22.475 15.6615C25.1131 14.5688 28.016 14.2828 30.8166 14.8399C33.6172 15.397 36.1897 16.772 38.2089 18.7912C40.228 20.8103 41.603 23.3828 42.1601 26.1834C42.7172 28.984 42.4313 31.8869 41.3385 34.525C40.2458 37.1631 38.3953 39.4179 36.0211 41.0044C33.6468 42.5908 30.8555 43.4375 28 43.4375C24.1723 43.4331 20.5026 41.9107 17.796 39.204C15.0894 36.4974 13.5669 32.8277 13.5625 29Z" fill="white"/>
<path fill-rule="evenodd" clip-rule="evenodd" d="M27.0155 22.2232C27.6381 21.9256 28.3619 21.9256 28.9845 22.2232C29.2549 22.3525 29.5027 22.5639 29.8459 22.8566C29.8637 22.8718 29.8819 22.8872 29.9002 22.9028C30.0668 23.0448 30.1193 23.0885 30.1724 23.1241C30.3075 23.2146 30.4592 23.2775 30.6187 23.309C30.6815 23.3213 30.7494 23.3276 30.9677 23.345C30.9917 23.3469 31.0154 23.3488 31.0387 23.3506C31.4883 23.3863 31.8131 23.4121 32.0957 23.5119C32.7465 23.7418 33.2582 24.2535 33.488 24.9042C33.5879 25.1869 33.6136 25.5116 33.6493 25.9612C33.6512 25.9846 33.653 26.0082 33.655 26.0323C33.6724 26.2505 33.6786 26.3185 33.691 26.3812C33.7225 26.5408 33.7853 26.6925 33.8758 26.8275C33.9115 26.8807 33.9551 26.9331 34.0972 27.0998C34.1128 27.1181 34.1282 27.1362 34.1434 27.154C34.4361 27.4972 34.6475 27.745 34.7768 28.0155C35.0744 28.6381 35.0744 29.3619 34.7768 29.9845C34.6475 30.2549 34.4361 30.5027 34.1434 30.8459C34.1282 30.8637 34.1128 30.8818 34.0972 30.9002C33.9551 31.0668 33.9115 31.1193 33.8758 31.1724C33.7853 31.3075 33.7225 31.4592 33.691 31.6187C33.6786 31.6815 33.6724 31.7494 33.655 31.9677C33.653 31.9917 33.6512 32.0154 33.6493 32.0387C33.6136 32.4883 33.5879 32.8131 33.488 33.0957C33.2582 33.7465 32.7465 34.2582 32.0957 34.488C31.8131 34.5879 31.4883 34.6136 31.0387 34.6493C31.0154 34.6512 30.9917 34.653 30.9677 34.655C30.7494 34.6724 30.6815 34.6786 30.6187 34.691C30.4592 34.7225 30.3075 34.7853 30.1724 34.8758C30.1193 34.9115 30.0668 34.9551 29.9002 35.0972C29.8818 35.1128 29.8637 35.1282 29.8459 35.1434C29.5027 35.4361 29.2549 35.6475 28.9845 35.7768C28.3619 36.0744 27.6381 36.0744 27.0155 35.7768C26.745 35.6475 26.4972 35.4361 26.154 35.1434C26.1362 35.1282 26.1181 35.1128 26.0998 35.0972C25.9331 34.9551 25.8807 34.9115 25.8275 34.8758C25.6925 34.7853 25.5408 34.7225 25.3812 34.691C25.3185 34.6786 25.2505 34.6724 25.0323 34.655C25.0082 34.653 24.9846 34.6512 24.9612 34.6493C24.5116 34.6136 24.1869 34.5879 23.9042 34.488C23.2535 34.2582 22.7418 33.7465 22.5119 33.0957C22.4121 32.8131 22.3863 32.4883 22.3506 32.0387C22.3488 32.0154 22.3469 31.9917 22.345 31.9677C22.3276 31.7494 22.3213 31.6815 22.309 31.6187C22.2775 31.4592 22.2146 31.3075 22.1241 31.1724C22.0885 31.1193 22.0448 31.0668 21.9028 30.9002C21.8872 30.8819 21.8718 30.8637 21.8566 30.8459C21.5639 30.5028 21.3525 30.2549 21.2232 29.9845C20.9256 29.3619 20.9256 28.6381 21.2232 28.0155C21.3525 27.745 21.5639 27.4972 21.8566 27.154C21.8718 27.1362 21.8872 27.1181 21.9028 27.0998C22.0448 26.9331 22.0885 26.8807 22.1241 26.8275C22.2146 26.6925 22.2775 26.5408 22.309 26.3812C22.3213 26.3185 22.3276 26.2505 22.345 26.0323C22.3469 26.0082 22.3488 25.9846 22.3506 25.9612C22.3863 25.5116 22.4121 25.1869 22.5119 24.9042C22.7418 24.2535 23.2535 23.7418 23.9042 23.5119C24.1869 23.4121 24.5116 23.3863 24.9612 23.3506C24.9846 23.3488 25.0082 23.3469 25.0323 23.345C25.2505 23.3276 25.3185 23.3213 25.3812 23.309C25.5408 23.2775 25.6925 23.2146 25.8275 23.1241C25.8807 23.0885 25.9331 23.0448 26.0998 22.9028C26.1181 22.8872 26.1362 22.8718 26.154 22.8566C26.4972 22.5639 26.745 22.3525 27.0155 22.2232ZM28.5301 23.1738C28.1949 23.0136 27.8051 23.0136 27.4699 23.1738C27.3403 23.2358 27.2037 23.3465 26.7832 23.7048C26.7763 23.7106 26.7695 23.7164 26.7628 23.7222C26.6248 23.8398 26.5241 23.9257 26.4142 23.9993C26.1633 24.1675 25.8816 24.2842 25.5853 24.3427C25.4555 24.3683 25.3236 24.3788 25.1428 24.3932C25.134 24.3939 25.1251 24.3946 25.1161 24.3953C24.5654 24.4392 24.3906 24.4576 24.2551 24.5054C23.9048 24.6292 23.6292 24.9048 23.5054 25.2551C23.4576 25.3906 23.4392 25.5654 23.3953 26.1161C23.3946 26.1251 23.3939 26.134 23.3932 26.1428C23.3788 26.3236 23.3683 26.4555 23.3427 26.5853C23.2842 26.8816 23.1675 27.1633 22.9993 27.4142C22.9257 27.5241 22.8398 27.6248 22.7222 27.7628C22.7164 27.7695 22.7106 27.7763 22.7048 27.7832C22.3465 28.2037 22.2358 28.3403 22.1738 28.4699C22.0136 28.8051 22.0136 29.1949 22.1738 29.5301C22.2358 29.6597 22.3465 29.7963 22.7048 30.2167C22.7106 30.2236 22.7164 30.2304 22.7222 30.2372C22.8398 30.3752 22.9257 30.4759 22.9993 30.5858C23.1675 30.8366 23.2842 31.1184 23.3427 31.4146C23.3683 31.5444 23.3788 31.6764 23.3932 31.8571C23.3939 31.8659 23.3946 31.8749 23.3953 31.8839C23.4392 32.4345 23.4576 32.6094 23.5054 32.7448C23.6292 33.0952 23.9048 33.3708 24.2551 33.4945C24.3906 33.5424 24.5654 33.5607 25.1161 33.6046L25.1428 33.6068C25.3236 33.6212 25.4555 33.6317 25.5853 33.6573C25.8816 33.7158 26.1633 33.8325 26.4142 34.0006C26.5241 34.0743 26.6248 34.1602 26.7628 34.2778L26.7832 34.2952C27.2037 34.6535 27.3403 34.7642 27.4699 34.8261C27.8051 34.9864 28.1949 34.9864 28.5301 34.8261C28.6597 34.7642 28.7963 34.6535 29.2167 34.2952L29.2372 34.2778C29.3752 34.1602 29.4759 34.0743 29.5858 34.0006C29.8366 33.8325 30.1184 33.7158 30.4146 33.6573C30.5444 33.6317 30.6764 33.6212 30.8571 33.6068L30.8839 33.6046C31.4345 33.5607 31.6094 33.5424 31.7448 33.4945C32.0952 33.3708 32.3708 33.0952 32.4945 32.7448C32.5424 32.6094 32.5607 32.4345 32.6046 31.8839L32.6068 31.8571C32.6212 31.6764 32.6317 31.5444 32.6573 31.4146C32.7158 31.1184 32.8325 30.8366 33.0006 30.5858C33.0743 30.4759 33.1602 30.3752 33.2778 30.2372L33.2952 30.2167C33.6535 29.7963 33.7642 29.6597 33.8261 29.5301C33.9864 29.1949 33.9864 28.8051 33.8261 28.4699C33.7642 28.3403 33.6535 28.2037 33.2952 27.7832L33.2778 27.7627C33.1602 27.6248 33.0743 27.5241 33.0006 27.4142C32.8325 27.1633 32.7158 26.8816 32.6573 26.5853C32.6317 26.4555 32.6212 26.3236 32.6068 26.1428L32.6046 26.1161C32.5607 25.5654 32.5424 25.3906 32.4945 25.2551C32.3708 24.9048 32.0952 24.6292 31.7448 24.5054C31.6094 24.4576 31.4345 24.4392 30.8839 24.3953C30.8749 24.3946 30.8659 24.3939 30.8571 24.3932C30.6764 24.3788 30.5444 24.3683 30.4146 24.3427C30.1184 24.2842 29.8366 24.1675 29.5858 23.9993C29.4759 23.9257 29.3752 23.8398 29.2372 23.7222C29.2304 23.7164 29.2236 23.7106 29.2167 23.7048C28.7963 23.3465 28.6597 23.2358 28.5301 23.1738Z" fill="white"/>
<path fill-rule="evenodd" clip-rule="evenodd" d="M30.4792 26.5201C30.6849 26.7259 30.6849 27.0595 30.4792 27.2652L26.2646 31.4798C26.0588 31.6855 25.7253 31.6855 25.5195 31.4798C25.3138 31.274 25.3138 30.9405 25.5195 30.7348L29.7342 26.5201C29.9399 26.3144 30.2734 26.3144 30.4792 26.5201Z" fill="white"/>
<path d="M30.4586 30.7562C30.4586 31.1441 30.1441 31.4586 29.7562 31.4586C29.3682 31.4586 29.0537 31.1441 29.0537 30.7562C29.0537 30.3682 29.3682 30.0537 29.7562 30.0537C30.1441 30.0537 30.4586 30.3682 30.4586 30.7562Z" fill="white"/>
<path d="M26.9469 27.2439C26.9469 27.6319 26.6324 27.9464 26.2444 27.9464C25.8565 27.9464 25.542 27.6319 25.542 27.2439C25.542 26.856 25.8565 26.5415 26.2444 26.5415C26.6324 26.5415 26.9469 26.856 26.9469 27.2439Z" fill="white"/>
</g>
<defs>
<clipPath id="clip0_13694_21539">
<rect width="44" height="44" fill="white" transform="translate(6 7)"/>
</clipPath>
</defs>
</svg>
