<svg width="24" height="23" viewBox="0 0 24 23" fill="none" xmlns="http://www.w3.org/2000/svg">
<path d="M17.9347 10.6052L18.2033 9.64189L17.9347 10.6052ZM18.3539 11.0274L19.3282 10.8021L18.3539 11.0274ZM12.8019 4.68592L13.1486 3.74793L12.8019 4.68592ZM13.1651 5.15869L12.176 5.306L13.1651 5.15869ZM20.8161 1C20.8161 0.447715 20.3684 0 19.8161 0C19.2638 0 18.8161 0.447715 18.8161 1H20.8161ZM18.8161 7.6006C18.8161 8.15288 19.2638 8.6006 19.8161 8.6006C20.3684 8.6006 20.8161 8.15288 20.8161 7.6006H18.8161ZM16.5761 3.31494C16.0238 3.31494 15.5761 3.76266 15.5761 4.31494C15.5761 4.86723 16.0238 5.31494 16.5761 5.31494V3.31494ZM23 5.31494C23.5523 5.31494 24 4.86723 24 4.31494C24 3.76266 23.5523 3.31494 23 3.31494V5.31494ZM7.69859 14.3287C7.41143 13.857 6.79621 13.7073 6.32444 13.9945C5.85268 14.2816 5.70304 14.8969 5.9902 15.3686L7.69859 14.3287ZM14.0239 15.3686C14.3111 14.8969 14.1614 14.2816 13.6897 13.9945C13.2179 13.7073 12.6027 13.857 12.3155 14.3287L14.0239 15.3686ZM7.22926 9.9425V8.9425C6.67697 8.9425 6.22926 9.39021 6.22926 9.9425H7.22926ZM7.32013 9.9425H8.32013C8.32013 9.39021 7.87241 8.9425 7.32013 8.9425V9.9425ZM12.703 9.9425V8.9425C12.1507 8.9425 11.703 9.39021 11.703 9.9425H12.703ZM12.7838 9.9425H13.7838C13.7838 9.39021 13.3361 8.9425 12.7838 8.9425V9.9425ZM7.32013 10.0168V11.0168C7.87241 11.0168 8.32013 10.5691 8.32013 10.0168H7.32013ZM7.22926 10.0168H6.22926C6.22926 10.5691 6.67697 11.0168 7.22926 11.0168V10.0168ZM12.7838 10.0168V11.0168C13.3361 11.0168 13.7838 10.5691 13.7838 10.0168H12.7838ZM12.703 10.0168H11.703C11.703 10.5691 12.1507 11.0168 12.703 11.0168V10.0168ZM13.1486 3.74793C12.1008 3.3607 10.9703 3.1498 9.79321 3.1498V5.1498C10.7298 5.1498 11.6258 5.31736 12.4552 5.62391L13.1486 3.74793ZM18.2033 9.64189C16.1041 9.05667 14.4878 7.25138 14.1542 5.01138L12.176 5.306C12.6251 8.32165 14.8019 10.7699 17.6662 11.5684L18.2033 9.64189ZM19.5864 13.0749C19.5864 12.294 19.4973 11.533 19.3282 10.8021L17.3797 11.2527C17.5147 11.8368 17.5864 12.4467 17.5864 13.0749H19.5864ZM9.79321 23C15.2158 23 19.5864 18.5423 19.5864 13.0749H17.5864C17.5864 17.4659 14.0833 21 9.79321 21V23ZM0 13.0749C0 18.5423 4.37059 23 9.79321 23V21C5.50312 21 2 17.4659 2 13.0749H0ZM9.79321 3.1498C4.37059 3.1498 0 7.60751 0 13.0749H2C2 8.6839 5.50312 5.1498 9.79321 5.1498V3.1498ZM17.6662 11.5684C17.5619 11.5394 17.4236 11.4428 17.3797 11.2527L19.3282 10.8021C19.1875 10.1934 18.7153 9.78466 18.2033 9.64189L17.6662 11.5684ZM12.4552 5.62391C12.2588 5.5513 12.1893 5.39523 12.176 5.306L14.1542 5.01138C14.0776 4.49704 13.7424 3.96741 13.1486 3.74793L12.4552 5.62391ZM18.8161 1V7.6006H20.8161V1H18.8161ZM16.5761 5.31494H23V3.31494H16.5761V5.31494ZM10.0071 15.6663C9.0548 15.6663 8.19755 15.1484 7.69859 14.3287L5.9902 15.3686C6.82156 16.7344 8.30007 17.6663 10.0071 17.6663V15.6663ZM12.3155 14.3287C11.8166 15.1484 10.9593 15.6663 10.0071 15.6663V17.6663C11.7141 17.6663 13.1926 16.7344 14.0239 15.3686L12.3155 14.3287ZM7.22926 10.9425H7.32013V8.9425H7.22926V10.9425ZM12.703 10.9425H12.7838V8.9425H12.703V10.9425ZM6.32013 9.9425V10.0168H8.32013V9.9425H6.32013ZM7.32013 9.01679H7.22926V11.0168H7.32013V9.01679ZM8.22926 10.0168V9.9425H6.22926V10.0168H8.22926ZM11.7838 9.9425V10.0168H13.7838V9.9425H11.7838ZM12.7838 9.01679H12.703V11.0168H12.7838V9.01679ZM13.703 10.0168V9.9425H11.703V10.0168H13.703Z" fill="#242424"/>
</svg>
