<svg width="56" height="56" viewBox="0 0 56 56" fill="none" xmlns="http://www.w3.org/2000/svg">
<circle cx="28" cy="28" r="28" fill="#06828E"/>
<g clip-path="url(#clip0_13694_21537)">
<path d="M48.6526 25.207C47.9653 20.0603 45.4035 15.4004 41.3968 12.0352L40.5281 13.0694C44.253 16.198 46.6419 20.5224 47.3017 25.3004C46.1521 25.664 45.3285 26.7384 45.3285 27.9998C45.3285 29.261 46.1521 30.3355 47.3015 30.6993C46.7216 34.871 44.7766 38.7862 41.7815 41.7813C38.7865 44.7763 34.8712 46.7214 30.6995 47.3013C30.3357 46.1519 29.2613 45.3283 28.0001 45.3283C26.7388 45.3283 25.6645 46.152 25.3007 47.3014C20.8561 46.6853 16.7503 44.5432 13.6835 41.2245L12.6914 42.1412C15.9918 45.7126 20.4181 48.0103 25.2072 48.6522C25.4393 49.984 26.6029 51 28 51C29.3974 51 30.5609 49.9839 30.793 48.652C35.2893 48.0478 39.512 45.961 42.7365 42.7364C45.9611 39.5118 48.0478 35.2892 48.652 30.7929C49.9839 30.5609 51 29.3972 51 27.9999C51.0001 26.6028 49.9843 25.4393 48.6526 25.207ZM28.0001 49.6492C27.1812 49.6492 26.515 48.983 26.515 48.164C26.515 48.1602 26.5149 48.1562 26.5149 48.1521L26.5213 48.0827C26.5608 47.2956 27.2104 46.6789 28 46.6789C28.7897 46.6789 29.4392 47.2956 29.4788 48.0827L29.4813 48.1326L29.4851 48.1521C29.4852 48.1562 29.4852 48.1602 29.4852 48.164C29.4851 48.983 28.819 49.6492 28.0001 49.6492ZM48.1643 29.4849C48.1604 29.4849 48.1563 29.4849 48.1522 29.485L48.083 29.4786C47.2957 29.439 46.6791 28.7895 46.6791 27.9998C46.6791 27.2102 47.2957 26.5608 48.083 26.5211L48.1327 26.5187L48.1521 26.5147C48.1563 26.5148 48.1603 26.5148 48.1642 26.5148C48.9831 26.5148 49.6493 27.1809 49.6493 27.9998C49.6493 28.8187 48.9832 29.4849 48.1643 29.4849Z" fill="white"/>
<path d="M10.6716 28C10.6716 26.7387 9.84805 25.6644 8.69868 25.3006C9.27853 21.1289 11.2236 17.2137 14.2187 14.2186C17.2137 11.2236 21.1289 9.27844 25.3007 8.69859C25.6644 9.84796 26.7387 10.6716 28.0001 10.6716C29.2619 10.6716 30.3365 9.84751 30.6999 8.69751C33.7243 9.11753 36.6304 10.2548 39.1397 12.0053L39.9125 10.8974C37.2032 9.00729 34.0612 7.78614 30.793 7.34725C30.5606 6.01586 29.397 5 28 5C26.6026 5 25.4391 6.01604 25.207 7.34797C20.7107 7.95217 16.4881 10.039 13.2635 13.2635C10.0388 16.4881 7.95217 20.7108 7.34788 25.2071C6.01604 25.4391 5 26.6027 5 28C5 29.3972 6.01586 30.5607 7.34761 30.7928C7.84139 34.4798 9.31402 37.962 11.627 40.8953L12.6876 40.059C10.5428 37.3391 9.17054 34.1147 8.69769 30.6997C9.84769 30.336 10.6716 29.2615 10.6716 28ZM26.5149 7.83573C26.5149 7.01681 27.1811 6.35071 28 6.35071C28.819 6.35071 29.4852 7.01681 29.4852 7.83573C29.4852 7.8396 29.4852 7.84373 29.4852 7.84786L29.4788 7.91713C29.4392 8.70425 28.7897 9.32094 28 9.32094C27.2105 9.32094 26.5609 8.70425 26.5213 7.91713L26.5188 7.86745L26.5148 7.84786C26.5148 7.84382 26.5149 7.8396 26.5149 7.83573ZM7.86736 29.4811L7.84795 29.4851C7.84382 29.485 7.83987 29.485 7.836 29.485C7.01708 29.485 6.35089 28.8188 6.35089 27.9999C6.35089 27.1809 7.01708 26.5148 7.836 26.5148C7.83987 26.5148 7.84382 26.5148 7.84795 26.5148L7.91722 26.5211C8.70443 26.5608 9.32103 27.2102 9.32103 27.9999C9.32103 28.7895 8.70443 29.439 7.91722 29.4787L7.86736 29.4811Z" fill="white"/>
<path d="M12.2012 27.9996C12.2012 36.7109 19.2884 43.7981 27.9996 43.7981C36.7109 43.7981 43.798 36.7109 43.798 27.9996C43.798 19.2884 36.711 12.2012 27.9996 12.2012C19.2883 12.2012 12.2012 19.2883 12.2012 27.9996ZM13.5681 28.675H20.1226V34.5258H15.112C14.2111 32.7536 13.6651 30.7719 13.5681 28.675ZM20.1228 40.1052C18.4371 39.0047 16.9945 37.5621 15.894 35.8765H20.1228V40.1052ZM20.1228 27.3242H13.5682C13.6652 25.2271 14.2111 23.2456 15.1121 21.4735H20.1228V27.3242ZM20.1228 20.1228H15.8939C16.9945 18.4371 18.4371 16.9945 20.1228 15.8939V20.1228ZM27.3242 42.4311C25.2271 42.3342 23.2456 41.7883 21.4735 40.8871V35.8766H27.3242V42.4311ZM27.3242 34.5258H21.4735V28.675H27.3242V34.5258ZM27.3242 27.3242H21.4735V21.4735H27.3242V27.3242ZM27.3242 20.1228H21.4735V15.1121C23.2456 14.2111 25.2272 13.6652 27.3242 13.5681V20.1228ZM34.5257 40.8871C32.7535 41.7881 30.7719 42.334 28.675 42.431V35.8765H34.5257V40.8871ZM34.5257 34.5258H28.675V28.675H34.5257V34.5258ZM34.5257 27.3242H28.675V21.4735H34.5257V27.3242ZM35.8764 40.1052V35.8765H40.1051C39.0046 37.5621 37.562 39.0047 35.8764 40.1052ZM35.8764 15.8939C37.562 16.9945 39.0047 18.4371 40.1052 20.1228H35.8764V15.8939ZM35.8764 21.4735H40.8871C41.7881 23.2456 42.334 25.2272 42.4309 27.3242H35.8764V21.4735ZM35.8763 28.675H42.4309C42.334 30.7719 41.7881 32.7536 40.887 34.5258H35.8763V28.675ZM34.5257 20.1228H28.675V13.5681C30.7719 13.665 32.7535 14.2109 34.5257 15.112V20.1228Z" fill="white"/>
<path d="M25.12 23.7236H23.6797V25.0743H25.12V23.7236Z" fill="white"/>
<path d="M32.3193 23.7236H30.8789V25.0743H32.3193V23.7236Z" fill="white"/>
<path d="M32.3193 30.9258H30.8789V32.2765H32.3193V30.9258Z" fill="white"/>
<path d="M25.12 30.9258H23.6797V32.2765H25.12V30.9258Z" fill="white"/>
<path d="M25.12 38.127H23.6797V39.4777H25.12V38.127Z" fill="white"/>
<path d="M32.3193 38.127H30.8789V39.4777H32.3193V38.127Z" fill="white"/>
<path d="M32.3193 16.5215H30.8789V17.8722H32.3193V16.5215Z" fill="white"/>
<path d="M25.12 16.5215H23.6797V17.8722H25.12V16.5215Z" fill="white"/>
<path d="M17.9188 23.7236H16.4785V25.0743H17.9188V23.7236Z" fill="white"/>
<path d="M39.5224 23.7236H38.082V25.0743H39.5224V23.7236Z" fill="white"/>
<path d="M39.5224 30.9258H38.082V32.2765H39.5224V30.9258Z" fill="white"/>
<path d="M17.9188 30.9258H16.4785V32.2765H17.9188V30.9258Z" fill="white"/>
</g>
<defs>
<clipPath id="clip0_13694_21537">
<rect width="46" height="46" fill="white" transform="translate(5 5)"/>
</clipPath>
</defs>
</svg>
