<svg width="56" height="56" viewBox="0 0 56 56" fill="none" xmlns="http://www.w3.org/2000/svg">
<circle cx="28" cy="28" r="28" fill="#06828E"/>
<path fill-rule="evenodd" clip-rule="evenodd" d="M11.4972 27.6C11.4972 27.0891 11.9337 26.6463 12.4709 26.6463H43.4959C44.0331 26.6463 44.4696 27.0891 44.4696 27.6V36.184C44.4696 36.729 44.0331 37.1718 43.4959 37.1718H41.6827V34.6511C41.6827 34.1742 41.3134 33.7995 40.8433 33.7995C40.3732 33.7995 39.9703 34.1742 39.9703 34.6511V37.1718H37.4185V32.6073C37.4185 32.1304 37.0155 31.7557 36.5455 31.7557C36.0754 31.7557 35.706 32.1304 35.706 32.6073V37.1718H33.1206V34.6511C33.1206 34.1742 32.7513 33.7995 32.2812 33.7995C31.8111 33.7995 31.4082 34.1742 31.4082 34.6511V37.1718H28.8564V32.6073C28.8564 32.1304 28.4535 31.7557 27.9834 31.7557C27.5133 31.7557 27.144 32.1304 27.144 32.6073V37.1718H24.5586V34.6511C24.5586 34.1742 24.1892 33.7995 23.7191 33.7995C23.2491 33.7995 22.8461 34.1742 22.8461 34.6511V37.1718H20.2943V32.6073C20.2943 32.1304 19.8914 31.7557 19.4213 31.7557C18.9512 31.7557 18.5819 32.1304 18.5819 32.6073V37.1718H15.9965V34.6511C15.9965 34.1742 15.6271 33.7995 15.1571 33.7995C14.687 33.7995 14.2841 34.1742 14.2841 34.6511V37.1718H12.4709C11.9337 37.1718 11.4972 36.729 11.4972 36.184V27.6ZM17.0374 23.0356C17.4403 23.274 17.9439 23.1718 18.2126 22.763C18.4476 22.3543 18.3469 21.8093 17.9439 21.5708L16.3658 20.5489H39.6345L38.0228 21.5708C37.6535 21.8093 37.5192 22.3543 37.7878 22.763C38.0228 23.1718 38.5601 23.274 38.963 23.0356L42.925 20.4127C43.2272 20.2764 43.3615 19.9699 43.3615 19.6633C43.3615 19.3227 43.1937 19.0502 42.925 18.9139L38.963 16.3251C38.5601 16.0526 38.0228 16.1888 37.7878 16.5635C37.5192 16.9723 37.6535 17.5173 38.0228 17.7557L39.6345 18.8117H16.3658L17.9439 17.7557C18.3469 17.5173 18.4476 16.9723 18.2126 16.5635C17.9439 16.1888 17.4403 16.0526 17.0374 16.3251L13.0753 18.9139C12.7731 19.0502 12.6388 19.3227 12.6052 19.6633C12.6052 19.9699 12.7731 20.2424 13.0417 20.4127L17.0374 23.0356ZM46.182 36.184V27.6C46.182 26.1353 44.9732 24.909 43.4959 24.909H12.4709C10.9935 24.909 9.81836 26.1353 9.81836 27.6V36.184C9.81836 37.6828 10.9935 38.909 12.4709 38.909H43.4959C44.9732 38.909 46.182 37.6828 46.182 36.184Z" fill="white"/>
</svg>
