<svg width="56" height="56" viewBox="0 0 56 56" fill="none" xmlns="http://www.w3.org/2000/svg">
<circle cx="28" cy="28" r="28" fill="#06828E"/>
<path d="M45.9551 17.5134C45.828 17.3147 45.6966 17.1167 45.5626 16.9229L44.4316 17.7025C44.5568 17.8858 44.6794 18.0691 44.7995 18.2525L45.9551 17.5134Z" fill="white"/>
<path d="M14.7031 45.6573C15.0799 45.9577 15.4649 46.2444 15.8471 46.5105L16.6316 45.3809C16.2658 45.1265 15.9083 44.8591 15.5598 44.582L14.7031 45.6573Z" fill="white"/>
<path d="M47.9265 28.3374L49.3015 28.292C49.2863 27.8149 49.2547 27.3364 49.2087 26.8682L47.8398 27.0057C47.8829 27.4447 47.9118 27.8886 47.9265 28.3374Z" fill="white"/>
<path d="M47.6631 25.6803L49.0189 25.4535C48.9398 24.9818 48.8442 24.5116 48.7356 24.0537L47.3984 24.372C47.4995 24.7996 47.5889 25.2396 47.6631 25.6803Z" fill="white"/>
<path d="M17.0469 47.2875C17.4484 47.5281 17.8719 47.7618 18.2961 47.9805L18.9231 46.7574C18.5243 46.5511 18.1318 46.3346 17.7543 46.1084L17.0469 47.2875Z" fill="white"/>
<path d="M46.0848 20.5933L47.3305 20.0137C47.1325 19.5875 46.918 19.1592 46.685 18.7405L45.4805 19.4025C45.6957 19.7944 45.8985 20.1945 46.0848 20.5933Z" fill="white"/>
<path d="M47.0441 23.0879L48.3572 22.6809C48.2197 22.232 48.0609 21.7782 47.8883 21.332L46.6055 21.8263C46.7691 22.2409 46.9155 22.6651 47.0441 23.0879Z" fill="white"/>
<path d="M40.3184 44.6787L41.1681 45.7595C41.5421 45.4652 41.9092 45.1558 42.2599 44.8396L41.3372 43.8193C41.0114 44.1143 40.6683 44.4003 40.3184 44.6787Z" fill="white"/>
<path d="M42.3008 42.8908L43.286 43.8533C43.6187 43.5095 43.9412 43.1554 44.2485 42.7959L43.1993 41.9062C42.9154 42.239 42.6129 42.5711 42.3008 42.8908Z" fill="white"/>
<path d="M44.0312 40.8561L45.1354 41.6756C45.4172 41.2961 45.6895 40.9008 45.9473 40.5L44.7903 39.7568C44.5496 40.1315 44.2946 40.5014 44.0312 40.8561Z" fill="white"/>
<path d="M38.1152 46.1871L38.8144 47.3716C39.2269 47.1283 39.6312 46.8705 40.0182 46.6051L39.2414 45.4707C38.879 45.7161 38.5002 45.9575 38.1152 46.1871Z" fill="white"/>
<path d="M35.7344 47.3815L36.2686 48.6492C36.7058 48.4643 37.141 48.2642 37.5631 48.0518L36.9444 46.8232C36.5488 47.0226 36.1455 47.2087 35.7344 47.3815Z" fill="white"/>
<path d="M47.3945 33.6377L48.7317 33.956C48.8424 33.4906 48.938 33.0203 49.0157 32.557L47.6599 32.3301C47.587 32.7625 47.4977 33.2025 47.3945 33.6377Z" fill="white"/>
<path d="M47.8379 31.0065L49.2067 31.144C49.2535 30.6682 49.2851 30.1897 49.3002 29.7209L47.9252 29.6748C47.9115 30.1217 47.8819 30.5651 47.8379 31.0065Z" fill="white"/>
<path d="M45.4727 38.6084L46.6772 39.2726C46.9054 38.8601 47.1233 38.4297 47.3241 37.9986L46.0804 37.417C45.89 37.8199 45.6872 38.2207 45.4727 38.6084Z" fill="white"/>
<path d="M46.6016 36.1883L47.8838 36.6839C48.0543 36.2432 48.2117 35.7902 48.354 35.3344L47.0409 34.9219C46.9089 35.3509 46.7604 35.7758 46.6016 36.1883Z" fill="white"/>
<path d="M22.2812 49.5362C22.7426 49.6648 23.2094 49.7775 23.6693 49.8717L23.9443 48.5249C23.5146 48.4362 23.0781 48.331 22.6463 48.2107L22.2812 49.5362Z" fill="white"/>
<path d="M33.2129 48.2496L33.5725 49.5765C34.0324 49.452 34.4916 49.3111 34.9371 49.1578L34.4896 47.8584C34.0736 48.0014 33.644 48.1327 33.2129 48.2496Z" fill="white"/>
<path d="M19.5898 48.5878C20.0264 48.7755 20.474 48.9508 20.9188 49.1076L21.3767 47.8103C20.9554 47.6627 20.5407 47.5007 20.1323 47.3242L19.5898 48.5878Z" fill="white"/>
<path d="M28.0004 48.9372H27.9316V50.3122H28.0004C28.4532 50.3122 28.9033 50.2979 29.3506 50.2695L29.2661 48.8945C28.8472 48.9229 28.4253 48.9372 28.0004 48.9372Z" fill="white"/>
<path d="M25.0781 50.1141C25.5511 50.1787 26.0289 50.2275 26.4978 50.2605L26.5934 48.8855C26.1465 48.8546 25.6996 48.8079 25.2638 48.748L25.0781 50.1141Z" fill="white"/>
<path d="M30.5957 48.7703L30.7731 50.1329C31.2468 50.0717 31.7198 49.9954 32.1811 49.9019L31.9123 48.5537C31.4812 48.639 31.0385 48.7125 30.5957 48.7703Z" fill="white"/>
<path d="M13.082 44.2196C13.2512 44.386 13.423 44.5492 13.5977 44.7091L14.5258 43.6951C14.3635 43.5459 14.2027 43.3939 14.0445 43.2393L13.082 44.2196Z" fill="white"/>
<g clip-path="url(#clip0_13694_21536)">
<path fill-rule="evenodd" clip-rule="evenodd" d="M26.4529 18.351C27.4313 17.8833 28.5687 17.8833 29.547 18.351C29.972 18.5541 30.3614 18.8863 30.9008 19.3463C30.9287 19.3702 30.9572 19.3944 30.986 19.4189C31.2478 19.6421 31.3303 19.7107 31.4138 19.7667C31.6261 19.9089 31.8645 20.0077 32.1152 20.0572C32.2137 20.0766 32.3205 20.0864 32.6635 20.1138C32.7012 20.1168 32.7385 20.1198 32.7752 20.1227C33.4817 20.1787 33.992 20.2192 34.4362 20.3761C35.4587 20.7373 36.2629 21.5415 36.6241 22.564C36.7809 23.0082 36.8214 23.5184 36.8775 24.225C36.8805 24.2617 36.8833 24.2989 36.8864 24.3367C36.9138 24.6796 36.9236 24.7865 36.9431 24.8851C36.9924 25.1357 37.0912 25.3741 37.2334 25.5864C37.2894 25.6699 37.3581 25.7523 37.5813 26.0142C37.6058 26.043 37.63 26.0715 37.6539 26.0994C38.1139 26.6387 38.4461 27.0281 38.6493 27.4532C39.1169 28.4315 39.1169 29.5689 38.6493 30.5472C38.4461 30.9723 38.1139 31.3617 37.6539 31.901C37.63 31.929 37.6058 31.9573 37.5813 31.9863C37.3581 32.2481 37.2894 32.3306 37.2334 32.4141C37.0912 32.6264 36.9924 32.8647 36.9431 33.1154C36.9236 33.214 36.9138 33.3208 36.8864 33.6638C36.8833 33.7015 36.8805 33.7388 36.8775 33.7754C36.8214 34.4819 36.7809 34.9922 36.6241 35.4364C36.2629 36.459 35.4587 37.2632 34.4362 37.6243C33.992 37.7812 33.4817 37.8216 32.7752 37.8777C32.7385 37.8807 32.7012 37.8836 32.6635 37.8866C32.3205 37.914 32.2137 37.9238 32.1152 37.9433C31.8645 37.9927 31.6261 38.0915 31.4138 38.2337C31.3303 38.2897 31.2478 38.3583 30.986 38.5815C30.9571 38.606 30.9287 38.6302 30.9008 38.6541C30.3614 39.1141 29.972 39.4463 29.547 39.6495C28.5687 40.1171 27.4313 40.1171 26.4529 39.6495C26.0279 39.4463 25.6384 39.1141 25.0992 38.6541C25.0712 38.6302 25.0428 38.606 25.014 38.5815C24.7521 38.3583 24.6696 38.2897 24.5862 38.2337C24.3739 38.0915 24.1355 37.9927 23.8848 37.9433C23.7862 37.9238 23.6794 37.914 23.3364 37.8866C23.2987 37.8836 23.2615 37.8807 23.2248 37.8777C22.5182 37.8216 22.0079 37.7812 21.5637 37.6243C20.5413 37.2632 19.737 36.459 19.3759 35.4364C19.219 34.9922 19.1785 34.4819 19.1224 33.7754C19.1195 33.7388 19.1166 33.7015 19.1136 33.6638C19.0862 33.3208 19.0764 33.214 19.0569 33.1154C19.0074 32.8647 18.9087 32.6264 18.7664 32.4141C18.7105 32.3306 18.6419 32.2481 18.4187 31.9863C18.3941 31.9574 18.3699 31.929 18.346 31.901C17.8861 31.3618 17.5539 30.9723 17.3507 30.5472C16.8831 29.5689 16.8831 28.4315 17.3507 27.4532C17.5539 27.0281 17.8861 26.6387 18.346 26.0994C18.3699 26.0714 18.3941 26.043 18.4187 26.0142C18.6419 25.7523 18.7105 25.6699 18.7664 25.5864C18.9087 25.3741 19.0074 25.1357 19.0569 24.8851C19.0764 24.7865 19.0862 24.6796 19.1136 24.3367C19.1166 24.2989 19.1195 24.2617 19.1224 24.225C19.1785 23.5185 19.219 23.0082 19.3759 22.564C19.737 21.5415 20.5413 20.7373 21.5637 20.3761C22.0079 20.2192 22.5182 20.1787 23.2248 20.1227C23.2615 20.1198 23.2987 20.1168 23.3364 20.1138C23.6794 20.0864 23.7862 20.0766 23.8848 20.0572C24.1355 20.0077 24.3739 19.9089 24.5862 19.7667C24.6696 19.7107 24.7521 19.6421 25.014 19.4189C25.0428 19.3944 25.0712 19.3702 25.0992 19.3463C25.6384 18.8863 26.0279 18.5541 26.4529 18.351ZM28.833 19.8448C28.3062 19.593 27.6937 19.593 27.1669 19.8448C26.9633 19.9422 26.7486 20.1161 26.088 20.6791C26.0771 20.6884 26.0664 20.6975 26.0558 20.7065C25.8389 20.8914 25.6807 21.0263 25.508 21.1421C25.1138 21.4063 24.6711 21.5896 24.2055 21.6816C24.0015 21.7218 23.7942 21.7383 23.5102 21.7609C23.4964 21.762 23.4823 21.7632 23.4681 21.7643C22.6028 21.8333 22.328 21.8622 22.1152 21.9373C21.5646 22.1318 21.1316 22.5649 20.9371 23.1154C20.8619 23.3283 20.8331 23.6031 20.764 24.4684C20.7629 24.4826 20.7618 24.4966 20.7607 24.5104C20.7381 24.7945 20.7216 25.0018 20.6813 25.2058C20.5894 25.6713 20.406 26.114 20.1418 26.5082C20.0261 26.6809 19.8911 26.8392 19.7063 27.0561C19.6973 27.0666 19.6881 27.0773 19.6789 27.0882C19.1159 27.7489 18.9419 27.9636 18.8446 28.1672C18.5928 28.694 18.5928 29.3065 18.8446 29.8332C18.9419 30.0368 19.1159 30.2516 19.6789 30.9122C19.6882 30.9231 19.6973 30.9338 19.7063 30.9443C19.8911 31.1613 20.0261 31.3194 20.1418 31.4921C20.406 31.8864 20.5894 32.3291 20.6813 32.7947C20.7216 32.9986 20.7381 33.2059 20.7607 33.49C20.7618 33.5038 20.7629 33.5179 20.764 33.5321C20.8331 34.3973 20.8619 34.6721 20.9371 34.885C21.1316 35.4355 21.5646 35.8686 22.1152 36.0631C22.328 36.1383 22.6028 36.1671 23.4681 36.2361L23.5102 36.2395C23.7942 36.2621 24.0015 36.2786 24.2055 36.3188C24.6711 36.4108 25.1138 36.5941 25.508 36.8584C25.6807 36.9741 25.8389 37.1091 26.0558 37.2939L26.088 37.3212C26.7486 37.8843 26.9633 38.0582 27.1669 38.1556C27.6937 38.4074 28.3062 38.4074 28.833 38.1556C29.0366 38.0582 29.2513 37.8843 29.912 37.3212L29.9442 37.2939C30.161 37.1091 30.3192 36.9741 30.4919 36.8584C30.8861 36.5941 31.3289 36.4108 31.7944 36.3188C31.9983 36.2786 32.2057 36.2621 32.4897 36.2395L32.5318 36.2361C33.3971 36.1671 33.6719 36.1383 33.8847 36.0631C34.4353 35.8686 34.8683 35.4355 35.0628 34.885C35.1381 34.6721 35.1669 34.3973 35.2359 33.5321L35.2393 33.49C35.2618 33.2059 35.2783 32.9986 35.3186 32.7947C35.4105 32.3291 35.5939 31.8864 35.8581 31.4921C35.9738 31.3194 36.1088 31.1613 36.2936 30.9445L36.321 30.9122C36.8841 30.2516 37.058 30.0368 37.1553 29.8332C37.4071 29.3065 37.4071 28.694 37.1553 28.1672C37.058 27.9636 36.8841 27.7489 36.321 27.0882L36.2936 27.056C36.1088 26.8392 35.9738 26.6809 35.8581 26.5082C35.5939 26.114 35.4105 25.6713 35.3186 25.2058C35.2783 25.0018 35.2618 24.7945 35.2393 24.5104L35.2359 24.4684C35.1669 23.6031 35.1381 23.3283 35.0628 23.1154C34.8683 22.5649 34.4353 22.1318 33.8847 21.9373C33.6719 21.8622 33.3971 21.8333 32.5318 21.7643C32.5177 21.7632 32.5036 21.762 32.4897 21.7609C32.2057 21.7383 31.9983 21.7218 31.7944 21.6816C31.3289 21.5896 30.8861 21.4063 30.4919 21.1421C30.3192 21.0263 30.161 20.8914 29.9441 20.7065C29.9335 20.6975 29.9229 20.6884 29.912 20.6791C29.2513 20.1161 29.0366 19.9422 28.833 19.8448Z" fill="white"/>
<path fill-rule="evenodd" clip-rule="evenodd" d="M31.8965 25.1034C32.2198 25.4267 32.2198 25.9509 31.8965 26.2742L25.2736 32.8971C24.9503 33.2204 24.4261 33.2204 24.1028 32.8971C23.7795 32.5739 23.7795 32.0497 24.1028 31.7264L30.7258 25.1034C31.0491 24.7801 31.5732 24.7801 31.8965 25.1034Z" fill="white"/>
<path d="M31.863 31.7599C31.863 32.3695 31.3687 32.8637 30.7591 32.8637C30.1495 32.8637 29.6553 32.3695 29.6553 31.7599C29.6553 31.1502 30.1495 30.656 30.7591 30.656C31.3687 30.656 31.863 31.1502 31.863 31.7599Z" fill="white"/>
<path d="M26.3444 26.2408C26.3444 26.8504 25.8502 27.3446 25.2405 27.3446C24.6309 27.3446 24.1367 26.8504 24.1367 26.2408C24.1367 25.6312 24.6309 25.137 25.2405 25.137C25.8502 25.137 26.3444 25.6312 26.3444 26.2408Z" fill="white"/>
<path d="M10.644 28.3031C10.6978 27.043 9.92074 25.9345 8.78792 25.5221C9.54508 21.3789 11.6552 17.5502 14.7753 14.6855C17.8953 11.8208 21.8899 10.0444 26.0826 9.64291C26.3969 10.8067 27.4352 11.6754 28.6955 11.7292C29.9561 11.7829 31.0648 11.0055 31.477 9.872C34.4807 10.4206 37.3357 11.6807 39.768 13.5365L40.5874 12.4626C37.9611 10.4587 34.874 9.10475 31.6275 8.52694C31.4521 7.18685 30.3329 6.12231 28.9371 6.06275C27.541 6.00318 26.3352 6.9687 26.0465 8.28953C21.5286 8.7015 17.2209 10.6064 13.8617 13.6906C10.5025 16.7748 8.23775 20.9046 7.44234 25.3711C6.10182 25.5461 5.03709 26.6653 4.97753 28.0613C4.91797 29.4573 5.88331 30.663 7.20395 30.9517C7.54011 34.6564 8.86295 38.1982 11.0488 41.2274L12.1441 40.4372C10.1172 37.6283 8.88361 34.3483 8.55677 30.9162C9.72123 30.6019 10.5902 29.5635 10.644 28.3031ZM27.3325 8.8326C27.3674 8.01442 28.0614 7.37733 28.8796 7.41224C29.6977 7.44715 30.3349 8.14104 30.3 8.95922C30.2999 8.96308 30.2997 8.96721 30.2995 8.97134L30.2902 9.04027C30.2171 9.82499 29.5419 10.4134 28.7529 10.3798C27.9641 10.3461 27.3414 9.70229 27.3354 8.9142L27.335 8.86445L27.3319 8.84472C27.3321 8.84068 27.3323 8.83646 27.3325 8.8326ZM7.77914 29.6634L7.75958 29.6665C7.75546 29.6662 7.75151 29.6661 7.74765 29.6659C6.92947 29.631 6.29228 28.937 6.32719 28.1188C6.36211 27.3006 7.05609 26.6635 7.87427 26.6985C7.87812 26.6986 7.88207 26.6988 7.88621 26.6989L7.95514 26.7082C8.73995 26.7813 9.3283 27.4565 9.29463 28.2454C9.26097 29.0344 8.61725 29.657 7.82906 29.6631L7.77914 29.6634Z" fill="white"/>
</g>
<defs>
<clipPath id="clip0_13694_21536">
<rect width="44" height="44" fill="white" transform="translate(48.042 50.918) rotate(-177.557)"/>
</clipPath>
</defs>
</svg>
