<svg xmlns="http://www.w3.org/2000/svg">
  <symbol id="arrow" width="22" height="20" viewBox="0 0 22 20" fill="none" xmlns="http://www.w3.org/2000/svg">
    <path d="M2.5 10H17.5M17.5 10L11.25 4M17.5 10L11.25 16" stroke="currentColor" stroke-width="5" stroke-linecap="square" />
  </symbol>

  <symbol id="heart" width="26" height="26" viewBox="0 0 26 26" fill="none" xmlns="http://www.w3.org/2000/svg">
    <path fill-rule="evenodd" clip-rule="evenodd" d="M4.12356 6.72361C5.09871 5.74876 6.42111 5.20112 7.79996 5.20112C9.17882 5.20112 10.5012 5.74876 11.4764 6.72361L13 8.24591L14.5236 6.72361C15.0032 6.22695 15.577 5.83081 16.2115 5.55828C16.8459 5.28575 17.5282 5.1423 18.2187 5.1363C18.9091 5.1303 19.5939 5.26187 20.2329 5.52333C20.872 5.7848 21.4526 6.17091 21.9408 6.65915C22.4291 7.14739 22.8152 7.72798 23.0766 8.36705C23.3381 9.00611 23.4697 9.69084 23.4637 10.3813C23.4577 11.0717 23.3142 11.7541 23.0417 12.3885C22.7692 13.0229 22.373 13.5967 21.8764 14.0764L13 22.9541L4.12356 14.0764C3.14871 13.1013 2.60107 11.7789 2.60107 10.4C2.60107 9.02115 3.14871 7.69875 4.12356 6.72361V6.72361Z" stroke="white" stroke-linejoin="round" />
  </symbol>

  <symbol id="order" width="20" height="20" viewBox="0 0 20 20" fill="none" xmlns="http://www.w3.org/2000/svg">
    <path d="M19 10C19 14.9706 14.9706 19 10 19C5.02944 19 1 14.9706 1 10C1 5.02944 5.02944 1 10 1C14.9706 1 19 5.02944 19 10Z" fill="currentColor" />
    <path d="M10 19C14.9706 19 19 14.9706 19 10C19 5.02944 14.9706 1 10 1M10 19C5.02944 19 1 14.9706 1 10C1 5.02944 5.02944 1 10 1M10 19C7.82538 19 6.0625 14.9706 6.0625 10C6.0625 5.02944 7.82538 1 10 1M10 19C12.1746 19 13.9375 14.9706 13.9375 10C13.9375 5.02944 12.1746 1 10 1M2.6875 14.3744C4.33632 13.4302 7.07573 12.8125 10.1764 12.8125C13.4124 12.8125 16.255 13.4854 17.875 14.5M2.6875 5.62558C4.33632 6.56975 7.07573 7.1875 10.1764 7.1875C13.4124 7.1875 16.255 6.5146 17.875 5.5" stroke="#212121" />
  </symbol>

  <symbol id="logIn" width="19" height="21" viewBox="0 0 19 21" fill="none" xmlns="http://www.w3.org/2000/svg">
    <path d="M13 4.6C13 6.58822 11.3882 8.2 9.4 8.2C7.41177 8.2 5.8 6.58822 5.8 4.6C5.8 2.61177 7.41177 1 9.4 1C11.3882 1 13 2.61177 13 4.6Z" fill="currentColor" />
    <path d="M17.7994 20.2L17.7997 16.6003C17.7999 14.612 16.188 13 14.1997 13H4.6004C2.61234 13 1.00063 14.6115 1.0004 16.5996L1 20.2M13 4.6C13 6.58822 11.3882 8.2 9.4 8.2C7.41177 8.2 5.8 6.58822 5.8 4.6C5.8 2.61177 7.41177 1 9.4 1C11.3882 1 13 2.61177 13 4.6Z" stroke="currentColor" stroke-linecap="round" stroke-linejoin="round" />
  </symbol>

  <symbol id="like" width="23" height="20" viewBox="0 0 23 20" fill="none" xmlns="http://www.w3.org/2000/svg">
    <path fill-rule="evenodd" clip-rule="evenodd" d="M2.92288 2.72361C3.89802 1.74876 5.22043 1.20112 6.59928 1.20112C7.97813 1.20112 9.30053 1.74876 10.2757 2.72361L11.7993 4.24591L13.3229 2.72361C13.8026 2.22695 14.3764 1.83081 15.0108 1.55828C15.6452 1.28575 16.3275 1.1423 17.018 1.1363C17.7084 1.1303 18.3932 1.26187 19.0322 1.52333C19.6713 1.7848 20.2519 2.17091 20.7401 2.65915C21.2284 3.14739 21.6145 3.72798 21.8759 4.36705C22.1374 5.00611 22.269 5.69084 22.263 6.38129C22.257 7.07175 22.1135 7.75409 21.841 8.38851C21.5685 9.02293 21.1723 9.59672 20.6757 10.0764L11.7993 18.9541L2.92288 10.0764C1.94803 9.10126 1.40039 7.77886 1.40039 6.40001C1.40039 5.02115 1.94803 3.69875 2.92288 2.72361V2.72361Z" stroke="currentColor" stroke-linejoin="round" />
  </symbol>

  <symbol id="basket" width="16" height="15" viewBox="0 0 16 15" fill="none" xmlns="http://www.w3.org/2000/svg">
    <path d="M14.2794 8.32239L2.81674 9.75523L0.177932 0.0119414H15.9988L14.2794 8.32239Z" fill="currentColor" />
    <path d="M6.39883 13.5073C6.39883 14.3357 5.72726 15.0073 4.89883 15.0073C4.0704 15.0073 3.39883 14.3357 3.39883 13.5073C3.39883 12.6788 4.0704 12.0073 4.89883 12.0073C5.72726 12.0073 6.39883 12.6788 6.39883 13.5073Z" fill="currentColor" />
    <path d="M14.3988 13.5073C14.3988 14.3357 13.7273 15.0073 12.8988 15.0073C12.0704 15.0073 11.3988 14.3357 11.3988 13.5073C11.3988 12.6788 12.0704 12.0073 12.8988 12.0073C13.7273 12.0073 14.3988 12.6788 14.3988 13.5073Z" fill="currentColor" />
  </symbol>

  <symbol id="tg" width="18" height="14" viewBox="0 0 18 14" fill="none" xmlns="http://www.w3.org/2000/svg">
    <path d="M1.98075 6.22607C1.98075 6.22607 9.05728 3.59178 11.5115 2.66424C12.4523 2.29322 15.6429 1.10591 15.6429 1.10591C15.6429 1.10591 17.1154 0.586568 16.9927 1.84794C16.9518 2.36739 16.6245 4.18538 16.2973 6.15181C15.8065 8.93453 15.2747 11.9768 15.2747 11.9768C15.2747 11.9768 15.193 12.8302 14.4976 12.9786C13.8021 13.127 12.6568 12.4592 12.4523 12.3108C12.2887 12.1994 9.38452 10.5298 8.32107 9.71364C8.03469 9.49105 7.70744 9.04577 8.36193 8.52633C9.83447 7.30204 11.5934 5.78079 12.6568 4.81617C13.1477 4.37089 13.6386 3.33201 11.5934 4.59348C8.68917 6.41148 5.82583 8.11823 5.82583 8.11823C5.82583 8.11823 5.17145 8.48925 3.94431 8.15532C2.71718 7.82138 1.2855 7.3762 1.2855 7.3762C1.2855 7.3762 0.303883 6.81958 1.98096 6.22607H1.98075Z" stroke="currentColor" />
  </symbol>

  <symbol id="vk" width="22" height="14" viewBox="0 0 22 14" fill="none" xmlns="http://www.w3.org/2000/svg">
    <path d="M12.8205 12.5538V9.14872C15.1077 9.49744 15.8308 11.2974 17.2872 12.5538H21C20.0717 10.4815 18.6868 8.64596 16.9487 7.18461C18.2821 5.34872 19.6974 3.62051 20.3897 1H17.0154C15.6923 3.00513 14.9949 5.35385 12.8205 6.90256V1H7.92308L9.09231 2.44615V7.6C7.19487 7.37949 5.91282 3.90769 4.52308 1H1C2.28205 4.9282 4.97949 13.5487 12.8205 12.5538Z" stroke="currentColor" stroke-linecap="round" stroke-linejoin="round" />
  </symbol>

  <symbol id="wu" width="14" height="14" viewBox="0 0 14 14" fill="none" xmlns="http://www.w3.org/2000/svg">
    <mask id="path-1-outside-1_36_56" maskUnits="userSpaceOnUse" x="-0.439453" y="-0.440002" width="15" height="15" fill="currentColor">
      <rect fill="white" x="-0.439453" y="-0.440002" width="15" height="15" />
      <path d="M7.00055 0.559998C3.44722 0.559998 0.560547 3.44667 0.560547 7C0.560547 8.14214 0.873779 9.20804 1.39617 10.1385L0.570937 13.0845C0.557754 13.1317 0.557158 13.1814 0.56921 13.2289C0.581262 13.2763 0.60554 13.3198 0.639624 13.3549C0.673709 13.3901 0.716408 13.4156 0.763464 13.4291C0.810521 13.4426 0.860291 13.4435 0.907812 13.4318L3.97961 12.6705C4.88224 13.1524 5.90647 13.44 7.00055 13.44C10.5539 13.44 13.4405 10.5533 13.4405 7C13.4405 3.44667 10.5539 0.559998 7.00055 0.559998ZM7.00055 1.12C10.2512 1.12 12.8805 3.74933 12.8805 7C12.8805 10.2507 10.2512 12.88 7.00055 12.88C5.95839 12.88 4.98234 12.6083 4.13383 12.1335C4.07177 12.0988 3.99884 12.0891 3.92984 12.1062L1.23977 12.7728L1.96109 10.1992C1.97142 10.1628 1.97427 10.1248 1.96947 10.0873C1.96468 10.0498 1.95234 10.0136 1.9332 9.98101C1.41754 9.1066 1.12055 8.08923 1.12055 7C1.12055 3.74933 3.74988 1.12 7.00055 1.12ZM4.66047 3.64C4.48098 3.64 4.22464 3.70677 4.01406 3.93367C3.88758 4.06995 3.36055 4.58346 3.36055 5.48625C3.36055 6.42747 4.01334 7.23963 4.09227 7.34398H4.09281V7.34453C4.08533 7.33469 4.193 7.49061 4.33672 7.67758C4.48044 7.86454 4.68142 8.1101 4.93391 8.37593C5.43888 8.90761 6.14887 9.52207 7.03008 9.89789C7.43589 10.0707 7.75604 10.175 7.99859 10.2512C8.4481 10.3923 8.85753 10.3709 9.16508 10.3255C9.39528 10.2916 9.64847 10.1811 9.89898 10.0226C10.1495 9.86404 10.395 9.66692 10.5033 9.36742C10.5808 9.15271 10.6203 8.95428 10.6345 8.79101C10.6417 8.70938 10.6426 8.63733 10.6373 8.57062C10.632 8.50392 10.6376 8.45282 10.5755 8.35078C10.4451 8.13674 10.2975 8.13116 10.1434 8.05492C10.0578 8.01256 9.81417 7.89357 9.56977 7.77711C9.32563 7.66077 9.11424 7.55774 8.98406 7.51132C8.90181 7.48173 8.80138 7.43914 8.65648 7.45554C8.51159 7.47195 8.36847 7.5765 8.28516 7.7C8.20618 7.81706 7.88825 8.19233 7.79133 8.30265C7.79004 8.30187 7.79845 8.30574 7.76016 8.28679C7.64028 8.22747 7.49367 8.17702 7.27672 8.06257C7.05977 7.94813 6.78838 7.77913 6.49141 7.51734V7.51679C6.04939 7.12766 5.73978 6.63911 5.64211 6.475C5.64869 6.46717 5.64133 6.47665 5.65523 6.46297L5.65578 6.46242C5.7556 6.3641 5.84407 6.24666 5.91883 6.16054C6.02482 6.03844 6.07159 5.9308 6.12226 5.83023C6.22325 5.6298 6.16702 5.40925 6.10859 5.2932V5.29265C6.11263 5.30068 6.07699 5.22204 6.03859 5.13133C6.00009 5.04035 5.95101 4.92241 5.89859 4.79664C5.79376 4.5451 5.67671 4.26297 5.60711 4.09773V4.09718C5.52511 3.90255 5.41418 3.76233 5.26914 3.69468C5.1241 3.62704 4.99596 3.64627 4.99078 3.64601H4.99023C4.88673 3.64124 4.77316 3.64 4.66047 3.64ZM4.66047 4.2C4.76842 4.2 4.87485 4.20131 4.96398 4.20547C5.05568 4.21004 5.04998 4.21041 5.03234 4.20218C5.01443 4.19383 5.03874 4.19112 5.09086 4.31484C5.15901 4.47664 5.27663 4.75979 5.3818 5.01211C5.43438 5.13827 5.48359 5.25667 5.52289 5.34953C5.56219 5.44239 5.58349 5.49424 5.6082 5.54367V5.54422L5.60875 5.54476C5.63298 5.59257 5.63084 5.56196 5.62242 5.57867C5.56333 5.69594 5.55532 5.72474 5.49555 5.79359C5.40454 5.89843 5.31171 6.01535 5.26258 6.06375C5.21959 6.10598 5.14202 6.17177 5.09359 6.30054C5.04509 6.42952 5.06773 6.60648 5.14555 6.73859C5.24916 6.91448 5.59058 7.4702 6.12117 7.93734C6.45532 8.23191 6.76662 8.42686 7.01531 8.55804C7.264 8.68923 7.46655 8.76585 7.51187 8.78828C7.6195 8.84154 7.73713 8.8829 7.87391 8.86648C8.01068 8.85006 8.1286 8.76707 8.20367 8.68218L8.20422 8.68164C8.30412 8.56837 8.60098 8.2294 8.74344 8.02047C8.74947 8.02259 8.7475 8.02094 8.79484 8.03797V8.03851H8.79539C8.81701 8.04621 9.08775 8.16739 9.32914 8.28242C9.57053 8.39745 9.81554 8.517 9.89515 8.5564C10.01 8.61327 10.0643 8.65028 10.0784 8.65047C10.0793 8.6751 10.0803 8.7018 10.0767 8.74234C10.0669 8.8548 10.0368 9.01046 9.97664 9.17711C9.94715 9.25869 9.79355 9.42694 9.59984 9.54953C9.40613 9.67211 9.17036 9.7587 9.08305 9.77156C8.82052 9.81024 8.50881 9.82436 8.16648 9.71687C7.92912 9.64237 7.63315 9.54592 7.24992 9.38273C6.47269 9.05126 5.81211 8.48722 5.34023 7.99039C5.1043 7.74197 4.91526 7.51072 4.78078 7.33578C4.64655 7.16116 4.58793 7.07029 4.53906 7.00601L4.53852 7.00547C4.45176 6.89074 3.92055 6.15184 3.92055 5.48625C3.92055 4.78183 4.24773 4.5056 4.42477 4.31484C4.51771 4.2147 4.61932 4.2 4.66047 4.2Z" />
    </mask>
    <path d="M7.00055 0.559998C3.44722 0.559998 0.560547 3.44667 0.560547 7C0.560547 8.14214 0.873779 9.20804 1.39617 10.1385L0.570937 13.0845C0.557754 13.1317 0.557158 13.1814 0.56921 13.2289C0.581262 13.2763 0.60554 13.3198 0.639624 13.3549C0.673709 13.3901 0.716408 13.4156 0.763464 13.4291C0.810521 13.4426 0.860291 13.4435 0.907812 13.4318L3.97961 12.6705C4.88224 13.1524 5.90647 13.44 7.00055 13.44C10.5539 13.44 13.4405 10.5533 13.4405 7C13.4405 3.44667 10.5539 0.559998 7.00055 0.559998ZM7.00055 1.12C10.2512 1.12 12.8805 3.74933 12.8805 7C12.8805 10.2507 10.2512 12.88 7.00055 12.88C5.95839 12.88 4.98234 12.6083 4.13383 12.1335C4.07177 12.0988 3.99884 12.0891 3.92984 12.1062L1.23977 12.7728L1.96109 10.1992C1.97142 10.1628 1.97427 10.1248 1.96947 10.0873C1.96468 10.0498 1.95234 10.0136 1.9332 9.98101C1.41754 9.1066 1.12055 8.08923 1.12055 7C1.12055 3.74933 3.74988 1.12 7.00055 1.12ZM4.66047 3.64C4.48098 3.64 4.22464 3.70677 4.01406 3.93367C3.88758 4.06995 3.36055 4.58346 3.36055 5.48625C3.36055 6.42747 4.01334 7.23963 4.09227 7.34398H4.09281V7.34453C4.08533 7.33469 4.193 7.49061 4.33672 7.67758C4.48044 7.86454 4.68142 8.1101 4.93391 8.37593C5.43888 8.90761 6.14887 9.52207 7.03008 9.89789C7.43589 10.0707 7.75604 10.175 7.99859 10.2512C8.4481 10.3923 8.85753 10.3709 9.16508 10.3255C9.39528 10.2916 9.64847 10.1811 9.89898 10.0226C10.1495 9.86404 10.395 9.66692 10.5033 9.36742C10.5808 9.15271 10.6203 8.95428 10.6345 8.79101C10.6417 8.70938 10.6426 8.63733 10.6373 8.57062C10.632 8.50392 10.6376 8.45282 10.5755 8.35078C10.4451 8.13674 10.2975 8.13116 10.1434 8.05492C10.0578 8.01256 9.81417 7.89357 9.56977 7.77711C9.32563 7.66077 9.11424 7.55774 8.98406 7.51132C8.90181 7.48173 8.80138 7.43914 8.65648 7.45554C8.51159 7.47195 8.36847 7.5765 8.28516 7.7C8.20618 7.81706 7.88825 8.19233 7.79133 8.30265C7.79004 8.30187 7.79845 8.30574 7.76016 8.28679C7.64028 8.22747 7.49367 8.17702 7.27672 8.06257C7.05977 7.94813 6.78838 7.77913 6.49141 7.51734V7.51679C6.04939 7.12766 5.73978 6.63911 5.64211 6.475C5.64869 6.46717 5.64133 6.47665 5.65523 6.46297L5.65578 6.46242C5.7556 6.3641 5.84407 6.24666 5.91883 6.16054C6.02482 6.03844 6.07159 5.9308 6.12226 5.83023C6.22325 5.6298 6.16702 5.40925 6.10859 5.2932V5.29265C6.11263 5.30068 6.07699 5.22204 6.03859 5.13133C6.00009 5.04035 5.95101 4.92241 5.89859 4.79664C5.79376 4.5451 5.67671 4.26297 5.60711 4.09773V4.09718C5.52511 3.90255 5.41418 3.76233 5.26914 3.69468C5.1241 3.62704 4.99596 3.64627 4.99078 3.64601H4.99023C4.88673 3.64124 4.77316 3.64 4.66047 3.64ZM4.66047 4.2C4.76842 4.2 4.87485 4.20131 4.96398 4.20547C5.05568 4.21004 5.04998 4.21041 5.03234 4.20218C5.01443 4.19383 5.03874 4.19112 5.09086 4.31484C5.15901 4.47664 5.27663 4.75979 5.3818 5.01211C5.43438 5.13827 5.48359 5.25667 5.52289 5.34953C5.56219 5.44239 5.58349 5.49424 5.6082 5.54367V5.54422L5.60875 5.54476C5.63298 5.59257 5.63084 5.56196 5.62242 5.57867C5.56333 5.69594 5.55532 5.72474 5.49555 5.79359C5.40454 5.89843 5.31171 6.01535 5.26258 6.06375C5.21959 6.10598 5.14202 6.17177 5.09359 6.30054C5.04509 6.42952 5.06773 6.60648 5.14555 6.73859C5.24916 6.91448 5.59058 7.4702 6.12117 7.93734C6.45532 8.23191 6.76662 8.42686 7.01531 8.55804C7.264 8.68923 7.46655 8.76585 7.51187 8.78828C7.6195 8.84154 7.73713 8.8829 7.87391 8.86648C8.01068 8.85006 8.1286 8.76707 8.20367 8.68218L8.20422 8.68164C8.30412 8.56837 8.60098 8.2294 8.74344 8.02047C8.74947 8.02259 8.7475 8.02094 8.79484 8.03797V8.03851H8.79539C8.81701 8.04621 9.08775 8.16739 9.32914 8.28242C9.57053 8.39745 9.81554 8.517 9.89515 8.5564C10.01 8.61327 10.0643 8.65028 10.0784 8.65047C10.0793 8.6751 10.0803 8.7018 10.0767 8.74234C10.0669 8.8548 10.0368 9.01046 9.97664 9.17711C9.94715 9.25869 9.79355 9.42694 9.59984 9.54953C9.40613 9.67211 9.17036 9.7587 9.08305 9.77156C8.82052 9.81024 8.50881 9.82436 8.16648 9.71687C7.92912 9.64237 7.63315 9.54592 7.24992 9.38273C6.47269 9.05126 5.81211 8.48722 5.34023 7.99039C5.1043 7.74197 4.91526 7.51072 4.78078 7.33578C4.64655 7.16116 4.58793 7.07029 4.53906 7.00601L4.53852 7.00547C4.45176 6.89074 3.92055 6.15184 3.92055 5.48625C3.92055 4.78183 4.24773 4.5056 4.42477 4.31484C4.51771 4.2147 4.61932 4.2 4.66047 4.2Z" fill="currentColor" />
    <path d="M7.00055 0.559998C3.44722 0.559998 0.560547 3.44667 0.560547 7C0.560547 8.14214 0.873779 9.20804 1.39617 10.1385L0.570937 13.0845C0.557754 13.1317 0.557158 13.1814 0.56921 13.2289C0.581262 13.2763 0.60554 13.3198 0.639624 13.3549C0.673709 13.3901 0.716408 13.4156 0.763464 13.4291C0.810521 13.4426 0.860291 13.4435 0.907812 13.4318L3.97961 12.6705C4.88224 13.1524 5.90647 13.44 7.00055 13.44C10.5539 13.44 13.4405 10.5533 13.4405 7C13.4405 3.44667 10.5539 0.559998 7.00055 0.559998ZM7.00055 1.12C10.2512 1.12 12.8805 3.74933 12.8805 7C12.8805 10.2507 10.2512 12.88 7.00055 12.88C5.95839 12.88 4.98234 12.6083 4.13383 12.1335C4.07177 12.0988 3.99884 12.0891 3.92984 12.1062L1.23977 12.7728L1.96109 10.1992C1.97142 10.1628 1.97427 10.1248 1.96947 10.0873C1.96468 10.0498 1.95234 10.0136 1.9332 9.98101C1.41754 9.1066 1.12055 8.08923 1.12055 7C1.12055 3.74933 3.74988 1.12 7.00055 1.12ZM4.66047 3.64C4.48098 3.64 4.22464 3.70677 4.01406 3.93367C3.88758 4.06995 3.36055 4.58346 3.36055 5.48625C3.36055 6.42747 4.01334 7.23963 4.09227 7.34398H4.09281V7.34453C4.08533 7.33469 4.193 7.49061 4.33672 7.67758C4.48044 7.86454 4.68142 8.1101 4.93391 8.37593C5.43888 8.90761 6.14887 9.52207 7.03008 9.89789C7.43589 10.0707 7.75604 10.175 7.99859 10.2512C8.4481 10.3923 8.85753 10.3709 9.16508 10.3255C9.39528 10.2916 9.64847 10.1811 9.89898 10.0226C10.1495 9.86404 10.395 9.66692 10.5033 9.36742C10.5808 9.15271 10.6203 8.95428 10.6345 8.79101C10.6417 8.70938 10.6426 8.63733 10.6373 8.57062C10.632 8.50392 10.6376 8.45282 10.5755 8.35078C10.4451 8.13674 10.2975 8.13116 10.1434 8.05492C10.0578 8.01256 9.81417 7.89357 9.56977 7.77711C9.32563 7.66077 9.11424 7.55774 8.98406 7.51132C8.90181 7.48173 8.80138 7.43914 8.65648 7.45554C8.51159 7.47195 8.36847 7.5765 8.28516 7.7C8.20618 7.81706 7.88825 8.19233 7.79133 8.30265C7.79004 8.30187 7.79845 8.30574 7.76016 8.28679C7.64028 8.22747 7.49367 8.17702 7.27672 8.06257C7.05977 7.94813 6.78838 7.77913 6.49141 7.51734V7.51679C6.04939 7.12766 5.73978 6.63911 5.64211 6.475C5.64869 6.46717 5.64133 6.47665 5.65523 6.46297L5.65578 6.46242C5.7556 6.3641 5.84407 6.24666 5.91883 6.16054C6.02482 6.03844 6.07159 5.9308 6.12226 5.83023C6.22325 5.6298 6.16702 5.40925 6.10859 5.2932V5.29265C6.11263 5.30068 6.07699 5.22204 6.03859 5.13133C6.00009 5.04035 5.95101 4.92241 5.89859 4.79664C5.79376 4.5451 5.67671 4.26297 5.60711 4.09773V4.09718C5.52511 3.90255 5.41418 3.76233 5.26914 3.69468C5.1241 3.62704 4.99596 3.64627 4.99078 3.64601H4.99023C4.88673 3.64124 4.77316 3.64 4.66047 3.64ZM4.66047 4.2C4.76842 4.2 4.87485 4.20131 4.96398 4.20547C5.05568 4.21004 5.04998 4.21041 5.03234 4.20218C5.01443 4.19383 5.03874 4.19112 5.09086 4.31484C5.15901 4.47664 5.27663 4.75979 5.3818 5.01211C5.43438 5.13827 5.48359 5.25667 5.52289 5.34953C5.56219 5.44239 5.58349 5.49424 5.6082 5.54367V5.54422L5.60875 5.54476C5.63298 5.59257 5.63084 5.56196 5.62242 5.57867C5.56333 5.69594 5.55532 5.72474 5.49555 5.79359C5.40454 5.89843 5.31171 6.01535 5.26258 6.06375C5.21959 6.10598 5.14202 6.17177 5.09359 6.30054C5.04509 6.42952 5.06773 6.60648 5.14555 6.73859C5.24916 6.91448 5.59058 7.4702 6.12117 7.93734C6.45532 8.23191 6.76662 8.42686 7.01531 8.55804C7.264 8.68923 7.46655 8.76585 7.51187 8.78828C7.6195 8.84154 7.73713 8.8829 7.87391 8.86648C8.01068 8.85006 8.1286 8.76707 8.20367 8.68218L8.20422 8.68164C8.30412 8.56837 8.60098 8.2294 8.74344 8.02047C8.74947 8.02259 8.7475 8.02094 8.79484 8.03797V8.03851H8.79539C8.81701 8.04621 9.08775 8.16739 9.32914 8.28242C9.57053 8.39745 9.81554 8.517 9.89515 8.5564C10.01 8.61327 10.0643 8.65028 10.0784 8.65047C10.0793 8.6751 10.0803 8.7018 10.0767 8.74234C10.0669 8.8548 10.0368 9.01046 9.97664 9.17711C9.94715 9.25869 9.79355 9.42694 9.59984 9.54953C9.40613 9.67211 9.17036 9.7587 9.08305 9.77156C8.82052 9.81024 8.50881 9.82436 8.16648 9.71687C7.92912 9.64237 7.63315 9.54592 7.24992 9.38273C6.47269 9.05126 5.81211 8.48722 5.34023 7.99039C5.1043 7.74197 4.91526 7.51072 4.78078 7.33578C4.64655 7.16116 4.58793 7.07029 4.53906 7.00601L4.53852 7.00547C4.45176 6.89074 3.92055 6.15184 3.92055 5.48625C3.92055 4.78183 4.24773 4.5056 4.42477 4.31484C4.51771 4.2147 4.61932 4.2 4.66047 4.2Z" stroke="currentColor" stroke-width="0.4" mask="url(#path-1-outside-1_36_56)" />
  </symbol>

  <symbol id="wu1" width="25" height="24" viewBox="0 0 25 24" fill="none" xmlns="http://www.w3.org/2000/svg">
    <mask id="path-1-outside-1_551_790" maskUnits="userSpaceOnUse" x="0.24707" y="-0.039917" width="24" height="24" fill="black">
      <rect fill="white" x="0.24707" y="-0.039917" width="24" height="24" />
      <path d="M12.2871 0.960083C6.19565 0.960083 1.24707 5.90866 1.24707 12.0001C1.24707 13.958 1.78404 15.7853 2.67957 17.3804L1.26488 22.4307C1.24228 22.5115 1.24126 22.5969 1.26192 22.6782C1.28258 22.7595 1.3242 22.834 1.38263 22.8942C1.44106 22.9545 1.51426 22.9983 1.59493 23.0215C1.6756 23.0446 1.76092 23.0462 1.84238 23.026L7.10832 21.721C8.65569 22.5471 10.4115 23.0401 12.2871 23.0401C18.3785 23.0401 23.3271 18.0915 23.3271 12.0001C23.3271 5.90866 18.3785 0.960083 12.2871 0.960083ZM12.2871 1.92008C17.8596 1.92008 22.3671 6.42751 22.3671 12.0001C22.3671 17.5727 17.8596 22.0801 12.2871 22.0801C10.5005 22.0801 8.82729 21.6143 7.37269 20.8004C7.26631 20.7409 7.14129 20.7242 7.02301 20.7535L2.41145 21.8963L3.64801 17.4845C3.6657 17.4221 3.67059 17.3568 3.66237 17.2925C3.65415 17.2282 3.633 17.1663 3.6002 17.1104C2.7162 15.6114 2.20707 13.8673 2.20707 12.0001C2.20707 6.42751 6.71449 1.92008 12.2871 1.92008ZM8.27551 6.24008C7.96781 6.24008 7.52837 6.35456 7.16738 6.74352C6.95056 6.97715 6.04707 7.85745 6.04707 9.40508C6.04707 11.0186 7.16614 12.4109 7.30145 12.5898H7.30238V12.5907C7.28955 12.5738 7.47412 12.8411 7.72051 13.1616C7.96689 13.4822 8.31142 13.9031 8.74426 14.3588C9.60992 15.2703 10.827 16.3236 12.3377 16.9679C13.0334 17.2641 13.5822 17.443 13.998 17.5735C14.7686 17.8155 15.4705 17.7787 15.9977 17.701C16.3923 17.6429 16.8264 17.4534 17.2558 17.1816C17.6853 16.9099 18.1062 16.5719 18.2918 16.0585C18.4247 15.6904 18.4923 15.3503 18.5168 15.0704C18.529 14.9304 18.5305 14.8069 18.5214 14.6926C18.5123 14.5782 18.5221 14.4906 18.4155 14.3157C18.192 13.9488 17.9389 13.9392 17.6749 13.8085C17.5282 13.7359 17.1104 13.5319 16.6914 13.3323C16.2729 13.1328 15.9106 12.9562 15.6874 12.8766C15.5464 12.8259 15.3742 12.7529 15.1258 12.781C14.8774 12.8091 14.6321 12.9884 14.4893 13.2001C14.3539 13.4008 13.8089 14.0441 13.6427 14.2332C13.6405 14.2319 13.6549 14.2385 13.5893 14.206C13.3838 14.1043 13.1324 14.0178 12.7605 13.8216C12.3886 13.6255 11.9234 13.3357 11.4143 12.887V12.886C10.6565 12.2189 10.1258 11.3814 9.95832 11.1001C9.9696 11.0867 9.95698 11.1029 9.98082 11.0795L9.98176 11.0785C10.1529 10.91 10.3045 10.7087 10.4327 10.561C10.6144 10.3517 10.6946 10.1672 10.7814 9.99477C10.9546 9.65117 10.8582 9.27308 10.758 9.07414V9.07321C10.7649 9.08697 10.7038 8.95216 10.638 8.79664C10.572 8.64069 10.4879 8.4385 10.398 8.22289C10.2183 7.79168 10.0176 7.30804 9.89832 7.02477V7.02383C9.75775 6.69017 9.56758 6.4498 9.31894 6.33383C9.07031 6.21787 8.85064 6.25084 8.84176 6.2504H8.84082C8.66339 6.24221 8.46869 6.24008 8.27551 6.24008ZM8.27551 7.20008C8.46057 7.20008 8.64301 7.20234 8.79582 7.20946C8.95302 7.21729 8.94324 7.21793 8.91301 7.20383C8.88229 7.18951 8.92397 7.18486 9.01332 7.39696C9.13016 7.67433 9.33179 8.15972 9.51207 8.59227C9.60221 8.80854 9.68657 9.01151 9.75394 9.17071C9.82132 9.3299 9.85783 9.41878 9.90019 9.50352V9.50446L9.90113 9.50539C9.94267 9.58735 9.939 9.53488 9.92457 9.56352C9.82328 9.76456 9.80953 9.81392 9.70707 9.93196C9.55106 10.1117 9.39193 10.3121 9.30769 10.3951C9.234 10.4675 9.10103 10.5803 9.01801 10.801C8.93486 11.0221 8.97366 11.3255 9.10707 11.552C9.28469 11.8535 9.86998 12.8061 10.7796 13.607C11.3524 14.1119 11.8861 14.4461 12.3124 14.671C12.7387 14.8959 13.0859 15.0273 13.1636 15.0657C13.3481 15.157 13.5498 15.2279 13.7843 15.1998C14.0187 15.1716 14.2209 15.0294 14.3496 14.8838L14.3505 14.8829C14.5218 14.6887 15.0307 14.1076 15.2749 13.7495C15.2852 13.7531 15.2818 13.7503 15.363 13.7795V13.7804H15.3639C15.401 13.7936 15.8651 14.0013 16.2789 14.1985C16.6928 14.3957 17.1128 14.6007 17.2493 14.6682C17.4462 14.7657 17.5393 14.8291 17.5633 14.8295C17.5649 14.8717 17.5666 14.9175 17.5605 14.987C17.5437 15.1797 17.4921 15.4466 17.3889 15.7323C17.3384 15.8721 17.0751 16.1606 16.743 16.3707C16.4109 16.5809 16.0068 16.7293 15.8571 16.7513C15.407 16.8176 14.8727 16.8419 14.2858 16.6576C13.8789 16.5299 13.3715 16.3645 12.7146 16.0848C11.3822 15.5165 10.2498 14.5496 9.44082 13.6979C9.03635 13.272 8.7123 12.8756 8.48176 12.5757C8.25165 12.2764 8.15116 12.1206 8.06738 12.0104L8.06644 12.0095C7.91773 11.8128 7.00707 10.5461 7.00707 9.40508C7.00707 8.19752 7.56795 7.72397 7.87144 7.39696C8.03078 7.22528 8.20497 7.20008 8.27551 7.20008Z" />
    </mask>
    <path d="M12.2871 0.960083C6.19565 0.960083 1.24707 5.90866 1.24707 12.0001C1.24707 13.958 1.78404 15.7853 2.67957 17.3804L1.26488 22.4307C1.24228 22.5115 1.24126 22.5969 1.26192 22.6782C1.28258 22.7595 1.3242 22.834 1.38263 22.8942C1.44106 22.9545 1.51426 22.9983 1.59493 23.0215C1.6756 23.0446 1.76092 23.0462 1.84238 23.026L7.10832 21.721C8.65569 22.5471 10.4115 23.0401 12.2871 23.0401C18.3785 23.0401 23.3271 18.0915 23.3271 12.0001C23.3271 5.90866 18.3785 0.960083 12.2871 0.960083ZM12.2871 1.92008C17.8596 1.92008 22.3671 6.42751 22.3671 12.0001C22.3671 17.5727 17.8596 22.0801 12.2871 22.0801C10.5005 22.0801 8.82729 21.6143 7.37269 20.8004C7.26631 20.7409 7.14129 20.7242 7.02301 20.7535L2.41145 21.8963L3.64801 17.4845C3.6657 17.4221 3.67059 17.3568 3.66237 17.2925C3.65415 17.2282 3.633 17.1663 3.6002 17.1104C2.7162 15.6114 2.20707 13.8673 2.20707 12.0001C2.20707 6.42751 6.71449 1.92008 12.2871 1.92008ZM8.27551 6.24008C7.96781 6.24008 7.52837 6.35456 7.16738 6.74352C6.95056 6.97715 6.04707 7.85745 6.04707 9.40508C6.04707 11.0186 7.16614 12.4109 7.30145 12.5898H7.30238V12.5907C7.28955 12.5738 7.47412 12.8411 7.72051 13.1616C7.96689 13.4822 8.31142 13.9031 8.74426 14.3588C9.60992 15.2703 10.827 16.3236 12.3377 16.9679C13.0334 17.2641 13.5822 17.443 13.998 17.5735C14.7686 17.8155 15.4705 17.7787 15.9977 17.701C16.3923 17.6429 16.8264 17.4534 17.2558 17.1816C17.6853 16.9099 18.1062 16.5719 18.2918 16.0585C18.4247 15.6904 18.4923 15.3503 18.5168 15.0704C18.529 14.9304 18.5305 14.8069 18.5214 14.6926C18.5123 14.5782 18.5221 14.4906 18.4155 14.3157C18.192 13.9488 17.9389 13.9392 17.6749 13.8085C17.5282 13.7359 17.1104 13.5319 16.6914 13.3323C16.2729 13.1328 15.9106 12.9562 15.6874 12.8766C15.5464 12.8259 15.3742 12.7529 15.1258 12.781C14.8774 12.8091 14.6321 12.9884 14.4893 13.2001C14.3539 13.4008 13.8089 14.0441 13.6427 14.2332C13.6405 14.2319 13.6549 14.2385 13.5893 14.206C13.3838 14.1043 13.1324 14.0178 12.7605 13.8216C12.3886 13.6255 11.9234 13.3357 11.4143 12.887V12.886C10.6565 12.2189 10.1258 11.3814 9.95832 11.1001C9.9696 11.0867 9.95698 11.1029 9.98082 11.0795L9.98176 11.0785C10.1529 10.91 10.3045 10.7087 10.4327 10.561C10.6144 10.3517 10.6946 10.1672 10.7814 9.99477C10.9546 9.65117 10.8582 9.27308 10.758 9.07414V9.07321C10.7649 9.08697 10.7038 8.95216 10.638 8.79664C10.572 8.64069 10.4879 8.4385 10.398 8.22289C10.2183 7.79168 10.0176 7.30804 9.89832 7.02477V7.02383C9.75775 6.69017 9.56758 6.4498 9.31894 6.33383C9.07031 6.21787 8.85064 6.25084 8.84176 6.2504H8.84082C8.66339 6.24221 8.46869 6.24008 8.27551 6.24008ZM8.27551 7.20008C8.46057 7.20008 8.64301 7.20234 8.79582 7.20946C8.95302 7.21729 8.94324 7.21793 8.91301 7.20383C8.88229 7.18951 8.92397 7.18486 9.01332 7.39696C9.13016 7.67433 9.33179 8.15972 9.51207 8.59227C9.60221 8.80854 9.68657 9.01151 9.75394 9.17071C9.82132 9.3299 9.85783 9.41878 9.90019 9.50352V9.50446L9.90113 9.50539C9.94267 9.58735 9.939 9.53488 9.92457 9.56352C9.82328 9.76456 9.80953 9.81392 9.70707 9.93196C9.55106 10.1117 9.39193 10.3121 9.30769 10.3951C9.234 10.4675 9.10103 10.5803 9.01801 10.801C8.93486 11.0221 8.97366 11.3255 9.10707 11.552C9.28469 11.8535 9.86998 12.8061 10.7796 13.607C11.3524 14.1119 11.8861 14.4461 12.3124 14.671C12.7387 14.8959 13.0859 15.0273 13.1636 15.0657C13.3481 15.157 13.5498 15.2279 13.7843 15.1998C14.0187 15.1716 14.2209 15.0294 14.3496 14.8838L14.3505 14.8829C14.5218 14.6887 15.0307 14.1076 15.2749 13.7495C15.2852 13.7531 15.2818 13.7503 15.363 13.7795V13.7804H15.3639C15.401 13.7936 15.8651 14.0013 16.2789 14.1985C16.6928 14.3957 17.1128 14.6007 17.2493 14.6682C17.4462 14.7657 17.5393 14.8291 17.5633 14.8295C17.5649 14.8717 17.5666 14.9175 17.5605 14.987C17.5437 15.1797 17.4921 15.4466 17.3889 15.7323C17.3384 15.8721 17.0751 16.1606 16.743 16.3707C16.4109 16.5809 16.0068 16.7293 15.8571 16.7513C15.407 16.8176 14.8727 16.8419 14.2858 16.6576C13.8789 16.5299 13.3715 16.3645 12.7146 16.0848C11.3822 15.5165 10.2498 14.5496 9.44082 13.6979C9.03635 13.272 8.7123 12.8756 8.48176 12.5757C8.25165 12.2764 8.15116 12.1206 8.06738 12.0104L8.06644 12.0095C7.91773 11.8128 7.00707 10.5461 7.00707 9.40508C7.00707 8.19752 7.56795 7.72397 7.87144 7.39696C8.03078 7.22528 8.20497 7.20008 8.27551 7.20008Z" fill="white" />
    <path d="M12.2871 0.960083C6.19565 0.960083 1.24707 5.90866 1.24707 12.0001C1.24707 13.958 1.78404 15.7853 2.67957 17.3804L1.26488 22.4307C1.24228 22.5115 1.24126 22.5969 1.26192 22.6782C1.28258 22.7595 1.3242 22.834 1.38263 22.8942C1.44106 22.9545 1.51426 22.9983 1.59493 23.0215C1.6756 23.0446 1.76092 23.0462 1.84238 23.026L7.10832 21.721C8.65569 22.5471 10.4115 23.0401 12.2871 23.0401C18.3785 23.0401 23.3271 18.0915 23.3271 12.0001C23.3271 5.90866 18.3785 0.960083 12.2871 0.960083ZM12.2871 1.92008C17.8596 1.92008 22.3671 6.42751 22.3671 12.0001C22.3671 17.5727 17.8596 22.0801 12.2871 22.0801C10.5005 22.0801 8.82729 21.6143 7.37269 20.8004C7.26631 20.7409 7.14129 20.7242 7.02301 20.7535L2.41145 21.8963L3.64801 17.4845C3.6657 17.4221 3.67059 17.3568 3.66237 17.2925C3.65415 17.2282 3.633 17.1663 3.6002 17.1104C2.7162 15.6114 2.20707 13.8673 2.20707 12.0001C2.20707 6.42751 6.71449 1.92008 12.2871 1.92008ZM8.27551 6.24008C7.96781 6.24008 7.52837 6.35456 7.16738 6.74352C6.95056 6.97715 6.04707 7.85745 6.04707 9.40508C6.04707 11.0186 7.16614 12.4109 7.30145 12.5898H7.30238V12.5907C7.28955 12.5738 7.47412 12.8411 7.72051 13.1616C7.96689 13.4822 8.31142 13.9031 8.74426 14.3588C9.60992 15.2703 10.827 16.3236 12.3377 16.9679C13.0334 17.2641 13.5822 17.443 13.998 17.5735C14.7686 17.8155 15.4705 17.7787 15.9977 17.701C16.3923 17.6429 16.8264 17.4534 17.2558 17.1816C17.6853 16.9099 18.1062 16.5719 18.2918 16.0585C18.4247 15.6904 18.4923 15.3503 18.5168 15.0704C18.529 14.9304 18.5305 14.8069 18.5214 14.6926C18.5123 14.5782 18.5221 14.4906 18.4155 14.3157C18.192 13.9488 17.9389 13.9392 17.6749 13.8085C17.5282 13.7359 17.1104 13.5319 16.6914 13.3323C16.2729 13.1328 15.9106 12.9562 15.6874 12.8766C15.5464 12.8259 15.3742 12.7529 15.1258 12.781C14.8774 12.8091 14.6321 12.9884 14.4893 13.2001C14.3539 13.4008 13.8089 14.0441 13.6427 14.2332C13.6405 14.2319 13.6549 14.2385 13.5893 14.206C13.3838 14.1043 13.1324 14.0178 12.7605 13.8216C12.3886 13.6255 11.9234 13.3357 11.4143 12.887V12.886C10.6565 12.2189 10.1258 11.3814 9.95832 11.1001C9.9696 11.0867 9.95698 11.1029 9.98082 11.0795L9.98176 11.0785C10.1529 10.91 10.3045 10.7087 10.4327 10.561C10.6144 10.3517 10.6946 10.1672 10.7814 9.99477C10.9546 9.65117 10.8582 9.27308 10.758 9.07414V9.07321C10.7649 9.08697 10.7038 8.95216 10.638 8.79664C10.572 8.64069 10.4879 8.4385 10.398 8.22289C10.2183 7.79168 10.0176 7.30804 9.89832 7.02477V7.02383C9.75775 6.69017 9.56758 6.4498 9.31894 6.33383C9.07031 6.21787 8.85064 6.25084 8.84176 6.2504H8.84082C8.66339 6.24221 8.46869 6.24008 8.27551 6.24008ZM8.27551 7.20008C8.46057 7.20008 8.64301 7.20234 8.79582 7.20946C8.95302 7.21729 8.94324 7.21793 8.91301 7.20383C8.88229 7.18951 8.92397 7.18486 9.01332 7.39696C9.13016 7.67433 9.33179 8.15972 9.51207 8.59227C9.60221 8.80854 9.68657 9.01151 9.75394 9.17071C9.82132 9.3299 9.85783 9.41878 9.90019 9.50352V9.50446L9.90113 9.50539C9.94267 9.58735 9.939 9.53488 9.92457 9.56352C9.82328 9.76456 9.80953 9.81392 9.70707 9.93196C9.55106 10.1117 9.39193 10.3121 9.30769 10.3951C9.234 10.4675 9.10103 10.5803 9.01801 10.801C8.93486 11.0221 8.97366 11.3255 9.10707 11.552C9.28469 11.8535 9.86998 12.8061 10.7796 13.607C11.3524 14.1119 11.8861 14.4461 12.3124 14.671C12.7387 14.8959 13.0859 15.0273 13.1636 15.0657C13.3481 15.157 13.5498 15.2279 13.7843 15.1998C14.0187 15.1716 14.2209 15.0294 14.3496 14.8838L14.3505 14.8829C14.5218 14.6887 15.0307 14.1076 15.2749 13.7495C15.2852 13.7531 15.2818 13.7503 15.363 13.7795V13.7804H15.3639C15.401 13.7936 15.8651 14.0013 16.2789 14.1985C16.6928 14.3957 17.1128 14.6007 17.2493 14.6682C17.4462 14.7657 17.5393 14.8291 17.5633 14.8295C17.5649 14.8717 17.5666 14.9175 17.5605 14.987C17.5437 15.1797 17.4921 15.4466 17.3889 15.7323C17.3384 15.8721 17.0751 16.1606 16.743 16.3707C16.4109 16.5809 16.0068 16.7293 15.8571 16.7513C15.407 16.8176 14.8727 16.8419 14.2858 16.6576C13.8789 16.5299 13.3715 16.3645 12.7146 16.0848C11.3822 15.5165 10.2498 14.5496 9.44082 13.6979C9.03635 13.272 8.7123 12.8756 8.48176 12.5757C8.25165 12.2764 8.15116 12.1206 8.06738 12.0104L8.06644 12.0095C7.91773 11.8128 7.00707 10.5461 7.00707 9.40508C7.00707 8.19752 7.56795 7.72397 7.87144 7.39696C8.03078 7.22528 8.20497 7.20008 8.27551 7.20008Z" stroke="white" stroke-width="0.4" mask="url(#path-1-outside-1_551_790)" />
  </symbol>

  <symbol id="icon1" width="31" height="31" viewBox="0 0 31 31" fill="none" xmlns="http://www.w3.org/2000/svg">
    <g clip-path="url(#clip0_36_342)">
      <path d="M28.3165 30.9999C28.6634 31.0075 28.9598 30.6818 28.9196 30.3372L28.2786 23.5489C28.1274 21.9156 27.3549 20.3698 26.1372 19.2712C26.14 19.0008 26.1845 17.897 26.1604 16.3974C26.1362 14.9589 26.0555 14.0865 25.9546 13.536C26.69 13.3285 27.2308 12.6518 27.2308 11.8509V10.1226C27.2308 9.15706 26.4453 8.37155 25.4797 8.37155H21.749V7.45108C21.8975 7.34066 21.9942 7.16439 21.9942 6.96516V4.14125C21.9942 3.10073 21.6076 2.10521 20.9056 1.33799C20.2084 0.575982 19.2601 0.102846 18.2354 0.00580848C17.9025 -0.0259924 17.6068 0.218601 17.5752 0.551693C17.5436 0.884723 17.788 1.18032 18.1211 1.21182C19.6384 1.35562 20.7827 2.61499 20.7827 4.14125V6.24822C20.1381 6.00423 19.6504 5.44508 19.6396 4.79186V3.7783C19.6396 3.44581 19.3716 3.17547 19.0391 3.17257C17.7305 3.16512 16.5321 4.15991 16.1926 5.40892C16.0387 5.96856 15.5251 6.35937 14.9437 6.35937C14.5452 6.36028 14.1703 6.17596 13.9268 5.86534C13.7289 5.6113 13.3518 5.55545 13.0873 5.75534C12.7653 5.99684 12.3825 6.12768 11.9798 6.13519C10.9152 6.18292 10.1724 5.1547 10.2145 4.14119C10.2145 2.62414 11.3974 1.33636 12.9075 1.20945C13.2408 1.18141 13.4883 0.888479 13.4603 0.555085C13.4324 0.221691 13.1394 -0.0262952 12.806 0.00223467C11.7716 0.0892175 10.8126 0.558174 10.1058 1.32273C9.39468 2.092 9.00302 3.09297 9.00302 4.14119C8.99866 4.6176 9.08988 5.08576 9.26378 5.50632C9.25452 5.64364 9.24822 5.78266 9.24822 5.92325V8.37143H5.60596C4.64043 8.37143 3.85486 9.15694 3.85486 10.1225V11.8507C3.85486 12.6519 4.39583 13.3286 5.13149 13.536C5.0304 14.0866 4.94971 14.9589 4.92542 16.3973C4.90222 17.7688 4.9436 19.0546 4.94711 19.1609L4.94765 19.2028C3.69767 20.3103 2.87745 21.8727 2.71881 23.5491L2.07789 30.3372C2.03767 30.6819 2.33411 31.0075 2.68095 30.9999H28.3165ZM6.34919 13.6018H11.5333C11.6871 13.7284 11.8472 13.8477 12.0123 13.9588L11.942 14.4603L11.6518 16.5301L9.97334 17.0437C9.59869 16.7528 9.09491 16.655 8.62528 16.8076L6.95056 17.3548C6.59306 17.4714 6.30522 17.7154 6.13052 18.0271C6.0986 15.9008 6.20158 14.2732 6.34919 13.6018ZM11.5777 7.3243C12.1884 7.39941 12.8156 7.28535 13.3607 7.00811C13.8031 7.37028 14.3576 7.57089 14.9436 7.57089C16.069 7.57089 17.0632 6.81391 17.3615 5.72893C17.5101 5.18844 17.92 4.72899 18.4281 4.50978V4.79186C18.4339 6.02834 19.3324 7.08813 20.5375 7.44539V8.77091C20.5531 10.8698 19.1714 12.807 17.2326 13.5022C16.1261 13.9108 14.8742 13.911 13.7673 13.5032C11.8272 12.8088 10.4443 10.8707 10.4599 8.77091V6.93948C10.7951 7.14355 11.1746 7.27427 11.5777 7.3243ZM24.954 18.1022C24.7852 17.7549 24.4809 17.4807 24.0955 17.3548L22.4198 16.8076C21.9621 16.6561 21.4478 16.7484 21.0705 17.0443L19.4117 16.5313L19.2126 15.1109L19.0454 13.9178C19.1889 13.8186 19.3287 13.7131 19.4641 13.6018H24.7369C24.8861 14.2814 24.9896 15.9394 24.954 18.1022ZM7.15633 18.741C7.15633 18.6338 7.22453 18.5396 7.32654 18.5064L9.00096 17.9593C9.17862 17.9069 9.3226 18.0346 9.32411 18.1937V23.6922H7.15633V18.741ZM13.5119 14.6972C14.9331 15.1781 16.527 15.1198 17.9091 14.5387L18.2339 16.8552C17.6332 17.7171 16.6301 18.2251 15.5662 18.2221C14.5037 18.2275 13.4565 17.7086 12.8307 16.8473L13.1509 14.5643C13.2697 14.6125 13.3902 14.6565 13.5119 14.6972ZM11.9599 17.7028C12.8263 18.8016 14.1762 19.4385 15.567 19.4338C16.9567 19.4388 18.2826 18.7947 19.1114 17.7066L19.6907 17.8857L20.3241 18.0816C19.2789 19.6877 17.5129 20.6413 15.567 20.6413C13.615 20.6413 11.819 19.685 10.7383 18.0766L11.9599 17.7028ZM13.9086 23.6922H10.5356V19.7401C11.8424 21.0813 13.6419 21.8527 15.5671 21.8527C17.4707 21.8527 19.233 21.0985 20.5097 19.7825V23.6921H17.2965C16.9892 23.4081 16.5788 23.2341 16.1284 23.2341H15.0767C14.6263 23.2342 14.2158 23.4081 13.9086 23.6922ZM21.7212 18.1937C21.7223 18.0357 21.8659 17.9083 22.0437 17.9592L23.7194 18.5064C23.8208 18.5396 23.8889 18.6338 23.8889 18.741L23.889 23.6922H21.7212V18.1937ZM7.15627 26.2445V24.9036L13.3547 24.9037C13.3542 24.9212 13.3539 24.9389 13.3539 24.9565C13.3539 24.9566 13.3539 24.9567 13.3539 24.9569V24.9571V26.0789C13.3539 26.1342 13.3572 26.1892 13.3617 26.2442L7.15627 26.2445ZM14.7026 26.4267C14.6147 26.3334 14.5658 26.2067 14.5654 26.0788V24.957C14.564 24.6825 14.7936 24.4437 15.0767 24.4456H16.1284C16.4113 24.4438 16.6413 24.6826 16.6395 24.9571V26.0789C16.6419 26.3537 16.41 26.5927 16.1284 26.5905H15.0767C14.9289 26.5905 14.7961 26.5272 14.7026 26.4267ZM17.843 26.2442C17.8478 26.1896 17.8512 26.1349 17.8511 26.0792V24.9569C17.8506 24.9392 17.8505 24.9214 17.8501 24.9037L23.889 24.9036V26.2445L17.843 26.2442ZM23.8889 29.7884H21.7211V27.4561H23.8889V29.7884ZM27.0724 23.663L27.6508 29.7884H25.1005L25.1004 19.9761C26.2193 20.8804 26.941 22.2299 27.0724 23.663ZM26.0194 10.1225V11.8507C26.0194 12.1483 25.7773 12.3904 25.4797 12.3904H20.592C21.1739 11.5688 21.5607 10.6207 21.6963 9.58283H25.4797C25.7773 9.58289 26.0194 9.82494 26.0194 10.1225ZM5.06638 10.1225C5.06638 9.82494 5.30849 9.58289 5.60602 9.58289H9.30122C9.43684 10.6209 9.8236 11.5688 10.4055 12.3904H5.60596C5.30843 12.3904 5.06632 12.1483 5.06632 11.8508L5.06638 10.1225ZM3.34659 29.7884L3.925 23.6631C4.06274 22.2073 4.81173 20.8557 5.94487 19.9442V29.7884H3.34659ZM7.15633 27.4561H9.32411V29.7884H7.15633V27.4561ZM10.5355 27.456L14.042 27.4557C14.3304 27.673 14.6887 27.802 15.0767 27.802H16.1284C16.5164 27.802 16.8747 27.673 17.163 27.4557L20.5097 27.456V29.7884H10.5355V27.456Z" fill="black" />
      <path d="M15.2248 11.1211H16.1671C16.5016 11.1211 16.7728 10.8499 16.7728 10.5154C16.7728 10.1809 16.5016 9.90968 16.1671 9.90968H15.6717L16.0615 8.75897C16.1689 8.44211 15.999 8.09824 15.6822 7.99084C15.3653 7.88357 15.0214 8.05336 14.9141 8.37021L14.3809 9.9442C14.289 10.2155 14.3338 10.5165 14.5007 10.7493C14.6676 10.9821 14.9383 11.1211 15.2248 11.1211Z" fill="black" />
      <path d="M14.9944 0.942309C15.4649 1.59353 16.4225 0.952 16.0012 0.269342C15.7805 -0.0850702 15.2148 -0.0848885 14.9944 0.269342C14.8586 0.46778 14.8587 0.743569 14.9944 0.942309Z" fill="black" />
    </g>
  </symbol>

  <symbol id="icon2" width="24" height="31" viewBox="0 0 24 31" fill="none" xmlns="http://www.w3.org/2000/svg">
    <g clip-path="url(#clip0_36_347)">
      <path d="M12.8541 2.76592L11.8821 3.73792L10.9102 2.76592" stroke="black" stroke-width="0.898438" stroke-miterlimit="10" stroke-linecap="round" stroke-linejoin="round" />
      <mask id="mask0_36_347" style="mask-type:luminance" maskUnits="userSpaceOnUse" x="0" y="0" width="31" height="31">
        <path d="M0 6.48499e-05H30.6667V30.6667H0V6.48499e-05Z" fill="white" />
      </mask>
      <g mask="url(#mask0_36_347)">
        <path d="M0.517578 30.2176L1.44896 21.032C1.60469 19.4956 2.89844 18.3265 4.44255 18.3265H9.69183" stroke="black" stroke-width="0.898438" stroke-miterlimit="10" stroke-linecap="round" stroke-linejoin="round" />
        <path d="M14.0762 18.3263H19.3254C20.8696 18.3263 22.1633 19.4955 22.319 21.0318L23.2498 30.2175" stroke="black" stroke-width="0.898438" stroke-miterlimit="10" stroke-linecap="round" stroke-linejoin="round" />
        <path d="M16.9875 7.95418V12.9392C16.9875 14.812 15.4693 16.3301 13.5966 16.3301H10.1704C8.29754 16.3301 6.7793 14.812 6.7793 12.9392V7.95418H16.9875Z" stroke="black" stroke-width="0.898438" stroke-miterlimit="10" stroke-linecap="round" stroke-linejoin="round" />
        <path d="M6.77941 12.811H6.05239C5.11196 12.811 4.34961 12.0486 4.34961 11.1081V9.6571C4.34961 8.71661 5.11196 7.9542 6.05239 7.9542H6.77941V12.811Z" stroke="black" stroke-width="0.898438" stroke-miterlimit="10" stroke-linecap="round" stroke-linejoin="round" />
        <path d="M16.9883 12.8111H17.7152C18.6557 12.8111 19.4181 12.0487 19.4181 11.1082V9.65716C19.4181 8.71667 18.6557 7.95426 17.7152 7.95426H16.9883V12.8111Z" stroke="black" stroke-width="0.898438" stroke-miterlimit="10" stroke-linecap="round" stroke-linejoin="round" />
        <path d="M14.0758 16.2966V18.3264L11.8836 19.9286L9.69141 18.3264V16.2966" stroke="black" stroke-width="0.898438" stroke-miterlimit="10" stroke-linecap="round" stroke-linejoin="round" />
        <path d="M5.02734 30.2173V18.3265" stroke="black" stroke-width="0.898438" stroke-miterlimit="10" stroke-linecap="round" stroke-linejoin="round" />
        <path d="M18.7383 27.7152V30.2172" stroke="black" stroke-width="0.898438" stroke-miterlimit="10" stroke-linecap="round" stroke-linejoin="round" />
        <path d="M18.7383 18.3265V25.6044" stroke="black" stroke-width="0.898438" stroke-miterlimit="10" stroke-linecap="round" stroke-linejoin="round" />
        <path d="M20.5547 21.5589H22.3723" stroke="black" stroke-width="0.898438" stroke-miterlimit="10" stroke-linecap="round" stroke-linejoin="round" />
        <path d="M9.69305 18.3266H8.13672L9.48426 21.4125C9.5871 21.6481 9.89029 21.7141 10.0818 21.5426L11.8849 19.9284L9.69305 18.3266Z" stroke="black" stroke-width="0.898438" stroke-miterlimit="10" stroke-linecap="round" stroke-linejoin="round" />
        <path d="M14.0746 18.3265H15.631L14.2834 21.4124C14.1806 21.6481 13.8774 21.7141 13.6859 21.5426L11.8828 19.9284L14.0746 18.3265Z" stroke="black" stroke-width="0.898438" stroke-miterlimit="10" stroke-linecap="round" stroke-linejoin="round" />
        <path d="M10.6367 21.0435L11.8824 19.9285L13.1134 21.0306L11.8824 22.9009L10.6367 21.0435Z" stroke="black" stroke-width="0.898438" stroke-miterlimit="10" stroke-linecap="round" stroke-linejoin="round" />
        <path d="M13.3928 30.2173L11.8839 22.9008L10.293 30.2173" stroke="black" stroke-width="0.898438" stroke-miterlimit="10" stroke-linecap="round" stroke-linejoin="round" />
        <path d="M5.02734 23.8209H8.56845C8.86625 23.8209 9.06852 24.1233 8.95466 24.3985L8.56276 25.3462C8.49813 25.5025 8.34569 25.6044 8.17655 25.6044H5.02734V23.8209Z" stroke="black" stroke-width="0.898438" stroke-miterlimit="10" stroke-linecap="round" stroke-linejoin="round" />
        <path d="M18.7388 23.8209H15.1977C14.8999 23.8209 14.6977 24.1234 14.8115 24.3986L15.2034 25.3462C15.268 25.5025 15.4205 25.6044 15.5896 25.6044H18.7388V23.8209Z" stroke="black" stroke-width="0.898438" stroke-miterlimit="10" stroke-linecap="round" stroke-linejoin="round" />
        <path d="M15.3325 6.05457H16.9875V7.95416H6.7793V6.05457H13.2149" stroke="black" stroke-width="0.898438" stroke-miterlimit="10" stroke-linecap="round" stroke-linejoin="round" />
        <path d="M16.9874 6.05463L17.5264 4.57125V3.20903C17.5264 2.8142 17.2916 2.45716 16.9291 2.30077L13.3307 0.748032C12.4072 0.349545 11.3602 0.349545 10.4367 0.747972L6.83758 2.30077C6.47503 2.45716 6.24023 2.8142 6.24023 3.20909V4.57125L6.77918 6.05463" stroke="black" stroke-width="0.898438" stroke-miterlimit="10" stroke-linecap="round" stroke-linejoin="round" />
        <path d="M16.9875 7.95423H6.7793C6.7793 8.66202 7.25122 9.28296 7.93319 9.47253L10.9837 10.3204C11.5726 10.4841 12.195 10.4841 12.7839 10.3204L15.8338 9.47253C16.5157 9.28296 16.9875 8.66196 16.9875 7.95423Z" stroke="black" stroke-width="0.898438" stroke-miterlimit="10" stroke-linecap="round" stroke-linejoin="round" />
        <path d="M11.8105 12.1423V12.8921" stroke="black" stroke-width="0.898438" stroke-miterlimit="10" stroke-linecap="round" stroke-linejoin="round" />
        <path d="M10.0098 14.3163L11.8119 12.892L13.7583 14.3163" stroke="black" stroke-width="0.898438" stroke-miterlimit="10" stroke-linecap="round" stroke-linejoin="round" />
      </g>
    </g>
  </symbol>

  <symbol id="icon3" width="30" height="30" viewBox="0 0 30 30" fill="none" xmlns="http://www.w3.org/2000/svg">
    <g clip-path="url(#clip0_36_408)">
      <path d="M21.526 19.8473C21.4559 19.5362 21.2822 19.2581 21.0333 19.0587C20.7844 18.8594 20.4752 18.7505 20.1563 18.75H19.2188C18.929 18.7512 18.6466 18.8419 18.4103 19.0097C18.174 19.1775 17.9954 19.4142 17.8988 19.6875H16.875V18.4218C17.7223 18.1217 18.4855 17.6234 19.1011 16.9684C19.7166 16.3133 20.1667 15.5206 20.4136 14.6564C20.4427 14.5383 20.4247 14.4135 20.3635 14.3085C20.3022 14.2034 20.2026 14.1262 20.0855 14.0932C19.9685 14.0602 19.8432 14.0741 19.7361 14.1317C19.6291 14.1894 19.5486 14.2864 19.5117 14.4023C19.2328 15.3839 18.6414 16.2477 17.8272 16.8628C17.013 17.4779 16.0204 17.8107 15 17.8107C13.9796 17.8107 12.987 17.4779 12.1728 16.8628C11.3586 16.2477 10.7672 15.3839 10.4883 14.4023C10.4733 14.3413 10.4461 14.2839 10.4085 14.2335C10.3708 14.1832 10.3234 14.1409 10.2691 14.1093C10.2148 14.0776 10.1546 14.0572 10.0922 14.0493C10.0299 14.0413 9.96654 14.046 9.90602 14.0631C9.8455 14.0801 9.78903 14.1092 9.73997 14.1485C9.69091 14.1878 9.65026 14.2366 9.62044 14.292C9.59062 14.3473 9.57224 14.4081 9.5664 14.4707C9.56056 14.5333 9.56737 14.5965 9.58643 14.6564C9.83339 15.5206 10.2834 16.3133 10.899 16.9684C11.5145 17.6234 12.2778 18.1217 13.125 18.4218V19.6875H12.1013C12.0047 19.4142 11.826 19.1775 11.5897 19.0097C11.3534 18.8419 11.0711 18.7512 10.7813 18.75H9.84377C9.52487 18.7505 9.21561 18.8594 8.96673 19.0587C8.71785 19.2581 8.54414 19.5362 8.47409 19.8473C7.12966 20.1526 5.92927 20.9066 5.07059 21.9851C4.21192 23.0637 3.74616 24.4026 3.75002 25.7812V29.5312C3.75002 29.6555 3.79941 29.7748 3.88732 29.8627C3.97523 29.9506 4.09445 30 4.21877 30H25.7813C25.9056 30 26.0248 29.9506 26.1127 29.8627C26.2006 29.7748 26.25 29.6555 26.25 29.5312V25.7812C26.2539 24.4026 25.7881 23.0637 24.9295 21.9851C24.0708 20.9066 22.8704 20.1526 21.526 19.8473ZM14.0625 18.6703C14.683 18.7765 15.317 18.7765 15.9375 18.6703V20.1562C15.9375 20.4049 15.8388 20.6433 15.6629 20.8191C15.4871 20.995 15.2487 21.0937 15 21.0937C14.7514 21.0937 14.5129 20.995 14.3371 20.8191C14.1613 20.6433 14.0625 20.4049 14.0625 20.1562V18.6703ZM12.1875 20.625H13.1841C13.2877 21.0279 13.5223 21.3849 13.8511 21.6398C14.1798 21.8947 14.584 22.0331 15 22.0331C15.416 22.0331 15.8202 21.8947 16.149 21.6398C16.4777 21.3849 16.7124 21.0279 16.816 20.625H17.8125V21.0937C17.8125 21.4667 17.6644 21.8244 17.4006 22.0881C17.1369 22.3518 16.7792 22.5 16.4063 22.5H13.5938C13.2208 22.5 12.8631 22.3518 12.5994 22.0881C12.3357 21.8244 12.1875 21.4667 12.1875 21.0937V20.625ZM6.25971 22.0683C6.34767 22.1015 6.42358 22.1605 6.47758 22.2375C6.53158 22.3145 6.56118 22.4059 6.56252 22.5C6.56273 22.5625 6.5501 22.6243 6.52543 22.6817C6.50076 22.7391 6.46456 22.7909 6.41909 22.8337C6.37678 22.877 6.32614 22.9113 6.27023 22.9345C6.21433 22.9577 6.1543 22.9693 6.09377 22.9687H5.52049C5.73215 22.6417 5.98014 22.3396 6.25971 22.0683ZM11.25 29.0625H9.37502V27.1012C9.52514 27.1567 9.68372 27.1859 9.84377 27.1875H10.7813C10.9413 27.1859 11.0999 27.1567 11.25 27.1012V29.0625ZM11.25 25.7812C11.25 25.9055 11.2006 26.0248 11.1127 26.1127C11.0248 26.2006 10.9056 26.25 10.7813 26.25H9.84377C9.71945 26.25 9.60022 26.2006 9.51232 26.1127C9.42441 26.0248 9.37502 25.9055 9.37502 25.7812V25.3125H11.25V25.7812ZM15.9375 29.0625H14.0625V27.1012C14.2126 27.1567 14.3712 27.1859 14.5313 27.1875H15.4688C15.6288 27.1859 15.7874 27.1567 15.9375 27.1012V29.0625ZM15.9375 25.7812C15.9375 25.9055 15.8881 26.0248 15.8002 26.1127C15.7123 26.2006 15.5931 26.25 15.4688 26.25H14.5313C14.407 26.25 14.2877 26.2006 14.1998 26.1127C14.1119 26.0248 14.0625 25.9055 14.0625 25.7812V25.3125H15.9375V25.7812ZM20.625 29.0625H18.75V27.1012C18.9001 27.1567 19.0587 27.1859 19.2188 27.1875H20.1563C20.3163 27.1859 20.4749 27.1567 20.625 27.1012V29.0625ZM20.625 25.7812C20.625 25.9055 20.5756 26.0248 20.4877 26.1127C20.3998 26.2006 20.2806 26.25 20.1563 26.25H19.2188C19.0945 26.25 18.9752 26.2006 18.8873 26.1127C18.7994 26.0248 18.75 25.9055 18.75 25.7812V25.3125H20.625V25.7812ZM22.5 29.0625H21.5625V24.8437C21.5625 24.7194 21.5131 24.6002 21.4252 24.5123C21.3373 24.4244 21.2181 24.375 21.0938 24.375H18.2813C18.157 24.375 18.0377 24.4244 17.9498 24.5123C17.8619 24.6002 17.8125 24.7194 17.8125 24.8437V29.0625H16.875V24.8437C16.875 24.7194 16.8256 24.6002 16.7377 24.5123C16.6498 24.4244 16.5306 24.375 16.4063 24.375H13.5938C13.4695 24.375 13.3502 24.4244 13.2623 24.5123C13.1744 24.6002 13.125 24.7194 13.125 24.8437V29.0625H12.1875V24.8437C12.1875 24.7194 12.1381 24.6002 12.0502 24.5123C11.9623 24.4244 11.8431 24.375 11.7188 24.375H8.90627C8.78195 24.375 8.66272 24.4244 8.57482 24.5123C8.48691 24.6002 8.43752 24.7194 8.43752 24.8437V29.0625H7.50002V25.9687C7.50039 25.6495 7.60895 25.3398 7.80799 25.0903L8.52237 24.1997C8.56084 24.1516 8.58947 24.0964 8.60661 24.0373C8.62376 23.9781 8.62909 23.9162 8.6223 23.855C8.61551 23.7938 8.59673 23.7345 8.56704 23.6806C8.53735 23.6266 8.49732 23.5791 8.44924 23.5406C8.40117 23.5021 8.34598 23.4735 8.28684 23.4564C8.2277 23.4392 8.16577 23.4339 8.10457 23.4407C8.04337 23.4475 7.9841 23.4662 7.93016 23.4959C7.87622 23.5256 7.82865 23.5656 7.79018 23.6137L7.07815 24.5062C6.74577 24.9213 6.56399 25.4369 6.56252 25.9687V29.0625H4.68752V25.7812C4.68758 25.1398 4.80679 24.5041 5.03909 23.9062H6.09377C6.46617 23.9044 6.82278 23.7556 7.0861 23.4923C7.34942 23.229 7.49818 22.8724 7.50002 22.5C7.49953 22.303 7.45753 22.1083 7.37677 21.9285C7.296 21.7488 7.17828 21.5882 7.03127 21.457C7.46536 21.1756 7.93945 20.9613 8.43752 20.8214V22.5C8.43752 22.6243 8.48691 22.7435 8.57482 22.8314C8.66272 22.9193 8.78195 22.9687 8.90627 22.9687C9.03059 22.9687 9.14982 22.9193 9.23773 22.8314C9.32564 22.7435 9.37502 22.6243 9.37502 22.5V20.1562C9.37502 20.0319 9.42441 19.9127 9.51232 19.8248C9.60022 19.7369 9.71945 19.6875 9.84377 19.6875H10.7813C10.9056 19.6875 11.0248 19.7369 11.1127 19.8248C11.2006 19.9127 11.25 20.0319 11.25 20.1562V21.0937C11.2508 21.7151 11.4979 22.3108 11.9373 22.7502C12.3767 23.1896 12.9724 23.4367 13.5938 23.4375H16.4063C17.0276 23.4367 17.6234 23.1896 18.0627 22.7502C18.5021 22.3108 18.7493 21.7151 18.75 21.0937V20.1562C18.75 20.0319 18.7994 19.9127 18.8873 19.8248C18.9752 19.7369 19.0945 19.6875 19.2188 19.6875H20.1563C20.2806 19.6875 20.3998 19.7369 20.4877 19.8248C20.5756 19.9127 20.625 20.0319 20.625 20.1562V22.192C20.6242 22.4999 20.6844 22.8048 20.8022 23.0893C20.92 23.3737 21.093 23.6319 21.3113 23.849L22.0885 24.6262C22.3512 24.8905 22.499 25.2478 22.5 25.6204V29.0625ZM25.3125 29.0625H23.4375V25.6204C23.4384 25.3126 23.3782 25.0076 23.2604 24.7232C23.1426 24.4387 22.9695 24.1805 22.7513 23.9634L21.9741 23.1862C21.7114 22.9219 21.5635 22.5647 21.5625 22.192V20.8214C22.5669 21.1023 23.4618 21.6826 24.1281 22.4849C24.7943 23.2873 25.2003 24.2736 25.2919 25.3125C24.9229 25.319 24.5711 25.4699 24.312 25.7328C24.053 25.9957 23.9073 26.3496 23.9063 26.7187C23.9063 27.0917 24.0544 27.4494 24.3182 27.7131C24.5819 27.9768 24.9396 28.125 25.3125 28.125V29.0625ZM25.3125 27.1875C25.1882 27.1875 25.069 27.1381 24.9811 27.0502C24.8932 26.9623 24.8438 26.843 24.8438 26.7187C24.8436 26.6562 24.8562 26.5944 24.8809 26.537C24.9055 26.4796 24.9417 26.4278 24.9872 26.385C25.0295 26.3417 25.0802 26.3074 25.1361 26.2842C25.192 26.261 25.252 26.2494 25.3125 26.25V27.1875Z" fill="black" />
      <path d="M8.66141 11.8186L9.37438 12.0567V12.6563C9.37437 12.7691 9.41503 12.8781 9.4889 12.9633C9.56278 13.0486 9.66491 13.1043 9.77657 13.1203L12.5928 13.5234C12.8094 13.5542 13.0301 13.5343 13.2377 13.4651C13.4452 13.396 13.6338 13.2795 13.7886 13.125L14.6699 12.2438C14.7576 12.157 14.876 12.1084 14.9994 12.1084C15.1228 12.1084 15.2412 12.157 15.3289 12.2438L16.2102 13.125C16.4748 13.3893 16.8332 13.5381 17.2072 13.5389C17.2733 13.5389 20.2222 13.1217 20.2222 13.1217C20.3341 13.1057 20.4364 13.0497 20.5103 12.9642C20.5842 12.8787 20.6247 12.7693 20.6244 12.6563V12.0567L21.3374 11.8186C21.9271 11.6221 22.4145 11.1994 22.6926 10.6435C22.9706 10.0875 23.0165 9.44393 22.82 8.85422L22.4994 7.89281V7.03125C22.502 5.98874 22.2707 4.95893 21.8225 4.01766C21.797 3.96061 21.7604 3.90923 21.7148 3.86654C21.6691 3.82385 21.6154 3.79071 21.5568 3.76907C21.4982 3.74744 21.4359 3.73774 21.3734 3.74055C21.311 3.74335 21.2498 3.75861 21.1934 3.78542C21.1369 3.81224 21.0864 3.85006 21.0448 3.89668C21.0032 3.94329 20.9713 3.99775 20.9511 4.05686C20.9308 4.11597 20.9226 4.17853 20.9269 4.24086C20.9311 4.3032 20.9478 4.36405 20.9759 4.41985C21.3639 5.23559 21.5642 6.12793 21.5619 7.03125V7.96875C21.5621 8.01907 21.5701 8.06905 21.5858 8.11688L21.9308 9.15047C21.9892 9.32575 22.0125 9.51082 21.9993 9.6951C21.9861 9.87938 21.9368 10.0593 21.8541 10.2245C21.7714 10.3897 21.6569 10.537 21.5173 10.6579C21.3776 10.7789 21.2155 10.8711 21.0402 10.9294L20.4866 11.1141L20.0272 9.27563C19.9585 9.00937 19.8433 8.75736 19.6869 8.53125V6.09375C19.685 5.72136 19.5363 5.36475 19.273 5.10143C19.0096 4.8381 18.653 4.68935 18.2806 4.6875C17.9077 4.6875 17.55 4.83566 17.2863 5.09938C17.0225 5.36311 16.8744 5.72079 16.8744 6.09375V7.5H12.2445C11.7217 7.49947 11.2138 7.67398 10.8017 7.9957C10.3895 8.31742 10.097 8.76784 9.97063 9.27516L9.51126 11.1136L8.95766 10.9294C8.78234 10.8711 8.62022 10.7789 8.48057 10.6579C8.34092 10.537 8.22646 10.3897 8.14375 10.2245C8.06104 10.0593 8.0117 9.87938 7.99853 9.6951C7.98537 9.51082 8.00865 9.32575 8.06704 9.15047L8.41157 8.11688C8.42792 8.06918 8.43647 8.01917 8.43688 7.96875V7.03125H9.84313C10.2155 7.0294 10.5721 6.88065 10.8355 6.61733C11.0988 6.35401 11.2475 5.99739 11.2494 5.625C11.2494 5.25204 11.1012 4.89436 10.8375 4.63063C10.5738 4.36691 10.2161 4.21875 9.84313 4.21875H9.13016C9.79042 2.95386 10.8715 1.95914 12.1869 1.40625V3.28125C12.1869 3.65421 12.335 4.0119 12.5988 4.27562C12.8625 4.53934 13.2202 4.6875 13.5931 4.6875H16.4056C16.7786 4.6875 17.1363 4.53934 17.4 4.27562C17.6637 4.0119 17.8119 3.65421 17.8119 3.28125C17.81 2.90886 17.6613 2.55225 17.398 2.28893C17.1346 2.0256 16.778 1.87685 16.4056 1.875H15.4681C15.3438 1.875 15.2246 1.82562 15.1367 1.73771C15.0488 1.6498 14.9994 1.53057 14.9994 1.40625V0.937502H15.4681C16.358 0.936762 17.2372 1.13128 18.0437 1.50732C18.8503 1.88337 19.5645 2.43179 20.1359 3.11391C20.2159 3.20914 20.3304 3.26871 20.4542 3.27952C20.5781 3.29034 20.7012 3.2515 20.7964 3.17156C20.8916 3.09163 20.9512 2.97713 20.962 2.85327C20.9728 2.72941 20.934 2.60632 20.8541 2.5111C20.1946 1.72413 19.3705 1.0914 18.4399 0.657534C17.5093 0.223664 16.4949 -0.000787747 15.4681 2.07726e-06H14.5306C12.6665 0.0021112 10.8793 0.743579 9.56112 2.06174C8.24296 3.3799 7.50149 5.1671 7.49938 7.03125V7.89281L7.17876 8.85422C6.98229 9.44393 7.02811 10.0875 7.30616 10.6435C7.58421 11.1994 8.07171 11.6221 8.66141 11.8186ZM17.8119 6.09375C17.8119 5.96943 17.8613 5.8502 17.9492 5.7623C18.0371 5.67439 18.1563 5.625 18.2806 5.625C18.3431 5.6248 18.405 5.63743 18.4624 5.6621C18.5198 5.68677 18.5715 5.72296 18.6144 5.76844C18.6577 5.81075 18.6919 5.86138 18.7151 5.91729C18.7383 5.9732 18.75 6.03323 18.7494 6.09375V7.72875C18.4558 7.58992 18.1365 7.51362 17.8119 7.50469V6.09375ZM10.3119 11.7769L10.8805 9.5025C10.9566 9.19832 11.1321 8.92829 11.3793 8.73533C11.6264 8.54236 11.931 8.43754 12.2445 8.4375H17.7542C18.0678 8.43754 18.3723 8.54236 18.6195 8.73533C18.8666 8.92829 19.0422 9.19832 19.1183 9.5025L19.6869 11.7769V12.2498L17.2709 12.5953C17.1989 12.6052 17.1256 12.5981 17.0568 12.5748C16.988 12.5514 16.9255 12.5124 16.8744 12.4608L15.9931 11.5795C15.7296 11.317 15.3728 11.1697 15.0008 11.1697C14.6288 11.1697 14.272 11.317 14.0084 11.5795L13.1244 12.4608C13.0729 12.5128 13.01 12.5521 12.9407 12.5755C12.8713 12.5988 12.7975 12.6056 12.725 12.5953L10.3119 12.2498V11.7769ZM13.1244 1.10766C13.4326 1.03447 13.746 0.985566 14.0619 0.961408V1.40625C14.0619 1.77921 14.21 2.1369 14.4738 2.40062C14.7375 2.66434 15.0952 2.8125 15.4681 2.8125H16.4056C16.4681 2.8123 16.53 2.82493 16.5874 2.8496C16.6448 2.87427 16.6965 2.91046 16.7394 2.95594C16.7827 2.99825 16.8169 3.04888 16.8401 3.10479C16.8633 3.1607 16.875 3.22072 16.8744 3.28125C16.8744 3.40557 16.825 3.5248 16.7371 3.61271C16.6492 3.70062 16.53 3.75 16.4056 3.75H13.5931C13.4688 3.75 13.3496 3.70062 13.2617 3.61271C13.1738 3.5248 13.1244 3.40557 13.1244 3.28125V1.10766ZM8.73501 5.15625H9.84313C9.96745 5.15625 10.0867 5.20564 10.1746 5.29355C10.2625 5.38145 10.3119 5.50068 10.3119 5.625C10.3121 5.68749 10.2995 5.74935 10.2748 5.80676C10.2501 5.86417 10.2139 5.9159 10.1684 5.95875C10.1261 6.00204 10.0755 6.03631 10.0196 6.05951C9.96368 6.08272 9.90366 6.09436 9.84313 6.09375H8.51657C8.56452 5.77598 8.63756 5.4625 8.73501 5.15625Z" fill="black" />
    </g>
  </symbol>

  <symbol id="icon4" width="30" height="30" viewBox="0 0 30 30" fill="none" xmlns="http://www.w3.org/2000/svg">
    <g clip-path="url(#clip0_36_404)">
      <path d="M29.4141 17.7475H26.7815C26.2798 17.7475 25.7938 17.9558 25.448 18.3192L21.6211 22.3413V14.6477H21.6797C22.649 14.6477 23.4375 13.8592 23.4375 12.8899C23.4375 11.9206 22.649 11.1321 21.6797 11.1321H21.6211V7.96874C21.6211 7.6451 21.3588 7.3828 21.0352 7.3828C20.7115 7.3828 20.4492 7.6451 20.4492 7.96874V11.1321H16.954L14.575 10.0044C14.5599 9.99526 14.5445 9.98633 14.5285 9.97832L14.274 9.85289C15.8496 9.64301 17.0691 8.29146 17.0691 6.65954C17.0691 4.8825 15.6235 3.43689 13.8464 3.43689C12.0696 3.43689 10.6238 4.8825 10.6238 6.65954C10.6238 7.44025 10.903 8.15665 11.3665 8.71489C11.0046 8.69933 10.6453 8.74671 10.3036 8.85199L9.40681 8.40957C7.85408 7.64396 5.96786 8.28414 5.20226 9.83687L3.17665 13.9444C2.88414 14.5372 2.84203 15.2076 3.0574 15.8324C3.27301 16.4573 3.71979 16.9592 4.31534 17.2458L4.95049 17.5511C4.61998 18.6863 4.74907 19.9138 5.33432 20.9719L5.28259 21.0237C5.28259 21.0239 5.28214 21.0241 5.28214 21.0241C5.28191 21.0244 5.28168 21.0246 5.28145 21.0248L2.46185 23.8444C2.45842 23.8478 2.45476 23.8506 2.45132 23.8538L1.03043 25.2747C0.801773 25.5036 0.801773 25.8746 1.03043 26.1035L3.72345 28.7963C3.73466 28.8077 3.74657 28.818 3.7587 28.8281H0.585938C0.262299 28.8281 0 29.0904 0 29.414C0 29.7376 0.262299 29.9999 0.585938 29.9999H6.21094C6.77147 29.9999 7.30019 29.7832 7.69958 29.3897L11.9646 25.1863C12.1122 25.041 12.3074 24.9609 12.5146 24.9609H18.6257C19.9731 24.9609 21.2787 24.4011 22.2075 23.4249L26.2969 19.1269C26.4226 18.9949 26.5993 18.9191 26.7815 18.9191H28.8281V29.414C28.8281 29.7376 29.0907 29.9999 29.4141 29.9999C29.7377 29.9999 30 29.7376 30 29.414V18.3334C30 18.0098 29.7377 17.7475 29.4141 17.7475ZM22.2656 12.8899C22.2656 13.2129 22.0029 13.4759 21.6797 13.4759H17.0281L17.2911 12.304H21.6797C22.0026 12.304 22.2656 12.5667 22.2656 12.8899ZM13.8464 4.60876C14.9773 4.60876 15.8972 5.52864 15.8972 6.65954C15.8972 7.79021 14.9773 8.71032 13.8464 8.71032C12.7158 8.71032 11.7957 7.79021 11.7957 6.65954C11.7957 5.52864 12.7158 4.60876 13.8464 4.60876ZM12.0964 10.0857L13.9572 11.0033C13.9767 11.0156 13.997 11.0273 14.0183 11.0374L16.1478 12.0467L15.8846 13.2191L13.5164 12.0962C13.5127 12.0946 13.5088 12.0932 13.5052 12.0916C13.4997 12.0888 13.4946 12.0854 13.4892 12.0829L12.1916 11.4466C11.9009 11.3042 11.5501 11.4244 11.4075 11.7148C11.2651 12.0055 11.385 12.3564 11.6757 12.499L12.4459 12.8764L10.9364 15.9375H7.0166L9.46129 10.9801C9.94125 10.0069 11.1232 9.6057 12.0964 10.0857ZM7.35191 22.2656L6.52336 21.4368C6.61926 21.3226 6.6655 21.1786 6.65932 21.0351H7.83165C7.82776 21.4943 7.65862 21.9271 7.35191 22.2656ZM8.37753 18.8269C8.0928 19.1116 7.91176 19.4723 7.85294 19.8632H6.12053C5.87128 19.1297 5.88661 18.3325 6.16837 17.6049C6.18919 17.5763 6.20842 17.5465 6.22421 17.5136C6.24733 17.4655 6.26266 17.4158 6.27205 17.3659C6.31348 17.2792 6.3588 17.1933 6.40846 17.1093H10.9854L10.3995 18.2812H9.69475C9.19716 18.2812 8.72932 18.4751 8.37753 18.8269ZM12.168 20.1514L13.3399 19.8365V21.4453H12.168V20.1514ZM13.3399 18.6229L11.9792 18.9887C11.8783 18.8138 11.741 18.6628 11.5778 18.5456L12.2958 17.1093H12.5146C12.9696 17.1093 13.3399 17.4797 13.3399 17.9345V18.6229ZM8.8884 9.46059L9.08318 9.55672C8.8131 9.80849 8.58307 10.1118 8.41026 10.4619L7.89116 11.5146L6.08917 10.6876L6.25328 10.3553C6.73302 9.38208 7.91519 8.98063 8.8884 9.46059ZM4.16519 15.4502C4.05258 15.1236 4.07455 14.7727 4.22745 14.4626L5.57076 11.7391L7.37251 12.5661L5.55862 16.2442L5.42084 16.4769L4.82323 16.1895C4.51172 16.0398 4.27803 15.777 4.16519 15.4502ZM5.69641 22.2672L6.52496 23.0957L4.52339 25.0973L3.69484 24.2688L5.69641 22.2672ZM2.27348 25.689L2.8656 25.0968L3.72322 25.9545C3.99216 26.2234 4.14024 26.5807 4.14024 26.9611C4.14024 27.1357 4.10889 27.3058 4.04892 27.4646L2.27348 25.689ZM6.87698 28.555C6.69823 28.731 6.46156 28.8281 6.21094 28.8281H4.51675C4.52866 28.8178 4.54056 28.8075 4.552 28.7963C5.04227 28.306 5.31212 27.6544 5.31212 26.9611C5.31212 26.6663 5.26291 26.3793 5.1693 26.109L8.11615 23.1619C8.68858 22.5892 9.00398 21.8282 9.00398 21.0184V20.1441C9.00398 19.9596 9.07585 19.7861 9.20631 19.6557C9.33678 19.525 9.51027 19.4533 9.69475 19.4533H10.7572C10.8888 19.4533 10.9962 19.5607 10.9962 19.6925V24.3752C10.9962 24.4127 11.0001 24.4493 11.0067 24.4851L6.87698 28.555ZM12.5146 23.789H12.168V22.6171H13.3788C14.1428 22.6171 14.7945 23.107 15.0362 23.789H12.5146ZM16.2495 23.789C16.0547 22.8323 15.3921 22.0438 14.5118 21.6732V17.9345C14.5118 16.8333 13.6157 15.9375 12.5146 15.9375H12.2429L13.5013 13.3859L16.0437 14.5912C16.0641 14.601 16.0851 14.6088 16.1064 14.6161C16.1101 14.6173 16.1137 14.6182 16.1172 14.6193C16.1259 14.6221 16.1343 14.6251 16.143 14.6274C16.1469 14.6285 16.151 14.629 16.1549 14.6299C16.1593 14.631 16.1634 14.6324 16.1678 14.6335C16.1776 14.6356 16.1877 14.6367 16.1975 14.6383C16.2067 14.6399 16.2156 14.6418 16.2247 14.6429C16.2488 14.6459 16.2728 14.6477 16.2966 14.6477H16.2991H20.4492V23.3173C19.8949 23.6229 19.2666 23.789 18.6257 23.789H16.2495Z" fill="black" />
      <path d="M21.0352 6.04522C21.1892 6.04522 21.3405 5.98251 21.4494 5.87356C21.5584 5.76393 21.6211 5.61333 21.6211 5.45929C21.6211 5.30502 21.5584 5.15396 21.4494 5.04501C21.3405 4.93538 21.1892 4.87335 21.0352 4.87335C20.8811 4.87335 20.7298 4.93538 20.6209 5.04501C20.5119 5.15396 20.4492 5.30502 20.4492 5.45929C20.4492 5.61333 20.5119 5.76393 20.6209 5.87356C20.7298 5.98251 20.8811 6.04522 21.0352 6.04522Z" fill="black" />
      <path d="M26.4844 7.03124C28.4228 7.03124 30 5.45401 30 3.51562C30 1.57699 28.4228 0 26.4844 0C24.5457 0 22.9688 1.57699 22.9688 3.51562C22.9688 5.45401 24.5457 7.03124 26.4844 7.03124ZM26.4844 1.17187C27.7766 1.17187 28.8281 2.22335 28.8281 3.51562C28.8281 4.80788 27.7766 5.85936 26.4844 5.85936C25.1921 5.85936 24.1406 4.80788 24.1406 3.51562C24.1406 2.22335 25.1921 1.17187 26.4844 1.17187Z" fill="black" />
    </g>
  </symbol>

  <symbol id="icon5" width="31" height="28" viewBox="0 0 31 28" fill="none" xmlns="http://www.w3.org/2000/svg">
    <path d="M7.59661 17.9494C7.92452 17.9494 8.19033 18.2152 8.19033 18.5431C8.19033 18.871 7.92452 19.1368 7.59661 19.1368C7.2687 19.1368 7.00289 18.871 7.00289 18.5431C7.00289 18.2152 7.2687 17.9494 7.59661 17.9494ZM3.20607 2.4688H10.9244C11.2522 2.4688 11.5181 2.20299 11.5181 1.87508C11.5181 1.54717 11.2522 1.28136 10.9244 1.28136H3.20607C2.87822 1.28136 2.61236 1.54717 2.61236 1.87508C2.61236 2.20299 2.87822 2.4688 3.20607 2.4688ZM1.8999 8.46534H6.05592C6.38377 8.46534 6.64963 8.19953 6.64963 7.87162C6.64963 7.54371 6.38377 7.2779 6.05592 7.2779H1.8999C1.57204 7.2779 1.30618 7.54371 1.30618 7.87162C1.30618 8.19953 1.57204 8.46534 1.8999 8.46534ZM5.93717 14.3431C6.26502 14.3431 6.53089 14.0773 6.53089 13.7494C6.53089 13.4215 6.26502 13.1557 5.93717 13.1557H0.593717C0.265867 13.1557 0 13.4215 0 13.7494C0 14.0773 0.265867 14.3431 0.593717 14.3431H5.93717ZM30.1608 6.62826V11.584C30.1608 12.8075 29.4596 13.8607 28.3283 14.3266C27.2976 14.7511 26.0834 14.6323 25.0932 13.6831L23.4391 12.0291C23.0565 12.4692 22.5784 12.8304 22.0236 13.0886L18.4831 14.736L21.2776 17.5304C22.5172 18.7806 22.3247 20.9353 20.6381 21.8679L13.5078 25.6957C12.2056 26.3419 11.0833 25.641 10.6414 24.8341C10.0808 23.8104 10.4749 22.5202 11.5028 21.9673L16.8507 19.0904L14.5234 16.7631L3.912 27.3746C2.95974 28.3269 1.64139 28.081 0.919074 27.3746C0.220032 26.691 -0.0296265 25.3298 0.919074 24.3811L5.28765 20.012C5.84414 19.4558 6.68371 20.2959 6.12722 20.8521L1.75865 25.2206C1.35195 25.6273 1.43875 26.2152 1.75865 26.5351C2.08418 26.8607 2.67761 26.9301 3.07255 26.5351L11.8574 17.7503L10.5432 16.4361L9.90564 17.0736C9.346 17.6333 8.50648 16.7938 9.06612 16.2341L18.3559 6.94424L17.0031 5.59139L14.4696 8.12484C13.1109 9.4835 10.9807 9.34552 9.7638 8.12858C9.54145 7.90623 9.52708 7.52566 9.7638 7.28889L14.9078 2.14504C16.0653 0.987589 17.9485 0.987648 19.106 2.14504L20.3343 3.37338C20.4327 1.49379 21.9877 0 23.8918 0C25.8594 0 27.4544 1.59502 27.4544 3.56254C27.4544 5.46671 25.9604 7.02183 24.0806 7.12003L26.2434 9.28366C26.2864 7.48464 27.7609 6.03448 29.5672 6.03448C29.895 6.03454 30.1608 6.30035 30.1608 6.62826ZM21.2946 8.20369C21.8158 8.72485 22.2985 8.29518 22.3898 8.20369C22.4813 8.1122 22.9111 7.62968 22.3898 7.1084L18.2662 2.98479C17.5718 2.29026 16.4418 2.29038 15.7473 2.98479L11.0829 7.64916C11.7671 8.03632 12.8602 8.05496 13.6298 7.28527L16.5832 4.33194C16.8151 4.10003 17.1912 4.10033 17.4229 4.33194L21.2946 8.20369ZM13.7183 15.8892C13.3086 15.3201 13.0734 14.6475 13.0413 13.9379L11.3827 15.5964L12.6969 16.9106L13.7183 15.8892ZM17.8467 15.7789L14.5743 12.5065C13.9103 13.5981 14.2717 14.8775 14.9427 15.5031L16.1378 16.6982L17.8467 15.7789ZM17.0145 17.5749L18.2549 18.8153C18.5182 19.0852 18.4838 19.5334 18.1163 19.758L12.0653 23.0131C11.6141 23.2558 11.4445 23.8204 11.6872 24.2716C11.93 24.7229 12.4947 24.8925 12.9458 24.6498L20.0765 20.8217C20.8905 20.4125 21.2359 19.1829 20.4379 18.3701L18.7233 16.6556L17.0145 17.5749ZM23.271 9.00004C23.2573 9.01459 22.7011 9.64624 21.8239 9.64624C21.3608 9.64624 20.8793 9.46771 20.4549 9.04332L19.1955 7.78387L15.3632 11.6161L17.5893 13.8422L21.5227 12.0119C22.7739 11.4301 23.3589 10.1852 23.271 9.00004ZM23.8917 5.93771C25.2035 5.93771 26.2668 4.8743 26.2668 3.5626C26.2668 2.25084 25.2035 1.18749 23.8917 1.18749C22.58 1.18749 21.5166 2.25084 21.5166 3.5626C21.5166 4.87436 22.58 5.93771 23.8917 5.93771ZM28.9734 7.30605C28.0828 7.56461 27.4297 8.38958 27.4297 9.36464V10.7165C27.4297 11.2463 26.7996 11.5029 26.4161 11.1363L24.4686 9.18801C24.486 9.62214 24.3788 10.3863 24.0929 11.0037L25.9328 12.8435C26.5531 13.464 27.3422 13.4498 27.8738 13.2296C28.4054 13.0095 28.9734 12.4615 28.9734 11.5841V7.30605Z" fill="black" />
  </symbol>
</svg>